<?xml version="1.0" encoding="utf-8"?>
<!-- Generator: Adobe Illustrator 26.0.2, SVG Export Plug-In . SVG Version: 6.00 Build 0)  -->
<svg version="1.1" id="Layer_1" xmlns="http://www.w3.org/2000/svg" xmlns:xlink="http://www.w3.org/1999/xlink" x="0px" y="0px"
	 viewBox="0 0 85.9 111.6" style="enable-background:new 0 0 85.9 111.6;" xml:space="preserve">
<style type="text/css">
	.st0{clip-path:url(#SVGID_00000135659547790743029830000004729430897896968120_);}
	.st1{fill:#FFFFFF;}
	.st2{fill:#00A65D;}
	.st3{clip-path:url(#SVGID_00000015345743536330089370000000768539548553920430_);enable-background:new    ;}
	.st4{fill:#231F20;}
</style>
<g id="b49bec67-8702-471b-83ad-9543399238f9">
	<g id="edb78b51-19f5-4a56-88b8-45adceee30ad">
		<g>
			<g>
				<defs>
					<rect id="SVGID_1_" x="-12.8" y="-0.9" width="110.6" height="123.3"/>
				</defs>
				<clipPath id="SVGID_00000138543925677602226700000013568854562353417139_">
					<use xlink:href="#SVGID_1_"  style="overflow:visible;"/>
				</clipPath>
				<g style="clip-path:url(#SVGID_00000138543925677602226700000013568854562353417139_);">
					<path class="st1" d="M84.9,54c0.1,23.5-18.7,42.6-42.2,42.7S0.1,78,0,54.6S18.7,12,42.2,11.8c0.1,0,0.2,0,0.3,0
						C65.9,11.7,84.9,30.6,84.9,54C84.9,54,84.9,54,84.9,54"/>
					<path class="st2" d="M30.9,13.4L0,55.6c0-0.5,0-1,0-1.6C0.1,35.1,12.7,18.5,30.9,13.4 M66.5,19.2c-2.4-1.6-4.9-3-7.6-4.1
						l-38,52.1c1.8,0.9,2.7,2.5,5.8,2.5c1.7,0,3.9-1.1,6-4L66.5,19.2z M4,72c2.9,0,6.7-1.1,8.8-2.7c1.9-1.6,3-2.9,5-2.9
						c0.3,0,0.6,0,0.9,0l38.1-52.1c-2.9-1-6-1.8-9.1-2.1L4,72L4,72 M5,73.8c1.1,2.1,2.4,4.1,3.9,6l4.4-6H5z M55.8,73.8L39.5,96.1
						c1,0.1,2,0.1,3,0.1c2.7,0,5.5-0.3,8.1-0.8l15.8-21.6L55.8,73.8z M45.2,11.9c-0.9-0.1-1.8-0.1-2.8-0.1c-2.8,0-5.6,0.3-8.4,0.8
						L0.3,58.9c0.4,3.7,1.3,7.3,2.7,10.8L45.2,11.9z M69.1,73.9L53.8,94.7C65,91.6,74.5,84.1,80,73.9L69.1,73.9z M42.5,73.9L28,93.7
						c2.9,1.1,5.9,1.8,9,2.2l16.1-22L42.5,73.9z M29.2,73.9L18.3,88.7c2.4,1.6,4.9,3,7.6,4.2l13.9-19L29.2,73.9z M15.9,73.9
						l-5.6,7.7c1.9,2.2,4,4.2,6.3,5.9l10-13.6H15.9z M17.8,67.7c-0.8,0-1.5,0.7-1.5,1.5c0,0.8,0.7,1.5,1.5,1.5
						c0.8,0,1.5-0.7,1.5-1.5c0,0,0,0,0,0C19.3,68.4,18.6,67.7,17.8,67.7 M84.9,52.1c0-1.1-0.1-2.2-0.3-3.3L69.8,69.3h2.7L84.9,52.1z
						 M80.9,35.9L56.5,69.3h2.7l22.7-31.1C81.6,37.3,81.2,36.6,80.9,35.9 M74.6,26.3l-31.4,43h2.7L76,28
						C75.5,27.5,75.1,26.9,74.6,26.3"/>
				</g>
			</g>
			<g>
				<defs>
					<rect id="SVGID_00000178179529974784230940000017654008096727508898_" x="-12.8" y="-0.9" width="110.6" height="123.3"/>
				</defs>
				<clipPath id="SVGID_00000007418644136760700270000008527345259791120547_">
					<use xlink:href="#SVGID_00000178179529974784230940000017654008096727508898_"  style="overflow:visible;"/>
				</clipPath>
				<g style="clip-path:url(#SVGID_00000007418644136760700270000008527345259791120547_);enable-background:new    ;">
					<path class="st4" d="M22.1,105.4c0.2,0,0.4,0,0.6,0s0.4-0.1,0.5-0.2c0.1-0.1,0.3-0.2,0.4-0.3c0.1-0.1,0.1-0.3,0.1-0.5
						c0-0.3-0.1-0.5-0.3-0.7c-0.2-0.2-0.5-0.3-0.8-0.3c-0.2,0-0.4,0-0.5,0.1c-0.1,0.1-0.3,0.2-0.4,0.3c-0.1,0.1-0.2,0.3-0.2,0.5
						c0,0.2-0.1,0.3-0.1,0.5h-1.1c0-0.3,0.1-0.6,0.2-0.9s0.3-0.5,0.5-0.7c0.2-0.2,0.4-0.4,0.7-0.5c0.3-0.1,0.6-0.2,0.9-0.2
						c0.3,0,0.5,0,0.8,0.1c0.3,0.1,0.5,0.2,0.7,0.3s0.4,0.3,0.5,0.6c0.1,0.2,0.2,0.5,0.2,0.8c0,0.3-0.1,0.7-0.2,0.9
						c-0.2,0.3-0.4,0.4-0.7,0.6v0c0.4,0.1,0.7,0.3,0.9,0.6c0.2,0.3,0.3,0.7,0.3,1.1c0,0.3-0.1,0.6-0.2,0.9c-0.1,0.3-0.3,0.5-0.5,0.7
						c-0.2,0.2-0.5,0.3-0.8,0.4s-0.6,0.1-0.9,0.1c-0.4,0-0.8-0.1-1.1-0.2c-0.3-0.1-0.6-0.3-0.8-0.5c-0.2-0.2-0.4-0.5-0.5-0.8
						c-0.1-0.3-0.2-0.6-0.2-1h1.1c0,0.4,0.1,0.8,0.3,1s0.6,0.4,1,0.4c0.4,0,0.7-0.1,1-0.3c0.3-0.2,0.4-0.5,0.4-0.9
						c0-0.3-0.1-0.5-0.2-0.6c-0.1-0.2-0.2-0.3-0.4-0.4s-0.4-0.1-0.6-0.2c-0.2,0-0.4,0-0.7,0V105.4z"/>
					<path class="st4" d="M28.1,102.4c0.5,0,0.9,0.1,1.2,0.3s0.6,0.5,0.7,0.9c0.2,0.4,0.3,0.7,0.4,1.2c0.1,0.4,0.1,0.8,0.1,1.2
						c0,0.4,0,0.8-0.1,1.2c-0.1,0.4-0.2,0.8-0.4,1.2s-0.4,0.6-0.7,0.9s-0.7,0.3-1.2,0.3c-0.5,0-0.9-0.1-1.2-0.3s-0.6-0.5-0.7-0.9
						s-0.3-0.7-0.4-1.2s-0.1-0.8-0.1-1.2c0-0.4,0-0.8,0.1-1.2c0.1-0.4,0.2-0.8,0.4-1.2c0.2-0.4,0.4-0.6,0.7-0.9
						S27.6,102.4,28.1,102.4z M28.1,108.7c0.2,0,0.5-0.1,0.6-0.2c0.2-0.1,0.3-0.3,0.4-0.6c0.1-0.2,0.2-0.5,0.2-0.8
						c0-0.3,0.1-0.7,0.1-1s0-0.7-0.1-1c0-0.3-0.1-0.6-0.2-0.8c-0.1-0.2-0.2-0.4-0.4-0.6c-0.2-0.1-0.4-0.2-0.6-0.2
						c-0.3,0-0.5,0.1-0.6,0.2c-0.2,0.1-0.3,0.3-0.4,0.6c-0.1,0.2-0.2,0.5-0.2,0.8c0,0.3-0.1,0.7-0.1,1s0,0.7,0.1,1
						c0,0.3,0.1,0.6,0.2,0.8c0.1,0.2,0.2,0.4,0.4,0.6C27.6,108.6,27.8,108.7,28.1,108.7z"/>
					<path class="st4" d="M36.1,107.8h-0.9v1.6h-1.1v-1.6h-3v-1.1l3-4.1h1.1v4.4h0.9V107.8z M32,106.9h2.1v-3h0L32,106.9z"/>
					<path class="st4" d="M36.9,103.7c0.2,0,0.5,0,0.7-0.1c0.2,0,0.4-0.1,0.6-0.2c0.2-0.1,0.3-0.2,0.5-0.4c0.1-0.1,0.2-0.3,0.3-0.5
						h0.9v6.9h-1.2v-4.9h-1.7V103.7z"/>
					<path class="st4" d="M47.4,102.4c0.5,0,0.9,0.1,1.2,0.3s0.6,0.5,0.7,0.9c0.2,0.4,0.3,0.7,0.4,1.2c0.1,0.4,0.1,0.8,0.1,1.2
						c0,0.4,0,0.8-0.1,1.2s-0.2,0.8-0.4,1.2s-0.4,0.6-0.7,0.9s-0.7,0.3-1.2,0.3c-0.5,0-0.9-0.1-1.2-0.3c-0.3-0.2-0.6-0.5-0.7-0.9
						s-0.3-0.7-0.4-1.2c-0.1-0.4-0.1-0.8-0.1-1.2c0-0.4,0-0.8,0.1-1.2c0.1-0.4,0.2-0.8,0.4-1.2c0.2-0.4,0.4-0.6,0.7-0.9
						C46.5,102.6,47,102.4,47.4,102.4z M47.4,108.7c0.2,0,0.5-0.1,0.6-0.2c0.2-0.1,0.3-0.3,0.4-0.6c0.1-0.2,0.2-0.5,0.2-0.8
						c0-0.3,0.1-0.7,0.1-1s0-0.7-0.1-1s-0.1-0.6-0.2-0.8c-0.1-0.2-0.2-0.4-0.4-0.6s-0.4-0.2-0.6-0.2c-0.3,0-0.5,0.1-0.6,0.2
						s-0.3,0.3-0.4,0.6c-0.1,0.2-0.2,0.5-0.2,0.8c0,0.3-0.1,0.7-0.1,1s0,0.7,0.1,1c0,0.3,0.1,0.6,0.2,0.8c0.1,0.2,0.2,0.4,0.4,0.6
						C47,108.6,47.2,108.7,47.4,108.7z"/>
					<path class="st4" d="M51.8,107.7c0,0.3,0.1,0.5,0.3,0.7s0.4,0.3,0.7,0.3c0.3,0,0.5-0.1,0.7-0.2c0.2-0.2,0.3-0.4,0.4-0.6
						s0.2-0.5,0.2-0.8c0-0.3,0.1-0.5,0.1-0.8l0,0c-0.2,0.3-0.4,0.5-0.6,0.6c-0.3,0.1-0.6,0.2-0.9,0.2c-0.3,0-0.6-0.1-0.9-0.2
						s-0.5-0.3-0.7-0.5c-0.2-0.2-0.3-0.4-0.4-0.7c-0.1-0.3-0.2-0.6-0.2-1c0-0.3,0.1-0.6,0.2-0.9c0.1-0.3,0.3-0.5,0.5-0.7
						c0.2-0.2,0.5-0.4,0.8-0.5c0.3-0.1,0.6-0.2,1-0.2c0.5,0,0.9,0.1,1.2,0.3c0.3,0.2,0.6,0.4,0.8,0.8c0.2,0.3,0.3,0.7,0.4,1.1
						c0.1,0.4,0.1,0.9,0.1,1.4c0,0.4,0,0.8-0.1,1.2c-0.1,0.4-0.2,0.8-0.4,1.1s-0.5,0.6-0.8,0.8s-0.7,0.3-1.2,0.3
						c-0.3,0-0.5,0-0.8-0.1c-0.2-0.1-0.5-0.2-0.7-0.4c-0.2-0.2-0.3-0.4-0.5-0.6c-0.1-0.2-0.2-0.5-0.2-0.8H51.8z M52.9,103.4
						c-0.2,0-0.4,0-0.5,0.1c-0.2,0.1-0.3,0.2-0.4,0.3c-0.1,0.1-0.2,0.3-0.2,0.5c0,0.2-0.1,0.3-0.1,0.5c0,0.2,0,0.4,0.1,0.5
						c0,0.2,0.1,0.3,0.2,0.5c0.1,0.1,0.2,0.2,0.4,0.3c0.2,0.1,0.3,0.1,0.5,0.1c0.2,0,0.4,0,0.6-0.1c0.2-0.1,0.3-0.2,0.4-0.3
						c0.1-0.1,0.2-0.3,0.2-0.5c0.1-0.2,0.1-0.4,0.1-0.5c0-0.2,0-0.4-0.1-0.5c-0.1-0.2-0.1-0.3-0.2-0.4c-0.1-0.1-0.2-0.2-0.4-0.3
						C53.3,103.4,53.1,103.4,52.9,103.4z"/>
					<path class="st4" d="M57.3,107.7c0,0.3,0.1,0.5,0.3,0.7c0.2,0.2,0.4,0.3,0.7,0.3c0.3,0,0.5-0.1,0.7-0.2
						c0.2-0.2,0.3-0.4,0.4-0.6s0.2-0.5,0.2-0.8c0-0.3,0.1-0.5,0.1-0.8l0,0c-0.2,0.3-0.4,0.5-0.6,0.6c-0.3,0.1-0.6,0.2-0.9,0.2
						c-0.3,0-0.6-0.1-0.9-0.2s-0.5-0.3-0.7-0.5c-0.2-0.2-0.3-0.4-0.4-0.7c-0.1-0.3-0.2-0.6-0.2-1c0-0.3,0.1-0.6,0.2-0.9
						c0.1-0.3,0.3-0.5,0.5-0.7c0.2-0.2,0.5-0.4,0.8-0.5c0.3-0.1,0.6-0.2,1-0.2c0.5,0,0.9,0.1,1.2,0.3c0.3,0.2,0.6,0.4,0.8,0.8
						s0.3,0.7,0.4,1.1s0.1,0.9,0.1,1.4c0,0.4,0,0.8-0.1,1.2c-0.1,0.4-0.2,0.8-0.4,1.1s-0.5,0.6-0.8,0.8s-0.7,0.3-1.2,0.3
						c-0.3,0-0.5,0-0.8-0.1c-0.2-0.1-0.5-0.2-0.7-0.4c-0.2-0.2-0.3-0.4-0.5-0.6c-0.1-0.2-0.2-0.5-0.2-0.8H57.3z M58.4,103.4
						c-0.2,0-0.4,0-0.5,0.1s-0.3,0.2-0.4,0.3c-0.1,0.1-0.2,0.3-0.2,0.5c0,0.2-0.1,0.3-0.1,0.5c0,0.2,0,0.4,0.1,0.5
						c0,0.2,0.1,0.3,0.2,0.5c0.1,0.1,0.2,0.2,0.4,0.3s0.3,0.1,0.5,0.1c0.2,0,0.4,0,0.6-0.1c0.2-0.1,0.3-0.2,0.4-0.3
						c0.1-0.1,0.2-0.3,0.2-0.5c0.1-0.2,0.1-0.4,0.1-0.5c0-0.2,0-0.4-0.1-0.5c-0.1-0.2-0.1-0.3-0.2-0.4c-0.1-0.1-0.2-0.2-0.4-0.3
						C58.8,103.4,58.6,103.4,58.4,103.4z"/>
					<path class="st4" d="M62.9,107.7c0,0.3,0.1,0.5,0.3,0.7c0.2,0.2,0.4,0.3,0.7,0.3c0.3,0,0.5-0.1,0.7-0.2
						c0.2-0.2,0.3-0.4,0.4-0.6s0.2-0.5,0.2-0.8c0-0.3,0.1-0.5,0.1-0.8l0,0c-0.2,0.3-0.4,0.5-0.6,0.6c-0.3,0.1-0.6,0.2-0.9,0.2
						c-0.3,0-0.6-0.1-0.9-0.2c-0.3-0.1-0.5-0.3-0.7-0.5c-0.2-0.2-0.3-0.4-0.4-0.7c-0.1-0.3-0.2-0.6-0.2-1c0-0.3,0.1-0.6,0.2-0.9
						c0.1-0.3,0.3-0.5,0.5-0.7s0.5-0.4,0.8-0.5c0.3-0.1,0.6-0.2,1-0.2c0.5,0,0.9,0.1,1.2,0.3c0.3,0.2,0.6,0.4,0.8,0.8
						c0.2,0.3,0.3,0.7,0.4,1.1c0.1,0.4,0.1,0.9,0.1,1.4c0,0.4,0,0.8-0.1,1.2c-0.1,0.4-0.2,0.8-0.4,1.1c-0.2,0.3-0.5,0.6-0.8,0.8
						c-0.3,0.2-0.7,0.3-1.2,0.3c-0.3,0-0.5,0-0.8-0.1s-0.5-0.2-0.7-0.4s-0.3-0.4-0.5-0.6c-0.1-0.2-0.2-0.5-0.2-0.8H62.9z M64,103.4
						c-0.2,0-0.4,0-0.5,0.1c-0.2,0.1-0.3,0.2-0.4,0.3c-0.1,0.1-0.2,0.3-0.2,0.5c0,0.2-0.1,0.3-0.1,0.5c0,0.2,0,0.4,0.1,0.5
						c0.1,0.2,0.1,0.3,0.2,0.5c0.1,0.1,0.2,0.2,0.4,0.3c0.2,0.1,0.3,0.1,0.5,0.1c0.2,0,0.4,0,0.6-0.1c0.2-0.1,0.3-0.2,0.4-0.3
						c0.1-0.1,0.2-0.3,0.2-0.5c0.1-0.2,0.1-0.4,0.1-0.5c0-0.2,0-0.4-0.1-0.5c-0.1-0.2-0.1-0.3-0.2-0.4c-0.1-0.1-0.2-0.2-0.4-0.3
						C64.4,103.4,64.2,103.4,64,103.4z"/>
				</g>
				<g style="clip-path:url(#SVGID_00000007418644136760700270000008527345259791120547_);enable-background:new    ;">
					<path class="st4" d="M7,22.2c0.2,0.2,0.4,0.3,0.6,0.4c0.2,0.1,0.4,0.1,0.7,0s0.4-0.1,0.6-0.2c0.2-0.1,0.4-0.3,0.6-0.5
						c0.2-0.2,0.4-0.4,0.5-0.6s0.2-0.4,0.2-0.5c0-0.2,0-0.3-0.1-0.5C10,20.2,9.9,20.1,9.8,20c-0.2-0.2-0.4-0.3-0.6-0.3
						c-0.2,0-0.4,0-0.5,0.1c-0.3,0.1-0.5,0.3-0.9,0.5c-0.3,0.2-0.7,0.4-1.2,0.7c-0.3,0.2-0.6,0.3-0.8,0.4s-0.5,0.1-0.7,0.1
						c-0.2,0-0.4-0.1-0.6-0.2c-0.2-0.1-0.3-0.2-0.5-0.3c-0.3-0.3-0.5-0.5-0.5-0.9c-0.1-0.3-0.1-0.6-0.1-0.9c0.1-0.3,0.2-0.6,0.3-0.9
						c0.2-0.3,0.4-0.6,0.6-0.8c0.3-0.3,0.6-0.5,0.9-0.7c0.3-0.2,0.6-0.3,1-0.4c0.3-0.1,0.7,0,1,0.1s0.6,0.3,0.9,0.5l-0.9,1
						c-0.4-0.3-0.7-0.4-1.1-0.3c-0.4,0.1-0.7,0.3-1,0.6c-0.1,0.1-0.2,0.2-0.3,0.4c-0.1,0.1-0.2,0.3-0.2,0.4c0,0.1,0,0.3,0,0.5
						c0,0.2,0.1,0.3,0.2,0.4c0.2,0.2,0.4,0.3,0.6,0.3c0.2,0,0.5-0.1,0.7-0.2c0,0,0.1-0.1,0.3-0.2c0.2-0.1,0.4-0.2,0.6-0.4
						c0.2-0.1,0.4-0.3,0.6-0.4c0.2-0.1,0.4-0.2,0.4-0.3c0.2-0.1,0.5-0.2,0.7-0.3c0.2,0,0.4,0,0.7,0c0.2,0,0.4,0.1,0.6,0.2
						c0.2,0.1,0.3,0.2,0.5,0.3c0.3,0.3,0.5,0.6,0.6,0.9c0.1,0.3,0.1,0.7,0,1c-0.1,0.3-0.2,0.7-0.4,1c-0.2,0.3-0.4,0.6-0.7,0.9
						c-0.3,0.3-0.6,0.6-1,0.8c-0.3,0.2-0.7,0.3-1.1,0.4c-0.4,0.1-0.7,0-1.1-0.1c-0.4-0.1-0.7-0.3-1.1-0.6L7,22.2z"/>
				</g>
				<g style="clip-path:url(#SVGID_00000007418644136760700270000008527345259791120547_);enable-background:new    ;">
					<path class="st4" d="M7.9,14.3L9,13.4l5.2,3.5l0,0l-2-5.9l1.1-0.8l2.5,7.5l-1.2,0.9L7.9,14.3z"/>
				</g>
				<g style="clip-path:url(#SVGID_00000007418644136760700270000008527345259791120547_);enable-background:new    ;">
					<path class="st4" d="M16.3,8.4l1.3-0.7l6.3,5.1l-1.3,0.7L21,12.2l-2.7,1.5l0.3,2.1l-1.2,0.7L16.3,8.4z M18.1,12.6l2.1-1.1
						l-2.6-2.3l0,0L18.1,12.6z"/>
				</g>
				<g style="clip-path:url(#SVGID_00000007418644136760700270000008527345259791120547_);enable-background:new    ;">
					<path class="st4" d="M22.2,5.5L23.6,5l5.1,4.1l0,0l-1.8-5.2l1.2-0.4l2.5,7.1L29.3,11l-5.1-4.1l0,0l1.8,5.2l-1.2,0.4L22.2,5.5z"
						/>
				</g>
				<g style="clip-path:url(#SVGID_00000007418644136760700270000008527345259791120547_);enable-background:new    ;">
					<path class="st4" d="M31.1,2.7l5.5-0.9l0.2,1.1l-4.1,0.7L33,5.5l3.8-0.6L37,6l-3.8,0.6l0.4,2.2l4.2-0.7l0.2,1.1l-5.5,0.9
						L31.1,2.7z"/>
				</g>
				<g style="clip-path:url(#SVGID_00000007418644136760700270000008527345259791120547_);enable-background:new    ;">
					<path class="st4" d="M39.1,1.6l1.4,0L44.1,7l0,0L44,1.5l1.3,0L45.5,9L44,9l-3.6-5.4l0,0l0.1,5.5l-1.3,0L39.1,1.6z"/>
				</g>
				<g style="clip-path:url(#SVGID_00000007418644136760700270000008527345259791120547_);enable-background:new    ;">
					<path class="st4" d="M48.7,1.8l1.9,0.4l1,6.2l0,0L54.7,3l1.8,0.4l-1.4,7.4l-1.3-0.2L55,4.8l0,0L51.8,10l-1.1-0.2l-1-6.1l0,0
						l-1.1,5.7l-1.3-0.2L48.7,1.8z"/>
				</g>
				<g style="clip-path:url(#SVGID_00000007418644136760700270000008527345259791120547_);enable-background:new    ;">
					<path class="st4" d="M61.7,5.1L63,5.6l-0.1,8.1l-1.3-0.5l0.1-2.1l-2.8-1.1l-1.4,1.6L56.1,11L61.7,5.1z M59.5,9.1l2.2,0.9
						l0.2-3.4l0,0L59.5,9.1z M61.2,4l0.4-1.1l1.1,0.5l-0.4,1.1L61.2,4z M64.5,4.1l-0.4,1.1l-1.1-0.5l0.4-1.1L64.5,4.1z"/>
				</g>
				<g style="clip-path:url(#SVGID_00000007418644136760700270000008527345259791120547_);enable-background:new    ;">
					<path class="st4" d="M67.7,7.8l3.1,1.9c0.7,0.4,1.2,0.9,1.3,1.5c0.2,0.5,0.1,1.1-0.3,1.6c-0.2,0.3-0.4,0.5-0.6,0.7
						c-0.2,0.1-0.4,0.2-0.6,0.3c-0.2,0-0.4,0.1-0.5,0c-0.2,0-0.3,0-0.3-0.1l0,0c0.1,0.1,0.2,0.2,0.3,0.3c0.1,0.1,0.1,0.3,0.2,0.4
						c0,0.2,0,0.4,0,0.6c0,0.2-0.1,0.4-0.3,0.7c-0.2,0.4-0.4,0.7-0.6,1.1c-0.1,0.3-0.2,0.6-0.1,0.8L68,16.9c0-0.2,0-0.4,0.1-0.5
						c0.1-0.2,0.2-0.3,0.3-0.5c0.2-0.3,0.3-0.6,0.4-0.8s0.1-0.5,0.1-0.7c0-0.2-0.1-0.4-0.2-0.6c-0.1-0.2-0.3-0.3-0.6-0.5l-1.7-1
						l-1.6,2.6l-1.1-0.7L67.7,7.8z M67,11.4l1.9,1.2c0.4,0.2,0.7,0.3,1,0.3c0.3-0.1,0.5-0.2,0.8-0.6c0.1-0.2,0.2-0.4,0.2-0.6
						c0-0.2,0-0.3-0.1-0.5c-0.1-0.1-0.2-0.3-0.3-0.4c-0.1-0.1-0.3-0.2-0.4-0.3l-1.9-1.2L67,11.4z"/>
				</g>
				<g style="clip-path:url(#SVGID_00000007418644136760700270000008527345259791120547_);enable-background:new    ;">
					<path class="st4" d="M75.4,12.8l1,0.9l-2.3,2.6l4.8-0.4l1.2,1.1l-4.3,0.3l-0.6,5.5L74,21.7l0.6-4.3L73,17.5l-1.7,1.9l-1-0.9
						L75.4,12.8z"/>
				</g>
				<g style="clip-path:url(#SVGID_00000007418644136760700270000008527345259791120547_);enable-background:new    ;">
					<path class="st4" d="M80.7,17.7l4,4.6l-0.9,0.7l-1.6-1.8l-4.9,4.1l-0.9-1l4.9-4.1l-1.5-1.8L80.7,17.7z"/>
				</g>
			</g>
		</g>
	</g>
</g>
</svg>
