<svg xmlns="http://www.w3.org/2000/svg" viewBox="0 0 10.9 12">
  <g id="a9ac6200-6d9e-4659-826b-49df485841cb" data-name="Layer 2">
    <g id="a78e9c58-6dc6-4756-a760-583fe3245755" data-name="Layer 1">
      <path d="M5.45,12a1.77,1.77,0,0,1-.88-.22L.88,9.66A2,2,0,0,1,0,8.12V3.87A2,2,0,0,1,.88,2.34L4.57.21A1.88,1.88,0,0,1,5.45,0a1.92,1.92,0,0,1,.89.21L10,2.34a2,2,0,0,1,.88,1.53V8.12A2,2,0,0,1,10,9.66L6.34,11.78A1.8,1.8,0,0,1,5.45,12ZM5.45.51a1.22,1.22,0,0,0-.63.15L1.14,2.78A1.45,1.45,0,0,0,.51,3.87V8.12a1.45,1.45,0,0,0,.63,1.1l3.68,2.12a1.4,1.4,0,0,0,1.26,0L9.76,9.22a1.45,1.45,0,0,0,.63-1.1V3.87a1.45,1.45,0,0,0-.63-1.09L6.08.66A1.22,1.22,0,0,0,5.45.51ZM1.78,8.06V6.73h.56a.46.46,0,0,1,.52.47.49.49,0,0,1-.55.49H2.1v.37Zm.54-.66a.2.2,0,0,0,.22-.19c0-.12-.08-.19-.23-.19H2.1V7.4Zm2.82.66L4.48,6.72h0L3.78,8.06h.35l.08-.15H4.7l.08.15Zm-.68-.67.14.3H4.31Zm2.12-.15c-.24-.07-.27-.09-.27-.16h0c0-.06.06-.1.15-.1a.56.56,0,0,1,.33.13h0L7,6.85a.75.75,0,0,0-.48-.16A.44.44,0,0,0,6,7.1H6c0,.28.2.35.46.42s.25.09.25.15h0c0,.07-.07.11-.17.11a.54.54,0,0,1-.38-.16h0l0,0-.14.28h0a.84.84,0,0,0,.4.2h0l.17,0c.31,0,.5-.17.5-.43H7c0-.25-.17-.35-.43-.41Zm2.11,0c-.24-.07-.27-.09-.27-.16h0c0-.06.06-.1.15-.1a.56.56,0,0,1,.33.13h0l.13-.26a.73.73,0,0,0-.48-.16.43.43,0,0,0-.48.41h0c0,.28.2.35.45.42s.25.09.25.15h0c0,.07-.06.11-.17.11a.57.57,0,0,1-.38-.16h0l-.05,0L8,7.86H8a.93.93,0,0,0,.41.2h0l.17,0a.44.44,0,0,0,.5-.43h0c0-.25-.17-.35-.43-.41ZM2.32,3.92a.7.7,0,0,0-.72.7h0a.69.69,0,0,0,.72.7A.7.7,0,0,0,3,4.62H3a.69.69,0,0,0-.72-.69Zm.38.7A.38.38,0,0,1,2.32,5a.38.38,0,0,1-.38-.39h0a.38.38,0,1,1,.76,0Zm1.87-.15c-.24-.06-.27-.09-.27-.16h0q0-.09.15-.09a.64.64,0,0,1,.33.12h0l.13-.27a.75.75,0,0,0-.48-.16A.43.43,0,0,0,4,4.34H4c0,.29.19.36.45.42s.25.09.25.15h0c0,.06-.06.1-.17.1a.57.57,0,0,1-.38-.16h0l0,0-.14.28h0a.93.93,0,0,0,.41.2h0l.16,0c.31,0,.51-.17.51-.43H5c0-.25-.17-.34-.43-.41ZM6.33,5l0-.12v-1H6V5.3H7V5H6.47L6.33,5Zm3-.43h0a.71.71,0,0,1-.72.7.69.69,0,0,1-.72-.7h0a.7.7,0,0,1,.72-.7.69.69,0,0,1,.72.69Zm-1.1,0A.38.38,0,0,0,8.58,5,.38.38,0,0,0,9,4.62H9a.38.38,0,1,0-.76,0Z"/>
    </g>
  </g>
</svg>
