<svg width="100" height="64" viewBox="0 0 100 64" fill="#e91627" xmlns="http://www.w3.org/2000/svg" class="header_logo__cGkoN icon_logo__cJ8Xv"><path d="M94.679 0.955287C94.679 0.955287 87.4446 1.0241 74.3857 5.31911C57.8144 10.7678 47.559 16.674 47.559 16.674C47.559 16.674 34.2947 9.10406 24.1884 4.8131C12.8615 0.00803781 5.32507 0.805509 5.32507 0.805509C5.40563 0.825749 13.1878 1.38438 25.0947 7.84511C34.4317 12.9052 41.9198 20.4387 41.9198 20.4387C41.9198 20.4387 40.1313 22.1065 39.3136 23.8714C37.7427 27.2678 38.9914 29.1704 39.3942 29.6602C41.0376 25.5959 44.8038 22.6611 49.9799 22.6611C51.5226 22.6611 52.9606 22.9606 54.2576 23.499H59.3853C59.3853 23.499 58.4549 22.4465 56.0259 21.0297C54.3503 20.0541 52.5216 19.2081 52.5216 19.2081C52.5216 19.2081 58.5757 13.901 74.1521 7.40387C88.218 1.53821 94.679 0.955287 94.679 0.955287Z"></path><path d="M0.713013 62.0286V27.2556H6.83965V62.0286H0.713013Z"></path><path d="M11.1617 62.0286V39.7075H16.9138V62.0286H11.1617Z"></path><path d="M28.2084 62.0286L19.2782 39.7075H25.5418L31.2012 54.8392L36.9049 39.7075H43.1685L34.2383 62.0286H28.2084Z"></path><path d="M48.0988 52.7707C48.7514 55.495 50.9507 57.4219 54.2698 57.4219C56.2798 57.4219 58.4308 56.6689 59.7399 54.9323L63.6672 58.0817C61.6572 60.9478 58.1045 62.6399 54.3141 62.6399C47.6276 62.6399 42.4838 57.6121 42.4838 51.0786C42.4838 44.7352 46.9267 39.2825 53.9878 39.2825C60.5334 39.2825 65.1616 44.6381 65.1616 50.9369C65.1616 51.5481 65.1133 52.2039 65.0206 52.7707H48.0988ZM59.3693 48.5445C59.043 46.2897 56.7027 44.549 53.9435 44.549C51.277 44.549 49.126 46.148 48.2841 48.5445H59.3693Z"></path><path d="M10.4125 33.1416C10.4125 31.073 12.0035 29.5226 14.0578 29.5226C16.1162 29.5226 17.6589 31.073 17.6589 33.1416C17.6589 35.2101 16.1162 36.8051 14.0578 36.8051C12.0035 36.8091 10.4125 35.2101 10.4125 33.1416Z"></path><path d="M75.1592 62.0286V39.7075H80.9112V62.0286H75.1592Z"></path><path d="M98.6788 62.0772C98.6788 62.0772 96.9951 62.6399 94.2359 62.6399C89.8856 62.6399 87.642 59.7739 87.642 55.402V45.2534H84.1335V39.7076H87.642V32.1417H93.394V39.7076H99.287V45.2534H93.394V54.1794C93.394 55.7298 93.8169 57.1872 95.8712 57.1872C97.3213 57.1872 98.6748 56.9524 98.6748 56.9524V62.0772H98.6788Z"></path><path d="M74.4099 33.1416C74.4099 31.073 76.001 29.5226 78.0553 29.5226C80.1136 29.5226 81.6564 31.073 81.6564 33.1416C81.6564 35.2101 80.1136 36.8051 78.0553 36.8051C75.997 36.8091 74.4099 35.2101 74.4099 33.1416Z"></path></svg>