<svg width="194" height="26" viewBox="0 0 194 26" fill="none" xmlns="http://www.w3.org/2000/svg">
<path d="M16.082 0.447999H12.442V12.486C12.442 14.774 11.246 16.932 8.464 16.932C5.656 16.932 4.486 14.774 4.486 12.486V0.447999H0.82V12.72C0.82 17.088 3.498 20.442 8.464 20.442C13.404 20.442 16.082 17.088 16.082 12.72V0.447999ZM26.9906 5.518C25.5866 5.518 23.8186 6.038 22.9606 7.65L22.5966 5.882H19.7106V25.668H23.1166V18.388C24.1046 19.636 25.6386 20.156 27.1206 20.156C31.1246 20.156 33.1526 16.49 33.1526 12.772C33.1526 8.014 30.0586 5.518 26.9906 5.518ZM26.4186 16.906C24.5986 16.906 23.1166 15.372 23.1166 12.876C23.1166 10.328 24.5986 8.82 26.4186 8.82C28.1606 8.82 29.6686 10.146 29.6686 12.876C29.6686 15.554 28.1606 16.906 26.4186 16.906ZM43.2914 5.518C41.8874 5.518 40.1194 6.038 39.2614 7.65L38.8974 5.882H36.0114V25.668H39.4174V18.388C40.4054 19.636 41.9394 20.156 43.4214 20.156C47.4254 20.156 49.4534 16.49 49.4534 12.772C49.4534 8.014 46.3594 5.518 43.2914 5.518ZM42.7194 16.906C40.8994 16.906 39.4174 15.372 39.4174 12.876C39.4174 10.328 40.8994 8.82 42.7194 8.82C44.4614 8.82 45.9694 10.146 45.9694 12.876C45.9694 15.554 44.4614 16.906 42.7194 16.906ZM55.7182 0.0319998V20H52.3122V0.0319998H55.7182ZM71.2788 17.01L68.5748 15.164C67.8728 16.464 66.7028 17.088 65.4548 17.088C63.8948 17.088 62.3348 16.152 62.1268 14.254H71.3828V12.694C71.3828 7.234 68.2628 5.518 65.3508 5.518C61.8928 5.518 58.5908 8.014 58.5908 12.902C58.5908 17.868 61.9708 20.338 65.4028 20.338C67.5868 20.338 69.8748 19.298 71.2788 17.01ZM65.2208 8.508C66.7288 8.508 67.9508 9.522 67.8728 11.55H62.1268C62.2828 9.704 63.5828 8.508 65.2208 8.508ZM79.4298 15.19L82.7318 5.882H86.2938L80.9898 20H77.8698L72.5658 5.882H76.1278L79.4298 15.19ZM100.148 17.01L97.4439 15.164C96.7419 16.464 95.5719 17.088 94.3239 17.088C92.7639 17.088 91.2039 16.152 90.9959 14.254H100.252V12.694C100.252 7.234 97.1319 5.518 94.2199 5.518C90.7619 5.518 87.4599 8.014 87.4599 12.902C87.4599 17.868 90.8399 20.338 94.2719 20.338C96.4559 20.338 98.7439 19.298 100.148 17.01ZM94.0899 8.508C95.5979 8.508 96.8199 9.522 96.7419 11.55H90.9959C91.1519 9.704 92.4519 8.508 94.0899 8.508ZM106.525 0.0319998V20H103.119V0.0319998H106.525ZM116.131 11.498C114.727 11.082 113.479 10.718 113.479 9.678C113.479 8.976 114.051 8.43 114.935 8.43C115.663 8.43 116.651 8.768 117.249 9.6L119.563 7.676C118.471 6.298 116.599 5.518 114.805 5.518C112.361 5.518 110.099 6.948 110.099 9.782C110.099 12.954 112.881 13.76 114.623 14.306C115.949 14.722 117.041 15.138 117.041 16.048C117.041 16.88 116.183 17.4 115.143 17.4C113.973 17.4 112.595 16.724 112.075 15.06L109.007 16.282C109.969 19.012 112.595 20.338 115.117 20.338C117.847 20.338 120.395 18.778 120.395 15.71C120.395 12.902 118.315 12.148 116.131 11.498ZM135.035 17.01L132.331 15.164C131.629 16.464 130.459 17.088 129.211 17.088C127.651 17.088 126.091 16.152 125.883 14.254H135.139V12.694C135.139 7.234 132.019 5.518 129.107 5.518C125.649 5.518 122.347 8.014 122.347 12.902C122.347 17.868 125.727 20.338 129.159 20.338C131.343 20.338 133.631 19.298 135.035 17.01ZM128.977 8.508C130.485 8.508 131.707 9.522 131.629 11.55H125.883C126.039 9.704 127.339 8.508 128.977 8.508ZM139.358 20.182C140.58 20.182 141.516 19.246 141.516 18.05C141.516 16.828 140.58 15.918 139.358 15.918C138.162 15.918 137.226 16.828 137.226 18.05C137.226 19.246 138.162 20.182 139.358 20.182ZM156.573 16.542L153.713 14.8C153.193 16.282 151.997 17.088 150.541 17.062C148.773 17.036 147.005 15.736 147.005 12.824C147.005 9.99 148.695 8.69 150.411 8.69C151.659 8.69 152.829 9.392 153.245 10.614L156.105 9.132C155.117 6.766 152.907 5.518 150.489 5.518C147.109 5.518 143.599 7.962 143.599 12.98C143.599 17.842 146.927 20.338 150.385 20.338C152.959 20.338 155.351 18.96 156.573 16.542ZM157.868 12.928C157.868 8.872 160.65 5.518 164.888 5.518C169.1 5.518 171.882 8.872 171.882 12.928C171.882 16.984 169.1 20.338 164.888 20.338C160.65 20.338 157.868 16.984 157.868 12.928ZM168.398 12.928C168.398 10.718 167.15 8.716 164.888 8.716C162.6 8.716 161.352 10.718 161.352 12.928C161.352 15.164 162.6 17.114 164.888 17.114C167.15 17.114 168.398 15.164 168.398 12.928ZM193.648 10.536C193.648 7.078 191.412 5.518 189.046 5.518C187.304 5.518 185.718 6.35 185.068 7.884C184.522 6.298 182.988 5.518 181.454 5.518C179.998 5.518 178.516 6.194 177.97 7.546L177.632 5.882H174.746V20H178.152V11.342C178.152 9.6 179.14 8.69 180.414 8.69C181.558 8.69 182.494 9.418 182.494 10.926V20H185.9V11.342C185.9 9.574 186.888 8.69 188.162 8.69C189.28 8.69 190.242 9.392 190.242 10.926V20H193.648V10.536Z" fill="#101828"/>
</svg>
