<svg xmlns="http://www.w3.org/2000/svg" xmlns:xlink="http://www.w3.org/1999/xlink" width="230" height="70" viewBox="0 0 230 70"><defs><path id="a" d="M14.436 33.724h8.72c1.75 0 3.17 1.426 3.17 3.184v5.902a3.178 3.178 0 0 1-3.17 3.185h-8.72v19.54a3.177 3.177 0 0 1-3.17 3.184H3.17A3.177 3.177 0 0 1 0 65.535V31.493h.006C.086 15.343 10.92 1.997 24.87.03c1.89-.267 3.568 1.248 3.568 3.165v8.708c0 1.512-1.066 2.785-2.535 3.111-6.512 1.448-11.463 8.365-11.463 16.656l-.005 2.053zm165.567.972c-.444-4.796-4.775-9.482-10.66-9.482-5.996 0-10.882 4.574-11.548 9.482h22.208zm11.228 23.216a3.203 3.203 0 0 1-.121 4.632c-5.234 4.717-12.584 7.291-19.768 7.291-16.101 0-28.205-11.155-28.205-28.11 0-15.06 10.216-28.223 26.206-28.223 14.88 0 25.429 12.605 25.429 27.664 0 .365-.008.731-.022 1.093a3.168 3.168 0 0 1-3.169 3.034h-34.453c.778 7.586 6.886 12.83 14.547 12.83 4.753 0 8.765-2.095 11.515-4.338 1.243-1.013 3.058-.88 4.19.258l3.851 3.87zm-76.92-10.275l13.928-31.141a3.17 3.17 0 0 1 2.89-1.88h7.994c2.311 0 3.846 2.406 2.88 4.516l-21.847 47.734a3.17 3.17 0 0 1-2.88 1.854h-5.931a3.17 3.17 0 0 1-2.88-1.854L86.617 19.132c-.966-2.11.568-4.515 2.88-4.515h7.992c1.249 0 2.38.736 2.892 1.879l13.928 31.14zm-43.846-12.94c-.445-4.797-4.775-9.483-10.66-9.483-5.997 0-10.883 4.574-11.549 9.482h22.209zm10.46 22.444c1.758 1.766 1.598 4.672-.335 6.243-5.148 4.182-12.04 6.451-18.787 6.451-16.1 0-28.204-11.155-28.204-28.11 0-15.06 10.216-28.223 26.206-28.223 14.879 0 25.428 12.605 25.428 27.664 0 .365-.007.731-.021 1.094a3.167 3.167 0 0 1-3.169 3.033H47.59c.778 7.586 6.884 12.83 14.547 12.83 4.362 0 8.101-1.765 10.812-3.79 1.692-1.262 4.03-1.157 5.52.34l2.456 2.468zm135.001-12.94l-.005 21.442a3.177 3.177 0 0 1-3.17 3.184h-8.096a3.177 3.177 0 0 1-3.17-3.184v-21.62h.006c.08-16.15 10.915-29.496 24.865-31.463 1.89-.266 3.568 1.249 3.568 3.166v8.708c0 1.512-1.066 2.785-2.535 3.111-6.512 1.448-11.463 8.365-11.463 16.656z"/></defs><use fill="#111111" fill-rule="evenodd" xlink:href="#a"/></svg>
