<svg width="170" height="18" viewBox="0 0 170 18" fill="none" xmlns="http://www.w3.org/2000/svg">
<g id="Group">
<g id="Group_2">
<g id="Group_3">
<path id="Vector" d="M147.706 11.325C147.706 11.325 149.34 11.6087 150.612 10.3663C150.612 10.3663 149.179 12.6839 146.927 11.7879C146.927 11.7879 147.288 12.227 148.253 12.442L150.454 17.0323L147.987 16.9935L146.162 12.8362C146.162 12.8362 145.455 11.8835 141.441 11.3668L138.556 18L137.122 16.7576C137.122 16.7576 135.533 15.5241 135.575 13.8098C135.575 13.8098 135.563 11.1667 138.093 9.98704C138.093 9.98704 139.072 9.46141 140.819 9.54503L143.683 2.3952L147.706 11.325ZM142.253 9.96613C143.537 10.1125 145.099 10.5545 145.099 10.5545L143.477 6.90491L142.253 9.96613ZM137.471 12.4928C136.366 14.3982 137.988 15.4823 137.988 15.4823L139.956 11.0592C138.093 11.1548 137.471 12.4928 137.471 12.4928Z" fill="#AF061A"/>
<g id="Group_4">
<path id="Vector_2" d="M151.565 3.74217C150.893 3.70334 150.221 3.72425 149.468 3.72425C149.618 3.98109 149.713 4.1573 149.818 4.32455C150.887 6.05377 151.959 7.78 153.028 9.50623L154.602 11.8119L154.638 17.1309C155.394 17.1309 156.075 17.1309 156.824 17.1339C156.827 15.5899 156.806 14.1145 156.842 12.6391L156.86 11.8477L155.713 10.2618C155.579 10.0468 155.468 9.87656 155.364 9.70334C154.238 7.83674 152.864 5.61175 151.729 3.75113" fill="#AF061A"/>
<path id="Vector_3" d="M153.76 3.72125C153.76 3.72125 156.899 3.60179 157.425 0C157.425 0 157.422 3.38079 161.056 3.71827C161.056 3.71827 157.529 3.98109 157.404 7.34993C157.404 7.34993 157.52 6.00299 156.436 4.96964C156.436 4.96964 157.269 4.55749 157.541 3.50622C157.541 3.50622 156.794 4.55451 156.036 4.50672C156.036 4.50672 155.394 3.77203 153.76 3.72125Z" fill="#AF061A"/>
</g>
</g>
<g id="Group_5">
<path id="Vector_4" d="M15.5988 3.11798H13.6008V17.0891H15.5988V3.11798Z" fill="#AF061A"/>
<path id="Vector_5" d="M20.4042 4.68294H13.6008V3.11798H19.5082L20.4042 4.68294Z" fill="#AF061A"/>
<path id="Vector_6" d="M19.6038 10.3992H13.6008V8.53558H18.6362L19.6038 10.3992Z" fill="#AF061A"/>
<path id="Vector_7" d="M21.3151 17.1428H13.6008V15.3987H20.4221L21.3151 17.1428Z" fill="#AF061A"/>
</g>
<path id="Vector_8" d="M58.8173 3.11798H56.8193V17.0891H58.8173V3.11798Z" fill="#AF061A"/>
<path id="Vector_9" d="M63.6406 4.5814H56.8193V3.11798H63.0433L63.6406 4.5814Z" fill="#AF061A"/>
<path id="Vector_10" d="M87.8258 4.99354H79.3201L78.6989 3.11798H88.2858L87.8258 4.99354Z" fill="#AF061A"/>
<path id="Vector_11" d="M62.9089 10.3992H56.8193V8.53558H62.0727L62.9089 10.3992Z" fill="#AF061A"/>
<path id="Vector_12" d="M64.238 17.1428H56.8193V15.321H63.6406L64.238 17.1428Z" fill="#AF061A"/>
<path id="Vector_13" d="M93.3629 3.11798H91.3649V17.0891H93.3629V3.11798Z" fill="#AF061A"/>
<path id="Vector_14" d="M97.5889 4.5814H91.3649V3.11798H98.1862L97.5889 4.5814Z" fill="#AF061A"/>
<path id="Vector_15" d="M97.4336 10.3992H91.3649V8.53558H98.0279L97.4336 10.3992Z" fill="#AF061A"/>
<path id="Vector_16" d="M98.7835 17.1428H91.3649V15.3987H99.3808L98.7835 17.1428Z" fill="#AF061A"/>
<path id="Vector_17" d="M48.1106 3.11798H46.1125V17.0891H48.1106V3.11798Z" fill="#AF061A"/>
<path id="Vector_18" d="M84.5048 3.11798H82.5068V17.0891H84.5048V3.11798Z" fill="#AF061A"/>
<path id="Vector_19" d="M76.8711 4.99354H66.8751L65.9553 3.11798H76.1364L76.8711 4.99354Z" fill="#AF061A"/>
<path id="Vector_20" d="M72.3554 3.11798H70.3574V17.0891H72.3554V3.11798Z" fill="#AF061A"/>
<path id="Vector_21" d="M54.1255 17.1428H46.1125V15.321H52.9339L54.1255 17.1428Z" fill="#AF061A"/>
<path id="Vector_22" d="M122.658 17.0801V3.10901H127.024C130.841 3.10901 134.156 6.27178 134.156 10.1095C134.156 13.9472 130.826 17.0592 127.007 17.0592L122.658 17.0801ZM124.782 5.05027V15.2195L126.92 15.2106C129.709 15.2106 131.973 12.9348 131.973 10.1304C131.973 7.32603 129.712 5.05027 126.92 5.05027H124.782Z" fill="#AF061A"/>
<path id="Vector_23" d="M24.8721 17.0801V3.10901H29.2385C33.0553 3.10901 36.3704 6.27178 36.3704 10.1095C36.3704 13.9472 33.0404 17.0592 29.2206 17.0592L24.8721 17.0801ZM26.9956 5.05027V15.2195L29.134 15.2106C31.9234 15.2106 34.1872 12.9348 34.1872 10.1304C34.1872 7.32603 31.9264 5.05027 29.134 5.05027H26.9956Z" fill="#AF061A"/>
<g id="Group_6">
<g id="Group_7">
<path id="Vector_24" d="M165.13 8.51772C166.635 8.6999 168.054 9.48238 168.75 10.677C169.183 11.4207 169.383 12.2688 169.326 13.132C169.177 15.3898 167.289 17.1608 165.028 17.1608C164.933 17.1608 164.837 17.1578 164.742 17.1519C163.102 17.0444 161.686 16.0349 161.05 14.5177L160.901 14.1623L162.854 13.4635L162.992 13.7681C163.332 14.5207 164.058 15.0224 164.879 15.0762C164.93 15.0792 164.978 15.0822 165.028 15.0822C166.199 15.0822 167.179 14.1653 167.256 12.9946C167.286 12.5556 167.185 12.1225 166.97 11.7402C166.596 11.0862 165.901 10.7278 165.118 10.6083L164.795 10.5336L164.721 8.48785L165.13 8.51772Z" fill="#AF061A"/>
<path id="Vector_25" d="M165.405 10.6143C165.402 10.6143 165.396 10.6143 165.393 10.6143C165.297 10.6143 165.112 10.6053 165.055 10.5934C163.619 10.2887 162.845 10.014 162.137 9.10306C161.675 8.50874 161.412 7.80092 161.37 7.05727C161.316 6.06573 161.663 5.11003 162.347 4.36937C163.03 3.6287 163.968 3.18968 164.99 3.13592C165.058 3.13293 165.13 3.12994 165.199 3.12994C166.602 3.12994 167.791 3.78699 168.46 4.92785L168.535 5.05329L166.919 6.4062L166.662 5.99406C166.354 5.49829 165.793 5.19067 165.199 5.19067C165.169 5.19067 165.136 5.19067 165.106 5.19366C164.162 5.24144 163.44 6.02989 163.49 6.94677C163.508 7.27529 163.625 7.58589 163.822 7.84871C164.127 8.24891 164.616 8.48783 165.202 8.52367C165.24 8.52965 165.288 8.54458 165.345 8.5625L165.378 8.57444C165.467 8.60132 165.515 8.61625 165.545 8.62521L165.602 8.63716L165.85 8.92088L165.73 10.6531L165.405 10.6143Z" fill="#AF061A"/>
</g>
<path id="Vector_26" d="M162.848 13.4604L162.576 12.5376L160.644 13.5799L160.895 14.1593L162.848 13.4604Z" fill="#AF061A"/>
</g>
</g>
<path id="Vector_27" d="M2.30562 9.24639C2.30562 9.24639 6.24788 9.10602 5.98805 6.68989C5.98805 6.68989 6.0657 4.32155 1.99204 4.5545L2.05177 17.0921L0 17.0353V2.92085H2.64311C2.64311 2.92085 5.90443 2.66699 7.50523 5.19661C7.50523 5.19661 9.28522 8.13837 5.86561 10.229C5.86561 10.229 6.2897 10.3335 7.87257 13.0393C7.87257 13.0393 9.55401 15.8616 10.88 15.99L9.84072 17.2892C9.84072 17.2892 8.55351 17.9074 6.21503 14.1981C6.21205 14.2011 3.68243 9.94226 2.30562 9.24639Z" fill="#AF061A"/>
<path id="Vector_28" d="M104.885 9.24639C104.885 9.24639 108.827 9.10602 108.567 6.68989C108.567 6.68989 108.645 4.32155 104.571 4.5545L104.631 17.0921L102.579 17.0353V2.92085H105.223C105.223 2.92085 108.484 2.66699 110.085 5.19661C110.085 5.19661 111.865 8.13837 108.445 10.229C108.445 10.229 108.869 10.3335 110.452 13.0393C110.452 13.0393 112.133 15.8616 113.459 15.99L112.42 17.2892C112.42 17.2892 111.133 17.9074 108.794 14.1981C108.791 14.2011 106.262 9.94226 104.885 9.24639Z" fill="#AF061A"/>
</g>
</svg>
