<svg width="125" height="39" viewBox="0 0 125 39" fill="none" xmlns="http://www.w3.org/2000/svg">
<g clip-path="url(#clip0_387_146)">
<path d="M26.081 9.95515V17.7781C26.081 17.7781 25.767 24.0954 31.241 23.9519C31.241 23.9519 36.3008 23.8846 36.4504 17.8753V9.95515H39.2958V18.2611C39.2958 18.2611 39.1507 26.6537 31.1453 26.6537C31.1453 26.6537 23.4285 27.2802 23.4285 17.7796L23.4764 10.0045L26.081 9.95515Z" fill="#00857D"/>
<path d="M97.7946 3.36274C97.7946 5.20485 96.3008 6.69857 94.4587 6.69857C92.6166 6.69857 91.1229 5.20485 91.1229 3.36274C91.1229 1.52064 92.6166 0.0269165 94.4587 0.0269165C96.3008 0.0284117 97.7946 1.52213 97.7946 3.36274ZM94.4587 1.49522C93.427 1.49522 92.5912 2.33104 92.5912 3.36274C92.5912 4.39444 93.427 5.23027 94.4587 5.23027C95.4904 5.23027 96.3263 4.39444 96.3263 3.36274C96.3263 2.33104 95.4904 1.49522 94.4587 1.49522Z" fill="#ECAF00"/>
<path d="M103.113 3.36274C103.113 5.20485 101.619 6.69857 99.7772 6.69857C97.9351 6.69857 96.4414 5.20485 96.4414 3.36274C96.4414 1.52064 97.9351 0.0269165 99.7772 0.0269165C101.621 0.0284117 103.113 1.52213 103.113 3.36274ZM99.7787 1.49522C98.747 1.49522 97.9112 2.33104 97.9112 3.36274C97.9112 4.39444 98.747 5.23027 99.7787 5.23027C100.81 5.23027 101.646 4.39444 101.646 3.36274C101.646 2.33104 100.81 1.49522 99.7787 1.49522Z" fill="#ECAF00"/>
<path d="M100.323 8.95933L97.9949 4.6247L96.1977 5.59061L98.5257 9.92524C98.5257 9.92524 98.8756 8.76495 100.323 8.95933Z" fill="#ECAF00"/>
<path d="M94.0191 9.17614L95.7521 5.08224L97.6316 5.87769L95.8986 9.97159C95.8986 9.97159 95.3454 8.83074 94.0191 9.17614Z" fill="#ECAF00"/>
<path d="M95.8747 26.6358C95.8897 26.6358 95.8164 10.9674 95.8014 10.9674C97.174 12.4193 98.762 10.9465 98.762 10.9465C98.762 16.1872 98.762 21.398 98.762 26.6358C98.762 26.6358 97.3041 26.573 95.8747 26.6358Z" fill="#00857D"/>
<path d="M72.4237 23.0173L71.8466 25.0553L71.727 25.1331C70.3992 26.0437 68.7919 26.576 67.0604 26.576C62.4985 26.576 58.8008 22.8783 58.8008 18.3164C58.8008 13.7545 62.4985 10.0568 67.0604 10.0568C71.6223 10.0568 75.32 13.7545 75.32 18.3164L75.3304 26.6881C73.7919 25.5652 72.3834 26.7554 72.3834 26.7554L72.4237 23.0173ZM67.0604 12.7362C63.9788 12.7362 61.4803 15.2347 61.4803 18.3164C61.4803 21.398 63.9788 23.8965 67.0604 23.8965C70.142 23.8965 72.6406 21.398 72.6406 18.3164C72.6406 15.2347 70.142 12.7362 67.0604 12.7362Z" fill="#00857D"/>
<path d="M50.628 21.549L44.8923 10.1092C44.4438 10.4456 43.8905 10.616 43.2431 10.616C42.5628 10.616 42.0619 10.2422 41.558 10.0479L49.064 24.7862L42.7318 38.1534L45.8837 38.2207L59.3122 9.95365L56.1408 9.88637L50.933 20.8313L51.6238 23.4345L50.628 21.549Z" fill="#00857D"/>
<path d="M104.942 13.1041L104.961 6.2515H107.916V26.8242H104.961L104.972 13.7485L107.008 13.0906L104.942 13.1041Z" fill="#00857D"/>
<path d="M104.96 6.33373C104.96 3.9369 106.902 1.99461 109.299 1.99461C110.722 1.99461 111.986 2.68092 112.778 3.73953L110.462 5.58164C110.215 5.20185 109.786 4.94916 109.299 4.94916C108.535 4.94916 107.914 5.56967 107.914 6.33373" fill="#00857D"/>
<path d="M111.195 10.5233H101.518V13.1041H111.195C111.195 13.1041 110.018 11.9498 111.195 10.5233Z" fill="#00857D"/>
<path d="M120.078 6.39803H117.123V22.6286H120.078V6.39803Z" fill="#00857D"/>
<path d="M120.076 22.5478C120.076 23.3119 120.697 23.9324 121.461 23.9324C121.948 23.9324 122.376 23.6812 122.624 23.2999C122.669 25.2886 124.94 25.142 124.94 25.142C124.149 26.2007 122.886 26.887 121.461 26.887C119.064 26.887 117.122 24.9447 117.122 22.5478" fill="#00857D"/>
<path d="M124.281 13.1743H113.411V10.5936H124.281C124.281 10.5936 123.104 11.7479 124.281 13.1743Z" fill="#00857D"/>
<path d="M6.53857 12.5284C5.37829 13.3179 4.57835 13.6483 4.57835 13.6483L4.53199 1.01525C4.53199 1.01525 5.88516 2.62111 7.45215 0.859749L7.4058 11.7509C8.83822 10.5472 10.6848 9.9058 12.7019 9.9058C17.2503 9.9058 20.939 13.593 20.939 18.1429C20.939 22.6929 17.2518 26.3801 12.7019 26.3801C8.43301 26.3801 4.92225 23.1325 4.50658 18.9728C5.06579 18.4779 5.62051 17.491 5.62051 17.491M12.7033 12.7961C9.7503 12.7961 7.35646 15.1899 7.35646 18.1429C7.35646 21.096 9.7503 23.4898 12.7033 23.4898C15.6564 23.4898 18.0502 21.096 18.0502 18.1429C18.0502 15.1899 15.6564 12.7961 12.7033 12.7961Z" fill="#00857D"/>
<path d="M7.2174 16.0721C5.157 18.2656 1.38457 20.0359 1.38457 20.0359C1.81968 18.0129 0.00448608 17.4626 0.00448608 17.4626C4.21202 15.6429 6.53858 12.5284 6.53858 12.5284" fill="#00857D"/>
<path d="M88.0128 24.5873C87.2174 24.8849 86.3547 25.0478 85.4545 25.0478C81.4234 25.0478 78.1564 21.7808 78.1564 17.7497C78.1564 13.7186 81.4234 10.4516 85.4545 10.4516C86.3621 10.4516 87.2099 10.6818 88.0323 10.9196C91.0048 12.2264 94.4991 12.7497 94.4991 12.7497C92.9097 13.8397 93.8218 15.3589 93.8218 15.3589C93.8218 15.3589 91.6851 14.985 90.0583 14.3032L92.5045 15.8014C92.5045 15.8014 92.5673 16.0272 92.6375 16.4638C92.7123 16.881 92.7497 17.3101 92.7497 17.7497C92.7497 19.9566 91.7703 21.9348 90.2228 23.273C90.1988 23.294 90.1764 23.3134 90.1525 23.3328L90.1211 23.3627L88.273 23.5182L89.9177 24.0012M85.3768 13.0054C82.8005 13.0054 80.7117 15.0942 80.7117 17.6705C80.7117 20.2467 82.8005 22.3355 85.3768 22.3355C87.953 22.3355 90.0419 20.2467 90.0419 17.6705C90.0419 15.0942 87.953 13.0054 85.3768 13.0054Z" fill="#00857D"/>
<path d="M89.9193 24.0012C91.6432 25.3364 92.7512 27.4252 92.7512 29.7742C92.7512 33.8053 89.4842 37.0724 85.4531 37.0724C81.422 37.0724 78.1549 33.8053 78.1549 29.7742C78.1549 29.0879 78.2491 28.424 78.427 27.7931C79.1537 29.5858 80.8044 28.7545 80.8044 28.7545C80.7416 29.058 80.7102 29.372 80.7102 29.695C80.7102 32.2712 82.799 34.36 85.3753 34.36C87.9516 34.36 90.0404 32.2712 90.0404 29.695C90.0404 27.1187 87.9486 25.0449 85.3723 25.0449" fill="#00857D"/>
</g>
<defs>
<clipPath id="clip0_387_146">
<rect width="125" height="38.2775" fill="white"/>
</clipPath>
</defs>
</svg>
