<svg xmlns="http://www.w3.org/2000/svg" viewBox="0 0 171.69 47.63">
  <g id="ea5245b4-1ad1-4132-9400-484db73386ab" data-name="Layer 2">
    <g id="a740b702-ee7d-4649-909e-bb398b1caaf1" data-name="Layer 1">
      <path d="M51,7.82A13.91,13.91,0,1,0,64.85,21.73,13.91,13.91,0,0,0,51,7.82m0,22.39a8.49,8.49,0,1,1,8.46-8.48A8.48,8.48,0,0,1,51,30.21M171.69,16.78V8.42h-5.41v15.4a6.36,6.36,0,1,1-12.72,0V8.42h-5.4v15.4a11.79,11.79,0,0,0,11.76,11.8,11.64,11.64,0,0,0,6.36-1.88v2.88a5.59,5.59,0,0,1-5.58,5.59v5.42a11,11,0,0,0,11-11ZM24.24,14.84v5.42h4v9.41H16.58a10.56,10.56,0,0,1-7.43-3L9,26.57A12.37,12.37,0,0,1,25.76,8.37l3.5-4.13a17.78,17.78,0,0,0-24,26.16l.15.15a15.91,15.91,0,0,0,11.21,4.54h17.1V14.84Zm97.72-1h8.28V35.09h5.41V13.83h8.24V8.41H122ZM92.84,30.21a12.4,12.4,0,1,1,10.45-19l4.57-2.9a17.8,17.8,0,1,0-6.09,24.92,17.89,17.89,0,0,0,6.36-6.34l-4.65-2.76a12.42,12.42,0,0,1-10.64,6.09M117.75,8.42h-5.41V35.09h5.41Z" style="fill: #28939c"/>
      <path d="M12.63,17.55a4.18,4.18,0,1,0,4.18-4.18,4.19,4.19,0,0,0-4.18,4.18" style="fill: #e81e32"/>
    </g>
  </g>
</svg>
