<?xml version="1.0" encoding="utf-8"?>
<!-- Generator: Adobe Illustrator 19.0.0, SVG Export Plug-In . SVG Version: 6.00 Build 0)  -->
<svg version="1.1" id="Layer_1" xmlns="http://www.w3.org/2000/svg" xmlns:xlink="http://www.w3.org/1999/xlink" x="0px" y="0px"
	 viewBox="0 0 60.5 44.4" style="enable-background:new 0 0 60.5 44.4;" xml:space="preserve">
<style type="text/css">
	.st0{fill:#F36C23;}
</style>
<g>
	<path class="st0" d="M58.2,0H14.3c0.3,0.4,0.5,1,0.5,1.6c0,1.5-1.3,2.8-2.8,2.8S9.2,3.1,9.2,1.6C9.2,1,9.4,0.4,9.7,0H2.3
		C1,0,0,1,0,2.3v39.8c0,1.3,1,2.3,2.3,2.3h7.4c-0.3-0.4-0.5-1-0.5-1.6c0-1.5,1.3-2.8,2.8-2.8s2.8,1.2,2.8,2.8c0,0.6-0.2,1.1-0.5,1.6
		h43.9c1.3,0,2.3-1,2.3-2.3V2.3C60.5,1,59.5,0,58.2,0z M12,37.4c-1.5,0-2.8-1.3-2.8-2.8s1.3-2.8,2.8-2.8s2.8,1.3,2.8,2.8
		C14.8,36.1,13.6,37.4,12,37.4z M12,29.1c-1.5,0-2.8-1.3-2.8-2.8s1.3-2.8,2.8-2.8s2.8,1.3,2.8,2.8C14.8,27.9,13.6,29.1,12,29.1z
		 M12,20.9c-1.5,0-2.8-1.3-2.8-2.8s1.3-2.8,2.8-2.8s2.8,1.3,2.8,2.8S13.6,20.9,12,20.9z M12,12.6c-1.5,0-2.8-1.3-2.8-2.8
		S10.5,7,12,7s2.8,1.3,2.8,2.8C14.8,11.4,13.6,12.6,12,12.6z M49.8,15.5H42v19.7h-7.2V15.5H27V9.2h22.8V15.5z"/>
</g>
</svg>
