<svg id="Layer_1" data-name="Layer 1" xmlns="http://www.w3.org/2000/svg" xmlns:xlink="http://www.w3.org/1999/xlink" viewBox="0 0 150 70"><defs><style>.cls-1{fill:none;}.cls-2{clip-path:url(#clip-path);}.cls-3{fill:url(#linear-gradient);}.cls-4{fill:url(#linear-gradient-2);}.cls-5{fill:url(#linear-gradient-3);}.cls-6{fill:url(#linear-gradient-4);}.cls-7{fill:url(#linear-gradient-5);}.cls-8{clip-path:url(#clip-path-2);}.cls-9{fill:url(#linear-gradient-6);}.cls-10{fill:url(#linear-gradient-7);}.cls-11{fill:url(#linear-gradient-8);}.cls-12{clip-path:url(#clip-path-3);}.cls-13{fill:url(#linear-gradient-9);}.cls-14{clip-path:url(#clip-path-4);}.cls-15{fill:url(#linear-gradient-10);}.cls-16{fill:url(#linear-gradient-11);}.cls-17{fill:url(#linear-gradient-12);}.cls-18{fill:url(#linear-gradient-13);}.cls-19{fill:url(#linear-gradient-14);}.cls-20{clip-path:url(#clip-path-5);}.cls-21{fill:url(#linear-gradient-15);}.cls-22{fill:url(#linear-gradient-16);}.cls-23{fill:url(#linear-gradient-17);}.cls-24{clip-path:url(#clip-path-6);}.cls-25{fill:url(#linear-gradient-18);}.cls-26{clip-path:url(#clip-path-7);}.cls-27{fill:url(#linear-gradient-19);}.cls-28{fill:url(#linear-gradient-20);}.cls-29{clip-path:url(#clip-path-8);}.cls-30{fill:url(#linear-gradient-21);}.cls-31{fill:url(#linear-gradient-22);}.cls-32{clip-path:url(#clip-path-9);}.cls-33{fill:url(#linear-gradient-23);}.cls-34{clip-path:url(#clip-path-10);}.cls-35{fill:url(#linear-gradient-24);}.cls-36{clip-path:url(#clip-path-11);}.cls-37{fill:url(#linear-gradient-25);}.cls-38{clip-path:url(#clip-path-12);}</style><clipPath id="clip-path"><path class="cls-1" d="M1.62,2.4H0V.22H5.54V2.4H3.92v11H1.62ZM6.5.22H8.79V5.68h2V.22h2.29V13.4H10.79V7.86h-2V13.4H6.5Zm7.94,0h5V2.4H16.74V5.68h2.43V7.86H16.74v3.35h2.8V13.4h-5.1ZM5.59,46a11,11,0,0,1-2.76-.33,12.19,12.19,0,0,1-2.34-.86V39.56A15.62,15.62,0,0,0,2.9,40.78,5.83,5.83,0,0,0,5,41.2a3.14,3.14,0,0,0,1.87-.57,2.17,2.17,0,0,0,.8-1.9v-.08a4.5,4.5,0,0,0-.1-1,4.15,4.15,0,0,0-.41-1,13.69,13.69,0,0,0-.84-1.27c-.36-.48-.84-1.07-1.44-1.75-.85-1-1.58-1.82-2.18-2.58a17.1,17.1,0,0,1-1.5-2.18,8.46,8.46,0,0,1-.86-2.1,9.51,9.51,0,0,1-.27-2.36v-.09A8.8,8.8,0,0,1,.61,21.2a7,7,0,0,1,1.46-2.37,6.32,6.32,0,0,1,2.22-1.5,7.17,7.17,0,0,1,2.78-.54,11.43,11.43,0,0,1,2.5.23,9.49,9.49,0,0,1,1.94.67v5.22a13.35,13.35,0,0,0-2-1,4.82,4.82,0,0,0-1.81-.32,2.74,2.74,0,0,0-1.83.64A2.26,2.26,0,0,0,5.09,24v.08A3.72,3.72,0,0,0,5.2,25a2.65,2.65,0,0,0,.41.88A11.52,11.52,0,0,0,6.45,27c.36.44.84,1,1.44,1.69,1,1.15,1.79,2.15,2.42,3A13.76,13.76,0,0,1,11.77,34a9.37,9.37,0,0,1,.72,2.08,11,11,0,0,1,.21,2.24v.09a8.28,8.28,0,0,1-.56,3.08,7,7,0,0,1-1.52,2.39,6.58,6.58,0,0,1-2.26,1.52A7.12,7.12,0,0,1,5.59,46Zm9-29h5V45.76h-5ZM31.27,46a8.13,8.13,0,0,1-3.55-.8,8,8,0,0,1-2.92-2.49,12.71,12.71,0,0,1-2-4.35,25.2,25.2,0,0,1-.72-6.46v-1a23.88,23.88,0,0,1,.7-6.13,13.08,13.08,0,0,1,2-4.39,8.59,8.59,0,0,1,3-2.68,8.48,8.48,0,0,1,3.9-.9,9.07,9.07,0,0,1,2.1.23,9.24,9.24,0,0,1,1.73.59v5.22a11.15,11.15,0,0,0-1.81-.93,4.94,4.94,0,0,0-1.85-.34,3.81,3.81,0,0,0-3.43,2.2Q27.2,26,27.2,30.66v1.4a24.14,24.14,0,0,0,.37,4.63,9.16,9.16,0,0,0,1,2.82,3.56,3.56,0,0,0,1.38,1.42,3.22,3.22,0,0,0,1.54.4h.18l.27,0V33.93H29.46V29.45h7V44.74a20.38,20.38,0,0,1-2.57.9A10.07,10.07,0,0,1,31.27,46Zm8-29h5V28.91h4.36V17h5V45.76h-5V33.68H44.26V45.76h-5Zm20,4.76H55.73V17H67.81v4.76H64.27v24h-5ZM74.38,46a11,11,0,0,1-2.75-.33,12.19,12.19,0,0,1-2.34-.86V39.56a15.12,15.12,0,0,0,2.4,1.22,5.88,5.88,0,0,0,2.12.42,3.16,3.16,0,0,0,1.87-.57,2.2,2.2,0,0,0,.8-1.9v-.08a5.23,5.23,0,0,0-.1-1,4.15,4.15,0,0,0-.41-1,12.19,12.19,0,0,0-.85-1.27c-.35-.48-.83-1.07-1.44-1.75-.85-1-1.57-1.82-2.17-2.58A15.26,15.26,0,0,1,70,28.87a8.51,8.51,0,0,1-.87-2.1,9.53,9.53,0,0,1-.26-2.36v-.09a8.58,8.58,0,0,1,.53-3.12,6.88,6.88,0,0,1,1.46-2.37,6.32,6.32,0,0,1,2.22-1.5,7.12,7.12,0,0,1,2.77-.54,11.53,11.53,0,0,1,2.51.23,9.21,9.21,0,0,1,1.93.67v5.22a12.86,12.86,0,0,0-2-1,4.82,4.82,0,0,0-1.81-.32,2.74,2.74,0,0,0-1.83.64A2.23,2.23,0,0,0,73.89,24v.08A3.73,3.73,0,0,0,74,25a3.12,3.12,0,0,0,.41.88A13.83,13.83,0,0,0,75.25,27c.35.44.83,1,1.43,1.69,1,1.15,1.8,2.15,2.43,3A13.76,13.76,0,0,1,80.57,34a9.37,9.37,0,0,1,.72,2.08,11.81,11.81,0,0,1,.2,2.24v.09a8.27,8.27,0,0,1-.55,3.08,7.14,7.14,0,0,1-1.52,2.39,6.67,6.67,0,0,1-2.26,1.52A7.17,7.17,0,0,1,74.38,46Zm8.88-29h11v4.76h-6v7.15h5.31v4.77H88.27V41H94.4v4.76H83.26Zm13.56,0h11v4.76h-6v7.15h5.3v4.77h-5.3V41H108v4.76H96.82Zm13.65,0h5V45.76h-5Zm8,0h4.68l5.06,14.54V17h4.85V45.76h-4.44l-5.3-15.24V45.76h-4.85Zm26.26,29a8.13,8.13,0,0,1-3.55-.8,7.89,7.89,0,0,1-2.92-2.49,12.53,12.53,0,0,1-2-4.35,25.2,25.2,0,0,1-.72-6.46v-1a24.36,24.36,0,0,1,.69-6.13,13.28,13.28,0,0,1,2-4.39,8.59,8.59,0,0,1,3-2.68,8.48,8.48,0,0,1,3.9-.9,9.07,9.07,0,0,1,2.1.23,9.5,9.5,0,0,1,1.73.59v5.22a11.57,11.57,0,0,0-1.81-.93,5,5,0,0,0-1.85-.34,3.8,3.8,0,0,0-3.43,2.2q-1.26,2.2-1.26,6.9v1.4a24.14,24.14,0,0,0,.37,4.63,9.16,9.16,0,0,0,1,2.82,3.56,3.56,0,0,0,1.38,1.42,3.22,3.22,0,0,0,1.54.4h.18l.27,0V33.93H143V29.45h7V44.74a20.38,20.38,0,0,1-2.57.9A10.07,10.07,0,0,1,144.78,46Zm-34.29,3.34h3.18a8.4,8.4,0,0,1,2.67.4A5.74,5.74,0,0,1,118.42,51a5.55,5.55,0,0,1,1.36,2.14,9,9,0,0,1,.48,3.09v.06a9.5,9.5,0,0,1-.45,3,5.93,5.93,0,0,1-1.28,2.21,5.28,5.28,0,0,1-2,1.34,6.51,6.51,0,0,1-2.48.46h0v6.41h-3.56Zm3.6,10.7a2.36,2.36,0,0,0,1.86-.9,4.14,4.14,0,0,0,.76-2.75V56.3a4.69,4.69,0,0,0-.69-2.83,2.24,2.24,0,0,0-1.85-.87h-.12V60Zm9.46-10.77h3.79l3.89,20.45h-3.55l-.68-4h-3.23l-.64,4h-3.44Zm2.93,13.2-1.09-6.73-1.1,6.73Zm9,7.4a7.55,7.55,0,0,1-2-.24,7.4,7.4,0,0,1-1.66-.61v-3.7a10.64,10.64,0,0,0,1.71.87,3.88,3.88,0,0,0,1.5.29A2.14,2.14,0,0,0,136.4,66,1.53,1.53,0,0,0,137,64.7v-.06a3.08,3.08,0,0,0-.07-.68,2.84,2.84,0,0,0-.29-.73,8.76,8.76,0,0,0-.6-.91c-.26-.34-.6-.75-1-1.24-.61-.68-1.12-1.29-1.55-1.82a12.78,12.78,0,0,1-1.07-1.55,6.18,6.18,0,0,1-.61-1.48,6.69,6.69,0,0,1-.19-1.68v-.06a6,6,0,0,1,.38-2.22,4.9,4.9,0,0,1,1-1.68,4.66,4.66,0,0,1,1.57-1.07,5.16,5.16,0,0,1,2-.38,8,8,0,0,1,1.78.16,7.21,7.21,0,0,1,1.37.48v3.7a9.25,9.25,0,0,0-1.43-.73,3.51,3.51,0,0,0-1.28-.23,2,2,0,0,0-1.3.45,1.62,1.62,0,0,0-.54,1.3v.06a2.63,2.63,0,0,0,.08.65,2,2,0,0,0,.29.62c.15.23.35.49.6.81s.59.7,1,1.19c.7.82,1.27,1.52,1.72,2.12a10.39,10.39,0,0,1,1,1.64,6.68,6.68,0,0,1,.51,1.48,7.81,7.81,0,0,1,.15,1.59v.06a5.93,5.93,0,0,1-.39,2.19,5.32,5.32,0,0,1-1.08,1.69,4.71,4.71,0,0,1-1.6,1.08A5.17,5.17,0,0,1,135.49,69.84Zm9.47,0a8.14,8.14,0,0,1-3.61-.85v-3.7a11.07,11.07,0,0,0,1.71.87,4.13,4.13,0,0,0,1.5.3,2.3,2.3,0,0,0,1.33-.41,1.56,1.56,0,0,0,.56-1.35v-.06a3.08,3.08,0,0,0-.07-.68,2.84,2.84,0,0,0-.29-.73,10,10,0,0,0-.6-.91c-.25-.34-.59-.75-1-1.24-.6-.68-1.12-1.28-1.55-1.82a11,11,0,0,1-1.06-1.55,5.84,5.84,0,0,1-.62-1.48,7.19,7.19,0,0,1-.19-1.68v-.06a6.23,6.23,0,0,1,.38-2.22,4.9,4.9,0,0,1,1-1.68A4.66,4.66,0,0,1,144,49.51a5.2,5.2,0,0,1,2-.38,8,8,0,0,1,1.78.16,7,7,0,0,1,1.37.48v3.7a9.25,9.25,0,0,0-1.43-.73,3.47,3.47,0,0,0-1.28-.23,1.93,1.93,0,0,0-1.3.46,1.61,1.61,0,0,0-.53,1.29v.06a2.64,2.64,0,0,0,.07.65,2.27,2.27,0,0,0,.29.62c.15.23.35.49.6.81s.59.71,1,1.19c.7.82,1.28,1.52,1.72,2.12a9.37,9.37,0,0,1,1,1.65,6.44,6.44,0,0,1,.51,1.47,7.81,7.81,0,0,1,.15,1.59v.06a5.93,5.93,0,0,1-.39,2.19,5,5,0,0,1-1.08,1.69,4.62,4.62,0,0,1-1.6,1.08A5,5,0,0,1,145,69.83Z"/></clipPath><linearGradient id="linear-gradient" x1="573.28" y1="-2063.04" x2="797.46" y2="-2251.14" gradientTransform="translate(-520.4 2194.25)" gradientUnits="userSpaceOnUse"><stop offset="0" stop-color="#e20917" stop-opacity="0.4"/><stop offset="1" stop-color="#e20917"/></linearGradient><linearGradient id="linear-gradient-2" x1="1352.32" y1="-819.66" x2="1563.62" y2="-996.96" gradientTransform="translate(1101.25 1447.46) rotate(-90)" gradientUnits="userSpaceOnUse"><stop offset="0" stop-color="#e4066c" stop-opacity="0.4"/><stop offset="0.99" stop-color="#e4006c"/></linearGradient><linearGradient id="linear-gradient-3" x1="2510.33" y1="1399.42" x2="2711.98" y2="1230.22" gradientTransform="matrix(-0.7, 0, 0, -0.81, 2039.02, 1099.38)" gradientUnits="userSpaceOnUse"><stop offset="0" stop-color="#57255f" stop-opacity="0.4"/><stop offset="0.97" stop-color="#56265f"/></linearGradient><linearGradient id="linear-gradient-4" x1="-110.79" y1="-14.44" x2="66.51" y2="196.86" gradientUnits="userSpaceOnUse"><stop offset="0" stop-color="#e20917" stop-opacity="0.4"/><stop offset="0.99" stop-color="#e20917"/></linearGradient><linearGradient id="linear-gradient-5" x1="276.91" y1="-633.38" x2="478.56" y2="-802.58" gradientTransform="translate(114.71 686.9) rotate(-35.62)" xlink:href="#linear-gradient-3"/><clipPath id="clip-path-2"><path class="cls-1" d="M171.62,2.4H170V.22h5.54V2.4h-1.62v11h-2.3ZM176.5.22h2.29V5.68h2V.22h2.29V13.4h-2.29V7.86h-2V13.4H176.5Zm7.94,0h5.05V2.4h-2.75V5.68h2.43V7.86h-2.43v3.35h2.8V13.4h-5.1ZM175.59,46a11,11,0,0,1-2.76-.33,12.19,12.19,0,0,1-2.34-.86V39.56a15.62,15.62,0,0,0,2.41,1.22,5.83,5.83,0,0,0,2.11.42,3.14,3.14,0,0,0,1.87-.57,2.17,2.17,0,0,0,.8-1.9v-.08a4.5,4.5,0,0,0-.1-1,4.15,4.15,0,0,0-.41-1,13.69,13.69,0,0,0-.84-1.27c-.36-.48-.84-1.07-1.44-1.75-.85-1-1.58-1.82-2.18-2.58a17.1,17.1,0,0,1-1.5-2.18,8.46,8.46,0,0,1-.86-2.1,9.51,9.51,0,0,1-.27-2.36v-.09a8.8,8.8,0,0,1,.53-3.12,7,7,0,0,1,1.46-2.37,6.32,6.32,0,0,1,2.22-1.5,7.17,7.17,0,0,1,2.78-.54,11.43,11.43,0,0,1,2.5.23,9.49,9.49,0,0,1,1.94.67v5.22a13.35,13.35,0,0,0-2-1,4.82,4.82,0,0,0-1.81-.32,2.74,2.74,0,0,0-1.83.64,2.26,2.26,0,0,0-.76,1.83v.08a3.72,3.72,0,0,0,.11.91,2.65,2.65,0,0,0,.41.88,11.52,11.52,0,0,0,.84,1.13c.36.44.84,1,1.44,1.69,1,1.15,1.79,2.15,2.42,3A13.76,13.76,0,0,1,181.77,34a9.37,9.37,0,0,1,.72,2.08,11,11,0,0,1,.21,2.24v.09a8.28,8.28,0,0,1-.56,3.08,7,7,0,0,1-1.52,2.39,6.58,6.58,0,0,1-2.26,1.52A7.12,7.12,0,0,1,175.59,46Zm9-29h5V45.76h-5Zm16.72,29a8.13,8.13,0,0,1-3.55-.8,8,8,0,0,1-2.92-2.49,12.71,12.71,0,0,1-2-4.35,25.2,25.2,0,0,1-.72-6.46v-1a23.88,23.88,0,0,1,.7-6.13,13.08,13.08,0,0,1,2-4.39,8.59,8.59,0,0,1,3-2.68,8.48,8.48,0,0,1,3.9-.9,9.07,9.07,0,0,1,2.1.23,9.24,9.24,0,0,1,1.73.59v5.22a11.15,11.15,0,0,0-1.81-.93,4.94,4.94,0,0,0-1.85-.34,3.81,3.81,0,0,0-3.43,2.2q-1.26,2.2-1.26,6.9v1.4a24.14,24.14,0,0,0,.37,4.63,9.16,9.16,0,0,0,1,2.82,3.56,3.56,0,0,0,1.38,1.42,3.22,3.22,0,0,0,1.54.4h.18l.27,0V33.93h-2.47V29.45h7V44.74a20.38,20.38,0,0,1-2.57.9A10.07,10.07,0,0,1,201.27,46Zm8-29h5V28.91h4.36V17h5V45.76h-5V33.68h-4.36V45.76h-5Zm20,4.76h-3.53V17h12.08v4.76h-3.54v24h-5ZM244.38,46a11,11,0,0,1-2.75-.33,12.19,12.19,0,0,1-2.34-.86V39.56a15.12,15.12,0,0,0,2.4,1.22,5.88,5.88,0,0,0,2.12.42,3.16,3.16,0,0,0,1.87-.57,2.2,2.2,0,0,0,.8-1.9v-.08a5.23,5.23,0,0,0-.1-1,4.15,4.15,0,0,0-.41-1,12.19,12.19,0,0,0-.85-1.27c-.35-.48-.83-1.07-1.44-1.75-.85-1-1.57-1.82-2.17-2.58a15.26,15.26,0,0,1-1.5-2.18,8.51,8.51,0,0,1-.87-2.1,9.53,9.53,0,0,1-.26-2.36v-.09a8.58,8.58,0,0,1,.53-3.12,6.88,6.88,0,0,1,1.46-2.37,6.32,6.32,0,0,1,2.22-1.5,7.12,7.12,0,0,1,2.77-.54,11.53,11.53,0,0,1,2.51.23,9.21,9.21,0,0,1,1.93.67v5.22a12.86,12.86,0,0,0-2-1,4.82,4.82,0,0,0-1.81-.32,2.74,2.74,0,0,0-1.83.64,2.23,2.23,0,0,0-.76,1.83v.08a3.73,3.73,0,0,0,.1.91,3.12,3.12,0,0,0,.41.88,13.83,13.83,0,0,0,.85,1.13c.35.44.83,1,1.43,1.69,1,1.15,1.8,2.15,2.43,3A13.76,13.76,0,0,1,250.57,34a9.37,9.37,0,0,1,.72,2.08,11.81,11.81,0,0,1,.2,2.24v.09a8.27,8.27,0,0,1-.55,3.08,7.14,7.14,0,0,1-1.52,2.39,6.67,6.67,0,0,1-2.26,1.52A7.17,7.17,0,0,1,244.38,46Zm8.88-29h11v4.76h-6v7.15h5.31v4.77h-5.31V41h6.13v4.76H253.26Zm13.56,0h11v4.76h-6v7.15h5.3v4.77h-5.3V41H278v4.76H266.82Zm13.65,0h5V45.76h-5Zm8,0h4.68l5.06,14.54V17h4.85V45.76h-4.44l-5.3-15.24V45.76h-4.85Zm26.26,29a8.13,8.13,0,0,1-3.55-.8,7.89,7.89,0,0,1-2.92-2.49,12.53,12.53,0,0,1-2-4.35,25.2,25.2,0,0,1-.72-6.46v-1a24.36,24.36,0,0,1,.69-6.13,13.28,13.28,0,0,1,2-4.39,8.59,8.59,0,0,1,3-2.68,8.48,8.48,0,0,1,3.9-.9,9.07,9.07,0,0,1,2.1.23,9.5,9.5,0,0,1,1.73.59v5.22a11.57,11.57,0,0,0-1.81-.93,5,5,0,0,0-1.85-.34,3.8,3.8,0,0,0-3.43,2.2q-1.26,2.2-1.26,6.9v1.4a24.14,24.14,0,0,0,.37,4.63,9.16,9.16,0,0,0,1,2.82,3.56,3.56,0,0,0,1.38,1.42,3.22,3.22,0,0,0,1.54.4h.18l.27,0V33.93H313V29.45h7V44.74a20.38,20.38,0,0,1-2.57.9A10.07,10.07,0,0,1,314.78,46Zm-34.29,3.34h3.18a8.4,8.4,0,0,1,2.67.4A5.74,5.74,0,0,1,288.42,51a5.55,5.55,0,0,1,1.36,2.14,9,9,0,0,1,.48,3.09v.06a9.5,9.5,0,0,1-.45,3,5.93,5.93,0,0,1-1.28,2.21,5.28,5.28,0,0,1-2,1.34,6.51,6.51,0,0,1-2.48.46h0v6.41h-3.56Zm3.6,10.7a2.36,2.36,0,0,0,1.86-.9,4.14,4.14,0,0,0,.76-2.75V56.3a4.69,4.69,0,0,0-.69-2.83,2.24,2.24,0,0,0-1.85-.87h-.12V60Zm9.46-10.77h3.79l3.89,20.45h-3.55l-.68-4h-3.23l-.64,4h-3.44Zm2.93,13.2-1.09-6.73-1.1,6.73Zm9,7.4a7.55,7.55,0,0,1-1.95-.24,7.4,7.4,0,0,1-1.66-.61v-3.7a10.64,10.64,0,0,0,1.71.87,3.88,3.88,0,0,0,1.5.29A2.14,2.14,0,0,0,306.4,66,1.53,1.53,0,0,0,307,64.7v-.06a3.08,3.08,0,0,0-.07-.68,2.84,2.84,0,0,0-.29-.73,8.76,8.76,0,0,0-.6-.91c-.26-.34-.6-.75-1-1.24-.61-.68-1.12-1.29-1.55-1.82a12.78,12.78,0,0,1-1.07-1.55,6.18,6.18,0,0,1-.61-1.48,6.69,6.69,0,0,1-.19-1.68v-.06a6,6,0,0,1,.38-2.22,4.9,4.9,0,0,1,1-1.68,4.66,4.66,0,0,1,1.57-1.07,5.16,5.16,0,0,1,2-.38,8,8,0,0,1,1.78.16,7.21,7.21,0,0,1,1.37.48v3.7a9.25,9.25,0,0,0-1.43-.73,3.51,3.51,0,0,0-1.28-.23,2,2,0,0,0-1.3.45,1.62,1.62,0,0,0-.54,1.3v.06a2.63,2.63,0,0,0,.08.65,2,2,0,0,0,.29.62c.15.23.35.49.6.81s.59.7,1,1.19c.7.82,1.27,1.52,1.72,2.12a10.39,10.39,0,0,1,1,1.64,6.68,6.68,0,0,1,.51,1.48,7.81,7.81,0,0,1,.15,1.59v.06a5.93,5.93,0,0,1-.39,2.19,5.32,5.32,0,0,1-1.08,1.69,4.71,4.71,0,0,1-1.6,1.08A5.17,5.17,0,0,1,305.49,69.84Zm9.47,0a8.14,8.14,0,0,1-3.61-.85v-3.7a11.07,11.07,0,0,0,1.71.87,4.13,4.13,0,0,0,1.5.3,2.3,2.3,0,0,0,1.33-.41,1.56,1.56,0,0,0,.56-1.35v-.06a3.08,3.08,0,0,0-.07-.68,2.84,2.84,0,0,0-.29-.73,10,10,0,0,0-.6-.91c-.25-.34-.59-.75-1-1.24-.6-.68-1.12-1.28-1.55-1.82a11,11,0,0,1-1.06-1.55,5.84,5.84,0,0,1-.62-1.48,7.19,7.19,0,0,1-.19-1.68v-.06a6.23,6.23,0,0,1,.38-2.22,4.9,4.9,0,0,1,1-1.68A4.66,4.66,0,0,1,314,49.51a5.2,5.2,0,0,1,2-.38,8,8,0,0,1,1.78.16,7,7,0,0,1,1.37.48v3.7a9.25,9.25,0,0,0-1.43-.73,3.47,3.47,0,0,0-1.28-.23,1.93,1.93,0,0,0-1.3.46,1.61,1.61,0,0,0-.53,1.29v.06a2.64,2.64,0,0,0,.07.65,2.27,2.27,0,0,0,.29.62c.15.23.35.49.6.81s.59.71,1,1.19c.7.82,1.28,1.52,1.72,2.12a9.37,9.37,0,0,1,1,1.65,6.44,6.44,0,0,1,.51,1.47,7.81,7.81,0,0,1,.15,1.59v.06a5.93,5.93,0,0,1-.39,2.19,5,5,0,0,1-1.08,1.69,4.62,4.62,0,0,1-1.6,1.08A5,5,0,0,1,315,69.83Z"/></clipPath><linearGradient id="linear-gradient-6" x1="1502.56" y1="-937.93" x2="1726.66" y2="-1125.97" gradientTransform="translate(1082.21 1598.47) rotate(-90)" xlink:href="#linear-gradient"/><linearGradient id="linear-gradient-7" x1="59.21" y1="-14.44" x2="236.51" y2="196.86" xlink:href="#linear-gradient-4"/><linearGradient id="linear-gradient-8" x1="415.09" y1="-534.36" x2="616.75" y2="-703.57" gradientTransform="translate(114.71 686.9) rotate(-35.62)" xlink:href="#linear-gradient-3"/><clipPath id="clip-path-3"><path class="cls-1" d="M341.62,2.4H340V.22h5.54V2.4h-1.62v11h-2.3ZM346.5.22h2.29V5.68h2V.22h2.29V13.4h-2.29V7.86h-2V13.4H346.5Zm7.94,0h5.05V2.4h-2.75V5.68h2.43V7.86h-2.43v3.35h2.8V13.4h-5.1ZM345.59,46a11,11,0,0,1-2.76-.33,12.19,12.19,0,0,1-2.34-.86V39.56a15.62,15.62,0,0,0,2.41,1.22,5.83,5.83,0,0,0,2.11.42,3.14,3.14,0,0,0,1.87-.57,2.17,2.17,0,0,0,.8-1.9v-.08a4.5,4.5,0,0,0-.1-1,4.15,4.15,0,0,0-.41-1,13.69,13.69,0,0,0-.84-1.27c-.36-.48-.84-1.07-1.44-1.75-.85-1-1.58-1.82-2.18-2.58a17.1,17.1,0,0,1-1.5-2.18,8.46,8.46,0,0,1-.86-2.1,9.51,9.51,0,0,1-.27-2.36v-.09a8.8,8.8,0,0,1,.53-3.12,7,7,0,0,1,1.46-2.37,6.32,6.32,0,0,1,2.22-1.5,7.17,7.17,0,0,1,2.78-.54,11.43,11.43,0,0,1,2.5.23,9.49,9.49,0,0,1,1.94.67v5.22a13.35,13.35,0,0,0-2-1,4.82,4.82,0,0,0-1.81-.32,2.74,2.74,0,0,0-1.83.64,2.26,2.26,0,0,0-.76,1.83v.08a3.72,3.72,0,0,0,.11.91,2.65,2.65,0,0,0,.41.88,11.52,11.52,0,0,0,.84,1.13c.36.44.84,1,1.44,1.69,1,1.15,1.79,2.15,2.42,3A13.76,13.76,0,0,1,351.77,34a9.37,9.37,0,0,1,.72,2.08,11,11,0,0,1,.21,2.24v.09a8.28,8.28,0,0,1-.56,3.08,7,7,0,0,1-1.52,2.39,6.58,6.58,0,0,1-2.26,1.52A7.12,7.12,0,0,1,345.59,46Zm9-29h5V45.76h-5Zm16.72,29a8.13,8.13,0,0,1-3.55-.8,8,8,0,0,1-2.92-2.49,12.71,12.71,0,0,1-2-4.35,25.2,25.2,0,0,1-.72-6.46v-1a23.88,23.88,0,0,1,.7-6.13,13.08,13.08,0,0,1,2-4.39,8.59,8.59,0,0,1,3-2.68,8.48,8.48,0,0,1,3.9-.9,9.07,9.07,0,0,1,2.1.23,9.24,9.24,0,0,1,1.73.59v5.22a11.15,11.15,0,0,0-1.81-.93,4.94,4.94,0,0,0-1.85-.34,3.81,3.81,0,0,0-3.43,2.2q-1.26,2.2-1.26,6.9v1.4a24.14,24.14,0,0,0,.37,4.63,9.16,9.16,0,0,0,1,2.82,3.56,3.56,0,0,0,1.38,1.42,3.22,3.22,0,0,0,1.54.4h.18l.27,0V33.93h-2.47V29.45h7V44.74a20.38,20.38,0,0,1-2.57.9A10.07,10.07,0,0,1,371.27,46Zm8-29h5V28.91h4.36V17h5V45.76h-5V33.68h-4.36V45.76h-5Zm20,4.76h-3.53V17h12.08v4.76h-3.54v24h-5ZM414.38,46a11,11,0,0,1-2.75-.33,12.19,12.19,0,0,1-2.34-.86V39.56a15.12,15.12,0,0,0,2.4,1.22,5.88,5.88,0,0,0,2.12.42,3.16,3.16,0,0,0,1.87-.57,2.2,2.2,0,0,0,.8-1.9v-.08a5.23,5.23,0,0,0-.1-1,4.15,4.15,0,0,0-.41-1,12.19,12.19,0,0,0-.85-1.27c-.35-.48-.83-1.07-1.44-1.75-.85-1-1.57-1.82-2.17-2.58a15.26,15.26,0,0,1-1.5-2.18,8.51,8.51,0,0,1-.87-2.1,9.53,9.53,0,0,1-.26-2.36v-.09a8.58,8.58,0,0,1,.53-3.12,6.88,6.88,0,0,1,1.46-2.37,6.32,6.32,0,0,1,2.22-1.5,7.12,7.12,0,0,1,2.77-.54,11.53,11.53,0,0,1,2.51.23,9.21,9.21,0,0,1,1.93.67v5.22a12.86,12.86,0,0,0-2-1,4.82,4.82,0,0,0-1.81-.32,2.74,2.74,0,0,0-1.83.64,2.23,2.23,0,0,0-.76,1.83v.08a3.73,3.73,0,0,0,.1.91,3.12,3.12,0,0,0,.41.88,13.83,13.83,0,0,0,.85,1.13c.35.44.83,1,1.43,1.69,1,1.15,1.8,2.15,2.43,3A13.76,13.76,0,0,1,420.57,34a9.37,9.37,0,0,1,.72,2.08,11.81,11.81,0,0,1,.2,2.24v.09a8.27,8.27,0,0,1-.55,3.08,7.14,7.14,0,0,1-1.52,2.39,6.67,6.67,0,0,1-2.26,1.52A7.17,7.17,0,0,1,414.38,46Zm8.88-29h11v4.76h-6v7.15h5.31v4.77h-5.31V41h6.13v4.76H423.26Zm13.56,0h11v4.76h-6v7.15h5.3v4.77h-5.3V41H448v4.76H436.82Zm13.65,0h5V45.76h-5Zm8,0h4.68l5.06,14.54V17h4.85V45.76h-4.44l-5.3-15.24V45.76h-4.85Zm26.26,29a8.13,8.13,0,0,1-3.55-.8,7.89,7.89,0,0,1-2.92-2.49,12.53,12.53,0,0,1-2-4.35,25.2,25.2,0,0,1-.72-6.46v-1a24.36,24.36,0,0,1,.69-6.13,13.28,13.28,0,0,1,2-4.39,8.59,8.59,0,0,1,3-2.68,8.48,8.48,0,0,1,3.9-.9,9.07,9.07,0,0,1,2.1.23,9.5,9.5,0,0,1,1.73.59v5.22a11.57,11.57,0,0,0-1.81-.93,5,5,0,0,0-1.85-.34,3.8,3.8,0,0,0-3.43,2.2q-1.26,2.2-1.26,6.9v1.4a24.14,24.14,0,0,0,.37,4.63,9.16,9.16,0,0,0,1,2.82,3.56,3.56,0,0,0,1.38,1.42,3.22,3.22,0,0,0,1.54.4h.18l.27,0V33.93H483V29.45h7V44.74a20.38,20.38,0,0,1-2.57.9A10.07,10.07,0,0,1,484.78,46Zm-34.29,3.34h3.18a8.4,8.4,0,0,1,2.67.4A5.74,5.74,0,0,1,458.42,51a5.55,5.55,0,0,1,1.36,2.14,9,9,0,0,1,.48,3.09v.06a9.5,9.5,0,0,1-.45,3,5.93,5.93,0,0,1-1.28,2.21,5.28,5.28,0,0,1-2,1.34,6.51,6.51,0,0,1-2.48.46h0v6.41h-3.56Zm3.6,10.7a2.36,2.36,0,0,0,1.86-.9,4.14,4.14,0,0,0,.76-2.75V56.3a4.69,4.69,0,0,0-.69-2.83,2.24,2.24,0,0,0-1.85-.87h-.12V60Zm9.46-10.77h3.79l3.89,20.45h-3.55l-.68-4h-3.23l-.64,4h-3.44Zm2.93,13.2-1.09-6.73-1.1,6.73Zm9,7.4a7.55,7.55,0,0,1-1.95-.24,7.4,7.4,0,0,1-1.66-.61v-3.7a10.64,10.64,0,0,0,1.71.87,3.88,3.88,0,0,0,1.5.29A2.14,2.14,0,0,0,476.4,66,1.53,1.53,0,0,0,477,64.7v-.06a3.08,3.08,0,0,0-.07-.68,2.84,2.84,0,0,0-.29-.73,8.76,8.76,0,0,0-.6-.91c-.26-.34-.6-.75-1-1.24-.61-.68-1.12-1.29-1.55-1.82a12.78,12.78,0,0,1-1.07-1.55,6.18,6.18,0,0,1-.61-1.48,6.69,6.69,0,0,1-.19-1.68v-.06a6,6,0,0,1,.38-2.22,4.9,4.9,0,0,1,1-1.68,4.66,4.66,0,0,1,1.57-1.07,5.16,5.16,0,0,1,2-.38,8,8,0,0,1,1.78.16,7.21,7.21,0,0,1,1.37.48v3.7a9.25,9.25,0,0,0-1.43-.73,3.51,3.51,0,0,0-1.28-.23,2,2,0,0,0-1.3.45,1.62,1.62,0,0,0-.54,1.3v.06a2.63,2.63,0,0,0,.08.65,2,2,0,0,0,.29.62c.15.23.35.49.6.81s.59.7,1,1.19c.7.82,1.27,1.52,1.72,2.12a10.39,10.39,0,0,1,1,1.64,6.68,6.68,0,0,1,.51,1.48,7.81,7.81,0,0,1,.15,1.59v.06a5.93,5.93,0,0,1-.39,2.19,5.32,5.32,0,0,1-1.08,1.69,4.71,4.71,0,0,1-1.6,1.08A5.17,5.17,0,0,1,475.49,69.84Zm9.47,0a8.14,8.14,0,0,1-3.61-.85v-3.7a11.07,11.07,0,0,0,1.71.87,4.13,4.13,0,0,0,1.5.3,2.3,2.3,0,0,0,1.33-.41,1.56,1.56,0,0,0,.56-1.35v-.06a3.08,3.08,0,0,0-.07-.68,2.84,2.84,0,0,0-.29-.73,10,10,0,0,0-.6-.91c-.25-.34-.59-.75-1-1.24-.6-.68-1.12-1.28-1.55-1.82a11,11,0,0,1-1.06-1.55,5.84,5.84,0,0,1-.62-1.48,7.19,7.19,0,0,1-.19-1.68v-.06a6.23,6.23,0,0,1,.38-2.22,4.9,4.9,0,0,1,1-1.68A4.66,4.66,0,0,1,484,49.51a5.2,5.2,0,0,1,2-.38,8,8,0,0,1,1.78.16,7,7,0,0,1,1.37.48v3.7a9.25,9.25,0,0,0-1.43-.73,3.47,3.47,0,0,0-1.28-.23,1.93,1.93,0,0,0-1.3.46,1.61,1.61,0,0,0-.53,1.29v.06a2.64,2.64,0,0,0,.07.65,2.27,2.27,0,0,0,.29.62c.15.23.35.49.6.81s.59.71,1,1.19c.7.82,1.28,1.52,1.72,2.12a9.37,9.37,0,0,1,1,1.65,6.44,6.44,0,0,1,.51,1.47,7.81,7.81,0,0,1,.15,1.59v.06a5.93,5.93,0,0,1-.39,2.19,5,5,0,0,1-1.08,1.69,4.62,4.62,0,0,1-1.6,1.08A5,5,0,0,1,485,69.83Z"/></clipPath><linearGradient id="linear-gradient-9" x1="1502.56" y1="-767.93" x2="1726.66" y2="-955.97" gradientTransform="translate(1082.21 1598.47) rotate(-90)" xlink:href="#linear-gradient"/><clipPath id="clip-path-4"><path class="cls-1" d="M1.62,92.4H0V90.22H5.54V92.4H3.92v11H1.62ZM6.5,90.22H8.79v5.46h2V90.22h2.29V103.4H10.79V97.86h-2v5.54H6.5Zm7.94,0h5V92.4H16.74v3.28h2.43v2.18H16.74v3.35h2.8v2.19h-5.1ZM5.59,136a11,11,0,0,1-2.76-.33,12.19,12.19,0,0,1-2.34-.86v-5.22a15.62,15.62,0,0,0,2.41,1.22A5.83,5.83,0,0,0,5,131.2a3.14,3.14,0,0,0,1.87-.57,2.17,2.17,0,0,0,.8-1.9v-.08a4.5,4.5,0,0,0-.1-1,4.15,4.15,0,0,0-.41-1,13.69,13.69,0,0,0-.84-1.27c-.36-.48-.84-1.07-1.44-1.75-.85-1-1.58-1.82-2.18-2.58a17.1,17.1,0,0,1-1.5-2.18,8.46,8.46,0,0,1-.86-2.1,9.51,9.51,0,0,1-.27-2.36v-.09a8.8,8.8,0,0,1,.53-3.12,7,7,0,0,1,1.46-2.37,6.32,6.32,0,0,1,2.22-1.5,7.17,7.17,0,0,1,2.78-.54,11.43,11.43,0,0,1,2.5.23,9.49,9.49,0,0,1,1.94.67v5.22a13.35,13.35,0,0,0-2-1,4.82,4.82,0,0,0-1.81-.32,2.74,2.74,0,0,0-1.83.64A2.26,2.26,0,0,0,5.09,114v.08a3.72,3.72,0,0,0,.11.91,2.65,2.65,0,0,0,.41.88A11.52,11.52,0,0,0,6.45,117c.36.44.84,1,1.44,1.69,1,1.15,1.79,2.15,2.42,3A13.76,13.76,0,0,1,11.77,124a9.37,9.37,0,0,1,.72,2.08,11,11,0,0,1,.21,2.24v.09a8.28,8.28,0,0,1-.56,3.08,7,7,0,0,1-1.52,2.39,6.58,6.58,0,0,1-2.26,1.52A7.12,7.12,0,0,1,5.59,136Zm9-29h5v28.76h-5Zm16.72,29a8.13,8.13,0,0,1-3.55-.8,8,8,0,0,1-2.92-2.49,12.71,12.71,0,0,1-2-4.35,25.2,25.2,0,0,1-.72-6.46v-1a23.88,23.88,0,0,1,.7-6.13,13.08,13.08,0,0,1,2-4.39,8.59,8.59,0,0,1,3-2.68,8.48,8.48,0,0,1,3.9-.9,9.07,9.07,0,0,1,2.1.23,9.24,9.24,0,0,1,1.73.59v5.22a11.15,11.15,0,0,0-1.81-.93,4.94,4.94,0,0,0-1.85-.34,3.81,3.81,0,0,0-3.43,2.2q-1.26,2.2-1.26,6.9v1.4a24.14,24.14,0,0,0,.37,4.63,9.16,9.16,0,0,0,1,2.82,3.56,3.56,0,0,0,1.38,1.42,3.22,3.22,0,0,0,1.54.4h.18l.27-.05v-7.35H29.46v-4.48h7v15.29a20.38,20.38,0,0,1-2.57.9A10.07,10.07,0,0,1,31.27,136Zm8-29h5v11.91h4.36V107h5v28.76h-5V123.68H44.26v12.08h-5Zm20,4.76H55.73V107H67.81v4.76H64.27v24h-5ZM74.38,136a11,11,0,0,1-2.75-.33,12.19,12.19,0,0,1-2.34-.86v-5.22a15.12,15.12,0,0,0,2.4,1.22,5.88,5.88,0,0,0,2.12.42,3.16,3.16,0,0,0,1.87-.57,2.2,2.2,0,0,0,.8-1.9v-.08a5.23,5.23,0,0,0-.1-1,4.15,4.15,0,0,0-.41-1,12.19,12.19,0,0,0-.85-1.27c-.35-.48-.83-1.07-1.44-1.75-.85-1-1.57-1.82-2.17-2.58a15.26,15.26,0,0,1-1.5-2.18,8.51,8.51,0,0,1-.87-2.1,9.53,9.53,0,0,1-.26-2.36v-.09a8.58,8.58,0,0,1,.53-3.12,6.88,6.88,0,0,1,1.46-2.37,6.32,6.32,0,0,1,2.22-1.5,7.12,7.12,0,0,1,2.77-.54,11.53,11.53,0,0,1,2.51.23,9.21,9.21,0,0,1,1.93.67v5.22a12.86,12.86,0,0,0-2-1,4.82,4.82,0,0,0-1.81-.32,2.74,2.74,0,0,0-1.83.64,2.23,2.23,0,0,0-.76,1.83v.08a3.73,3.73,0,0,0,.1.91,3.12,3.12,0,0,0,.41.88,13.83,13.83,0,0,0,.85,1.13c.35.44.83,1,1.43,1.69,1,1.15,1.8,2.15,2.43,3A13.76,13.76,0,0,1,80.57,124a9.37,9.37,0,0,1,.72,2.08,11.81,11.81,0,0,1,.2,2.24v.09a8.27,8.27,0,0,1-.55,3.08,7.14,7.14,0,0,1-1.52,2.39,6.67,6.67,0,0,1-2.26,1.52A7.17,7.17,0,0,1,74.38,136Zm8.88-29h11v4.76h-6v7.15h5.31v4.77H88.27V131H94.4v4.76H83.26Zm13.56,0h11v4.76h-6v7.15h5.3v4.77h-5.3V131H108v4.76H96.82Zm13.65,0h5v28.76h-5Zm8,0h4.68l5.06,14.54V107h4.85v28.76h-4.44l-5.3-15.24v15.24h-4.85Zm26.26,29a8.13,8.13,0,0,1-3.55-.8,7.89,7.89,0,0,1-2.92-2.49,12.53,12.53,0,0,1-2-4.35,25.2,25.2,0,0,1-.72-6.46v-1a24.36,24.36,0,0,1,.69-6.13,13.28,13.28,0,0,1,2-4.39,8.59,8.59,0,0,1,3-2.68,8.48,8.48,0,0,1,3.9-.9,9.07,9.07,0,0,1,2.1.23,9.5,9.5,0,0,1,1.73.59v5.22a11.57,11.57,0,0,0-1.81-.93,5,5,0,0,0-1.85-.34,3.8,3.8,0,0,0-3.43,2.2q-1.26,2.2-1.26,6.9v1.4a24.14,24.14,0,0,0,.37,4.63,9.16,9.16,0,0,0,1,2.82,3.56,3.56,0,0,0,1.38,1.42,3.22,3.22,0,0,0,1.54.4h.18l.27-.05v-7.35H143v-4.48h7v15.29a20.38,20.38,0,0,1-2.57.9A10.07,10.07,0,0,1,144.78,136Zm-34.29,3.34h3.18a8.4,8.4,0,0,1,2.67.4,5.74,5.74,0,0,1,2.08,1.24,5.55,5.55,0,0,1,1.36,2.14,9,9,0,0,1,.48,3.09v.06a9.5,9.5,0,0,1-.45,3,5.93,5.93,0,0,1-1.28,2.21,5.28,5.28,0,0,1-2,1.34,6.51,6.51,0,0,1-2.48.46h0v6.41h-3.56Zm3.6,10.7a2.36,2.36,0,0,0,1.86-.9,4.14,4.14,0,0,0,.76-2.75v-.06a4.69,4.69,0,0,0-.69-2.83,2.24,2.24,0,0,0-1.85-.87h-.12V150Zm9.46-10.77h3.79l3.89,20.45h-3.55l-.68-4h-3.23l-.64,4h-3.44Zm2.93,13.2-1.09-6.73-1.1,6.73Zm9,7.4a7.55,7.55,0,0,1-2-.24,7.4,7.4,0,0,1-1.66-.61v-3.7a10.64,10.64,0,0,0,1.71.87,3.88,3.88,0,0,0,1.5.29,2.14,2.14,0,0,0,1.32-.41,1.53,1.53,0,0,0,.57-1.34v-.06a3.08,3.08,0,0,0-.07-.68,2.84,2.84,0,0,0-.29-.73,8.76,8.76,0,0,0-.6-.91c-.26-.34-.6-.75-1-1.24-.61-.68-1.12-1.29-1.55-1.82a12.78,12.78,0,0,1-1.07-1.55,6.18,6.18,0,0,1-.61-1.48,6.69,6.69,0,0,1-.19-1.68v-.06a6,6,0,0,1,.38-2.22,4.9,4.9,0,0,1,1-1.68,4.66,4.66,0,0,1,1.57-1.07,5.16,5.16,0,0,1,2-.38,8,8,0,0,1,1.78.16,7.21,7.21,0,0,1,1.37.48v3.7a9.25,9.25,0,0,0-1.43-.73,3.51,3.51,0,0,0-1.28-.23,2,2,0,0,0-1.3.45,1.62,1.62,0,0,0-.54,1.3v.06a2.63,2.63,0,0,0,.08.65,2,2,0,0,0,.29.62c.15.23.35.49.6.81s.59.7,1,1.19c.7.82,1.27,1.52,1.72,2.12a10.39,10.39,0,0,1,1,1.64,6.68,6.68,0,0,1,.51,1.48,7.81,7.81,0,0,1,.15,1.59v.06a5.93,5.93,0,0,1-.39,2.19,5.32,5.32,0,0,1-1.08,1.69,4.71,4.71,0,0,1-1.6,1.08A5.17,5.17,0,0,1,135.49,159.84Zm9.47,0a8.14,8.14,0,0,1-3.61-.85v-3.7a11.07,11.07,0,0,0,1.71.87,4.13,4.13,0,0,0,1.5.3,2.3,2.3,0,0,0,1.33-.41,1.56,1.56,0,0,0,.56-1.35v-.06a3.08,3.08,0,0,0-.07-.68,2.84,2.84,0,0,0-.29-.73,10,10,0,0,0-.6-.91c-.25-.34-.59-.75-1-1.24-.6-.68-1.12-1.28-1.55-1.82a11,11,0,0,1-1.06-1.55,5.84,5.84,0,0,1-.62-1.48,7.19,7.19,0,0,1-.19-1.68v-.06a6.23,6.23,0,0,1,.38-2.22,4.9,4.9,0,0,1,1-1.68,4.66,4.66,0,0,1,1.57-1.07,5.2,5.2,0,0,1,2-.38,8,8,0,0,1,1.78.16,7,7,0,0,1,1.37.48v3.7a9.25,9.25,0,0,0-1.43-.73,3.47,3.47,0,0,0-1.28-.23,1.93,1.93,0,0,0-1.3.46,1.61,1.61,0,0,0-.53,1.29v.06a2.64,2.64,0,0,0,.07.65,2.27,2.27,0,0,0,.29.62c.15.23.35.49.6.81s.59.71,1,1.19c.7.82,1.28,1.52,1.72,2.12a9.37,9.37,0,0,1,1,1.65,6.44,6.44,0,0,1,.51,1.47,7.81,7.81,0,0,1,.15,1.59v.06a5.93,5.93,0,0,1-.39,2.19,5,5,0,0,1-1.08,1.69,4.62,4.62,0,0,1-1.6,1.08A5,5,0,0,1,145,159.83Z"/></clipPath><linearGradient id="linear-gradient-10" x1="509.64" y1="-1999.4" x2="733.82" y2="-2187.5" gradientTransform="translate(-456.76 2220.61)" xlink:href="#linear-gradient"/><linearGradient id="linear-gradient-11" x1="1262.32" y1="-819.66" x2="1473.62" y2="-996.96" xlink:href="#linear-gradient-2"/><linearGradient id="linear-gradient-12" x1="2584.73" y1="1309.54" x2="2786.38" y2="1140.34" gradientTransform="matrix(-0.7, 0, 0, -0.81, 2091.39, 1116.18)" xlink:href="#linear-gradient-3"/><linearGradient id="linear-gradient-13" x1="-110.79" y1="75.56" x2="66.51" y2="286.86" xlink:href="#linear-gradient-4"/><linearGradient id="linear-gradient-14" x1="224.49" y1="-560.22" x2="426.14" y2="-729.43" gradientTransform="translate(114.71 686.9) rotate(-35.62)" xlink:href="#linear-gradient-3"/><clipPath id="clip-path-5"><path class="cls-1" d="M171.62,92.4H170V90.22h5.54V92.4h-1.62v11h-2.3Zm4.88-2.18h2.29v5.46h2V90.22h2.29V103.4h-2.29V97.86h-2v5.54H176.5Zm7.94,0h5.05V92.4h-2.75v3.28h2.43v2.18h-2.43v3.35h2.8v2.19h-5.1ZM175.59,136a11,11,0,0,1-2.76-.33,12.19,12.19,0,0,1-2.34-.86v-5.22a15.62,15.62,0,0,0,2.41,1.22,5.83,5.83,0,0,0,2.11.42,3.14,3.14,0,0,0,1.87-.57,2.17,2.17,0,0,0,.8-1.9v-.08a4.5,4.5,0,0,0-.1-1,4.15,4.15,0,0,0-.41-1,13.69,13.69,0,0,0-.84-1.27c-.36-.48-.84-1.07-1.44-1.75-.85-1-1.58-1.82-2.18-2.58a17.1,17.1,0,0,1-1.5-2.18,8.46,8.46,0,0,1-.86-2.1,9.51,9.51,0,0,1-.27-2.36v-.09a8.8,8.8,0,0,1,.53-3.12,7,7,0,0,1,1.46-2.37,6.32,6.32,0,0,1,2.22-1.5,7.17,7.17,0,0,1,2.78-.54,11.43,11.43,0,0,1,2.5.23,9.49,9.49,0,0,1,1.94.67v5.22a13.35,13.35,0,0,0-2-1,4.82,4.82,0,0,0-1.81-.32,2.74,2.74,0,0,0-1.83.64,2.26,2.26,0,0,0-.76,1.83v.08a3.72,3.72,0,0,0,.11.91,2.65,2.65,0,0,0,.41.88,11.52,11.52,0,0,0,.84,1.13c.36.44.84,1,1.44,1.69,1,1.15,1.79,2.15,2.42,3a13.76,13.76,0,0,1,1.46,2.32,9.37,9.37,0,0,1,.72,2.08,11,11,0,0,1,.21,2.24v.09a8.28,8.28,0,0,1-.56,3.08,7,7,0,0,1-1.52,2.39,6.58,6.58,0,0,1-2.26,1.52A7.12,7.12,0,0,1,175.59,136Zm9-29h5v28.76h-5Zm16.72,29a8.13,8.13,0,0,1-3.55-.8,8,8,0,0,1-2.92-2.49,12.71,12.71,0,0,1-2-4.35,25.2,25.2,0,0,1-.72-6.46v-1a23.88,23.88,0,0,1,.7-6.13,13.08,13.08,0,0,1,2-4.39,8.59,8.59,0,0,1,3-2.68,8.48,8.48,0,0,1,3.9-.9,9.07,9.07,0,0,1,2.1.23,9.24,9.24,0,0,1,1.73.59v5.22a11.15,11.15,0,0,0-1.81-.93,4.94,4.94,0,0,0-1.85-.34,3.81,3.81,0,0,0-3.43,2.2q-1.26,2.2-1.26,6.9v1.4a24.14,24.14,0,0,0,.37,4.63,9.16,9.16,0,0,0,1,2.82,3.56,3.56,0,0,0,1.38,1.42,3.22,3.22,0,0,0,1.54.4h.18l.27-.05v-7.35h-2.47v-4.48h7v15.29a20.38,20.38,0,0,1-2.57.9A10.07,10.07,0,0,1,201.27,136Zm8-29h5v11.91h4.36V107h5v28.76h-5V123.68h-4.36v12.08h-5Zm20,4.76h-3.53V107h12.08v4.76h-3.54v24h-5ZM244.38,136a11,11,0,0,1-2.75-.33,12.19,12.19,0,0,1-2.34-.86v-5.22a15.12,15.12,0,0,0,2.4,1.22,5.88,5.88,0,0,0,2.12.42,3.16,3.16,0,0,0,1.87-.57,2.2,2.2,0,0,0,.8-1.9v-.08a5.23,5.23,0,0,0-.1-1,4.15,4.15,0,0,0-.41-1,12.19,12.19,0,0,0-.85-1.27c-.35-.48-.83-1.07-1.44-1.75-.85-1-1.57-1.82-2.17-2.58a15.26,15.26,0,0,1-1.5-2.18,8.51,8.51,0,0,1-.87-2.1,9.53,9.53,0,0,1-.26-2.36v-.09a8.58,8.58,0,0,1,.53-3.12,6.88,6.88,0,0,1,1.46-2.37,6.32,6.32,0,0,1,2.22-1.5,7.12,7.12,0,0,1,2.77-.54,11.53,11.53,0,0,1,2.51.23,9.21,9.21,0,0,1,1.93.67v5.22a12.86,12.86,0,0,0-2-1,4.82,4.82,0,0,0-1.81-.32,2.74,2.74,0,0,0-1.83.64,2.23,2.23,0,0,0-.76,1.83v.08a3.73,3.73,0,0,0,.1.91,3.12,3.12,0,0,0,.41.88,13.83,13.83,0,0,0,.85,1.13c.35.44.83,1,1.43,1.69,1,1.15,1.8,2.15,2.43,3a13.76,13.76,0,0,1,1.46,2.32,9.37,9.37,0,0,1,.72,2.08,11.81,11.81,0,0,1,.2,2.24v.09a8.27,8.27,0,0,1-.55,3.08,7.14,7.14,0,0,1-1.52,2.39,6.67,6.67,0,0,1-2.26,1.52A7.17,7.17,0,0,1,244.38,136Zm8.88-29h11v4.76h-6v7.15h5.31v4.77h-5.31V131h6.13v4.76H253.26Zm13.56,0h11v4.76h-6v7.15h5.3v4.77h-5.3V131H278v4.76H266.82Zm13.65,0h5v28.76h-5Zm8,0h4.68l5.06,14.54V107h4.85v28.76h-4.44l-5.3-15.24v15.24h-4.85Zm26.26,29a8.13,8.13,0,0,1-3.55-.8,7.89,7.89,0,0,1-2.92-2.49,12.53,12.53,0,0,1-2-4.35,25.2,25.2,0,0,1-.72-6.46v-1a24.36,24.36,0,0,1,.69-6.13,13.28,13.28,0,0,1,2-4.39,8.59,8.59,0,0,1,3-2.68,8.48,8.48,0,0,1,3.9-.9,9.07,9.07,0,0,1,2.1.23,9.5,9.5,0,0,1,1.73.59v5.22a11.57,11.57,0,0,0-1.81-.93,5,5,0,0,0-1.85-.34,3.8,3.8,0,0,0-3.43,2.2q-1.26,2.2-1.26,6.9v1.4a24.14,24.14,0,0,0,.37,4.63,9.16,9.16,0,0,0,1,2.82,3.56,3.56,0,0,0,1.38,1.42,3.22,3.22,0,0,0,1.54.4h.18l.27-.05v-7.35H313v-4.48h7v15.29a20.38,20.38,0,0,1-2.57.9A10.07,10.07,0,0,1,314.78,136Zm-34.29,3.34h3.18a8.4,8.4,0,0,1,2.67.4,5.74,5.74,0,0,1,2.08,1.24,5.55,5.55,0,0,1,1.36,2.14,9,9,0,0,1,.48,3.09v.06a9.5,9.5,0,0,1-.45,3,5.93,5.93,0,0,1-1.28,2.21,5.28,5.28,0,0,1-2,1.34,6.51,6.51,0,0,1-2.48.46h0v6.41h-3.56Zm3.6,10.7a2.36,2.36,0,0,0,1.86-.9,4.14,4.14,0,0,0,.76-2.75v-.06a4.69,4.69,0,0,0-.69-2.83,2.24,2.24,0,0,0-1.85-.87h-.12V150Zm9.46-10.77h3.79l3.89,20.45h-3.55l-.68-4h-3.23l-.64,4h-3.44Zm2.93,13.2-1.09-6.73-1.1,6.73Zm9,7.4a7.55,7.55,0,0,1-1.95-.24,7.4,7.4,0,0,1-1.66-.61v-3.7a10.64,10.64,0,0,0,1.71.87,3.88,3.88,0,0,0,1.5.29,2.14,2.14,0,0,0,1.32-.41,1.53,1.53,0,0,0,.57-1.34v-.06a3.08,3.08,0,0,0-.07-.68,2.84,2.84,0,0,0-.29-.73,8.76,8.76,0,0,0-.6-.91c-.26-.34-.6-.75-1-1.24-.61-.68-1.12-1.29-1.55-1.82a12.78,12.78,0,0,1-1.07-1.55,6.18,6.18,0,0,1-.61-1.48,6.69,6.69,0,0,1-.19-1.68v-.06a6,6,0,0,1,.38-2.22,4.9,4.9,0,0,1,1-1.68,4.66,4.66,0,0,1,1.57-1.07,5.16,5.16,0,0,1,2-.38,8,8,0,0,1,1.78.16,7.21,7.21,0,0,1,1.37.48v3.7a9.25,9.25,0,0,0-1.43-.73,3.51,3.51,0,0,0-1.28-.23,2,2,0,0,0-1.3.45,1.62,1.62,0,0,0-.54,1.3v.06a2.63,2.63,0,0,0,.08.65,2,2,0,0,0,.29.62c.15.23.35.49.6.81s.59.7,1,1.19c.7.82,1.27,1.52,1.72,2.12a10.39,10.39,0,0,1,1,1.64,6.68,6.68,0,0,1,.51,1.48,7.81,7.81,0,0,1,.15,1.59v.06a5.93,5.93,0,0,1-.39,2.19,5.32,5.32,0,0,1-1.08,1.69,4.71,4.71,0,0,1-1.6,1.08A5.17,5.17,0,0,1,305.49,159.84Zm9.47,0a8.14,8.14,0,0,1-3.61-.85v-3.7a11.07,11.07,0,0,0,1.71.87,4.13,4.13,0,0,0,1.5.3,2.3,2.3,0,0,0,1.33-.41,1.56,1.56,0,0,0,.56-1.35v-.06a3.08,3.08,0,0,0-.07-.68,2.84,2.84,0,0,0-.29-.73,10,10,0,0,0-.6-.91c-.25-.34-.59-.75-1-1.24-.6-.68-1.12-1.28-1.55-1.82a11,11,0,0,1-1.06-1.55,5.84,5.84,0,0,1-.62-1.48,7.19,7.19,0,0,1-.19-1.68v-.06a6.23,6.23,0,0,1,.38-2.22,4.9,4.9,0,0,1,1-1.68,4.66,4.66,0,0,1,1.57-1.07,5.2,5.2,0,0,1,2-.38,8,8,0,0,1,1.78.16,7,7,0,0,1,1.37.48v3.7a9.25,9.25,0,0,0-1.43-.73,3.47,3.47,0,0,0-1.28-.23,1.93,1.93,0,0,0-1.3.46,1.61,1.61,0,0,0-.53,1.29v.06a2.64,2.64,0,0,0,.07.65,2.27,2.27,0,0,0,.29.62c.15.23.35.49.6.81s.59.71,1,1.19c.7.82,1.28,1.52,1.72,2.12a9.37,9.37,0,0,1,1,1.65,6.44,6.44,0,0,1,.51,1.47,7.81,7.81,0,0,1,.15,1.59v.06a5.93,5.93,0,0,1-.39,2.19,5,5,0,0,1-1.08,1.69,4.62,4.62,0,0,1-1.6,1.08A5,5,0,0,1,315,159.83Z"/></clipPath><linearGradient id="linear-gradient-15" x1="1412.56" y1="-937.93" x2="1636.66" y2="-1125.97" gradientTransform="translate(1082.21 1598.47) rotate(-90)" xlink:href="#linear-gradient"/><linearGradient id="linear-gradient-16" x1="59.21" y1="75.56" x2="236.51" y2="286.86" xlink:href="#linear-gradient-4"/><linearGradient id="linear-gradient-17" x1="362.67" y1="-461.2" x2="564.33" y2="-630.41" gradientTransform="translate(114.71 686.9) rotate(-35.62)" xlink:href="#linear-gradient-3"/><clipPath id="clip-path-6"><path class="cls-1" d="M341.62,92.4H340V90.22h5.54V92.4h-1.62v11h-2.3Zm4.88-2.18h2.29v5.46h2V90.22h2.29V103.4h-2.29V97.86h-2v5.54H346.5Zm7.94,0h5.05V92.4h-2.75v3.28h2.43v2.18h-2.43v3.35h2.8v2.19h-5.1ZM345.59,136a11,11,0,0,1-2.76-.33,12.19,12.19,0,0,1-2.34-.86v-5.22a15.62,15.62,0,0,0,2.41,1.22,5.83,5.83,0,0,0,2.11.42,3.14,3.14,0,0,0,1.87-.57,2.17,2.17,0,0,0,.8-1.9v-.08a4.5,4.5,0,0,0-.1-1,4.15,4.15,0,0,0-.41-1,13.69,13.69,0,0,0-.84-1.27c-.36-.48-.84-1.07-1.44-1.75-.85-1-1.58-1.82-2.18-2.58a17.1,17.1,0,0,1-1.5-2.18,8.46,8.46,0,0,1-.86-2.1,9.51,9.51,0,0,1-.27-2.36v-.09a8.8,8.8,0,0,1,.53-3.12,7,7,0,0,1,1.46-2.37,6.32,6.32,0,0,1,2.22-1.5,7.17,7.17,0,0,1,2.78-.54,11.43,11.43,0,0,1,2.5.23,9.49,9.49,0,0,1,1.94.67v5.22a13.35,13.35,0,0,0-2-1,4.82,4.82,0,0,0-1.81-.32,2.74,2.74,0,0,0-1.83.64,2.26,2.26,0,0,0-.76,1.83v.08a3.72,3.72,0,0,0,.11.91,2.65,2.65,0,0,0,.41.88,11.52,11.52,0,0,0,.84,1.13c.36.44.84,1,1.44,1.69,1,1.15,1.79,2.15,2.42,3a13.76,13.76,0,0,1,1.46,2.32,9.37,9.37,0,0,1,.72,2.08,11,11,0,0,1,.21,2.24v.09a8.28,8.28,0,0,1-.56,3.08,7,7,0,0,1-1.52,2.39,6.58,6.58,0,0,1-2.26,1.52A7.12,7.12,0,0,1,345.59,136Zm9-29h5v28.76h-5Zm16.72,29a8.13,8.13,0,0,1-3.55-.8,8,8,0,0,1-2.92-2.49,12.71,12.71,0,0,1-2-4.35,25.2,25.2,0,0,1-.72-6.46v-1a23.88,23.88,0,0,1,.7-6.13,13.08,13.08,0,0,1,2-4.39,8.59,8.59,0,0,1,3-2.68,8.48,8.48,0,0,1,3.9-.9,9.07,9.07,0,0,1,2.1.23,9.24,9.24,0,0,1,1.73.59v5.22a11.15,11.15,0,0,0-1.81-.93,4.94,4.94,0,0,0-1.85-.34,3.81,3.81,0,0,0-3.43,2.2q-1.26,2.2-1.26,6.9v1.4a24.14,24.14,0,0,0,.37,4.63,9.16,9.16,0,0,0,1,2.82,3.56,3.56,0,0,0,1.38,1.42,3.22,3.22,0,0,0,1.54.4h.18l.27-.05v-7.35h-2.47v-4.48h7v15.29a20.38,20.38,0,0,1-2.57.9A10.07,10.07,0,0,1,371.27,136Zm8-29h5v11.91h4.36V107h5v28.76h-5V123.68h-4.36v12.08h-5Zm20,4.76h-3.53V107h12.08v4.76h-3.54v24h-5ZM414.38,136a11,11,0,0,1-2.75-.33,12.19,12.19,0,0,1-2.34-.86v-5.22a15.12,15.12,0,0,0,2.4,1.22,5.88,5.88,0,0,0,2.12.42,3.16,3.16,0,0,0,1.87-.57,2.2,2.2,0,0,0,.8-1.9v-.08a5.23,5.23,0,0,0-.1-1,4.15,4.15,0,0,0-.41-1,12.19,12.19,0,0,0-.85-1.27c-.35-.48-.83-1.07-1.44-1.75-.85-1-1.57-1.82-2.17-2.58a15.26,15.26,0,0,1-1.5-2.18,8.51,8.51,0,0,1-.87-2.1,9.53,9.53,0,0,1-.26-2.36v-.09a8.58,8.58,0,0,1,.53-3.12,6.88,6.88,0,0,1,1.46-2.37,6.32,6.32,0,0,1,2.22-1.5,7.12,7.12,0,0,1,2.77-.54,11.53,11.53,0,0,1,2.51.23,9.21,9.21,0,0,1,1.93.67v5.22a12.86,12.86,0,0,0-2-1,4.82,4.82,0,0,0-1.81-.32,2.74,2.74,0,0,0-1.83.64,2.23,2.23,0,0,0-.76,1.83v.08a3.73,3.73,0,0,0,.1.91,3.12,3.12,0,0,0,.41.88,13.83,13.83,0,0,0,.85,1.13c.35.44.83,1,1.43,1.69,1,1.15,1.8,2.15,2.43,3a13.76,13.76,0,0,1,1.46,2.32,9.37,9.37,0,0,1,.72,2.08,11.81,11.81,0,0,1,.2,2.24v.09a8.27,8.27,0,0,1-.55,3.08,7.14,7.14,0,0,1-1.52,2.39,6.67,6.67,0,0,1-2.26,1.52A7.17,7.17,0,0,1,414.38,136Zm8.88-29h11v4.76h-6v7.15h5.31v4.77h-5.31V131h6.13v4.76H423.26Zm13.56,0h11v4.76h-6v7.15h5.3v4.77h-5.3V131H448v4.76H436.82Zm13.65,0h5v28.76h-5Zm8,0h4.68l5.06,14.54V107h4.85v28.76h-4.44l-5.3-15.24v15.24h-4.85Zm26.26,29a8.13,8.13,0,0,1-3.55-.8,7.89,7.89,0,0,1-2.92-2.49,12.53,12.53,0,0,1-2-4.35,25.2,25.2,0,0,1-.72-6.46v-1a24.36,24.36,0,0,1,.69-6.13,13.28,13.28,0,0,1,2-4.39,8.59,8.59,0,0,1,3-2.68,8.48,8.48,0,0,1,3.9-.9,9.07,9.07,0,0,1,2.1.23,9.5,9.5,0,0,1,1.73.59v5.22a11.57,11.57,0,0,0-1.81-.93,5,5,0,0,0-1.85-.34,3.8,3.8,0,0,0-3.43,2.2q-1.26,2.2-1.26,6.9v1.4a24.14,24.14,0,0,0,.37,4.63,9.16,9.16,0,0,0,1,2.82,3.56,3.56,0,0,0,1.38,1.42,3.22,3.22,0,0,0,1.54.4h.18l.27-.05v-7.35H483v-4.48h7v15.29a20.38,20.38,0,0,1-2.57.9A10.07,10.07,0,0,1,484.78,136Zm-34.29,3.34h3.18a8.4,8.4,0,0,1,2.67.4,5.74,5.74,0,0,1,2.08,1.24,5.55,5.55,0,0,1,1.36,2.14,9,9,0,0,1,.48,3.09v.06a9.5,9.5,0,0,1-.45,3,5.93,5.93,0,0,1-1.28,2.21,5.28,5.28,0,0,1-2,1.34,6.51,6.51,0,0,1-2.48.46h0v6.41h-3.56Zm3.6,10.7a2.36,2.36,0,0,0,1.86-.9,4.14,4.14,0,0,0,.76-2.75v-.06a4.69,4.69,0,0,0-.69-2.83,2.24,2.24,0,0,0-1.85-.87h-.12V150Zm9.46-10.77h3.79l3.89,20.45h-3.55l-.68-4h-3.23l-.64,4h-3.44Zm2.93,13.2-1.09-6.73-1.1,6.73Zm9,7.4a7.55,7.55,0,0,1-1.95-.24,7.4,7.4,0,0,1-1.66-.61v-3.7a10.64,10.64,0,0,0,1.71.87,3.88,3.88,0,0,0,1.5.29,2.14,2.14,0,0,0,1.32-.41,1.53,1.53,0,0,0,.57-1.34v-.06a3.08,3.08,0,0,0-.07-.68,2.84,2.84,0,0,0-.29-.73,8.76,8.76,0,0,0-.6-.91c-.26-.34-.6-.75-1-1.24-.61-.68-1.12-1.29-1.55-1.82a12.78,12.78,0,0,1-1.07-1.55,6.18,6.18,0,0,1-.61-1.48,6.69,6.69,0,0,1-.19-1.68v-.06a6,6,0,0,1,.38-2.22,4.9,4.9,0,0,1,1-1.68,4.66,4.66,0,0,1,1.57-1.07,5.16,5.16,0,0,1,2-.38,8,8,0,0,1,1.78.16,7.21,7.21,0,0,1,1.37.48v3.7a9.25,9.25,0,0,0-1.43-.73,3.51,3.51,0,0,0-1.28-.23,2,2,0,0,0-1.3.45,1.62,1.62,0,0,0-.54,1.3v.06a2.63,2.63,0,0,0,.08.65,2,2,0,0,0,.29.62c.15.23.35.49.6.81s.59.7,1,1.19c.7.82,1.27,1.52,1.72,2.12a10.39,10.39,0,0,1,1,1.64,6.68,6.68,0,0,1,.51,1.48,7.81,7.81,0,0,1,.15,1.59v.06a5.93,5.93,0,0,1-.39,2.19,5.32,5.32,0,0,1-1.08,1.69,4.71,4.71,0,0,1-1.6,1.08A5.17,5.17,0,0,1,475.49,159.84Zm9.47,0a8.14,8.14,0,0,1-3.61-.85v-3.7a11.07,11.07,0,0,0,1.71.87,4.13,4.13,0,0,0,1.5.3,2.3,2.3,0,0,0,1.33-.41,1.56,1.56,0,0,0,.56-1.35v-.06a3.08,3.08,0,0,0-.07-.68,2.84,2.84,0,0,0-.29-.73,10,10,0,0,0-.6-.91c-.25-.34-.59-.75-1-1.24-.6-.68-1.12-1.28-1.55-1.82a11,11,0,0,1-1.06-1.55,5.84,5.84,0,0,1-.62-1.48,7.19,7.19,0,0,1-.19-1.68v-.06a6.23,6.23,0,0,1,.38-2.22,4.9,4.9,0,0,1,1-1.68,4.66,4.66,0,0,1,1.57-1.07,5.2,5.2,0,0,1,2-.38,8,8,0,0,1,1.78.16,7,7,0,0,1,1.37.48v3.7a9.25,9.25,0,0,0-1.43-.73,3.47,3.47,0,0,0-1.28-.23,1.93,1.93,0,0,0-1.3.46,1.61,1.61,0,0,0-.53,1.29v.06a2.64,2.64,0,0,0,.07.65,2.27,2.27,0,0,0,.29.62c.15.23.35.49.6.81s.59.71,1,1.19c.7.82,1.28,1.52,1.72,2.12a9.37,9.37,0,0,1,1,1.65,6.44,6.44,0,0,1,.51,1.47,7.81,7.81,0,0,1,.15,1.59v.06a5.93,5.93,0,0,1-.39,2.19,5,5,0,0,1-1.08,1.69,4.62,4.62,0,0,1-1.6,1.08A5,5,0,0,1,485,159.83Z"/></clipPath><linearGradient id="linear-gradient-18" x1="1412.56" y1="-767.93" x2="1636.66" y2="-955.97" gradientTransform="translate(1082.21 1598.47) rotate(-90)" xlink:href="#linear-gradient"/><clipPath id="clip-path-7"><path class="cls-1" d="M1.62,182.4H0v-2.18H5.54v2.18H3.92v11H1.62Zm4.88-2.18H8.79v5.46h2v-5.46h2.29V193.4H10.79v-5.54h-2v5.54H6.5Zm7.94,0h5v2.18H16.74v3.28h2.43v2.18H16.74v3.35h2.8v2.19h-5.1ZM5.59,226a11,11,0,0,1-2.76-.33,12.19,12.19,0,0,1-2.34-.86v-5.22a15.62,15.62,0,0,0,2.41,1.22A5.83,5.83,0,0,0,5,221.2a3.14,3.14,0,0,0,1.87-.57,2.17,2.17,0,0,0,.8-1.9v-.08a4.5,4.5,0,0,0-.1-1,4.15,4.15,0,0,0-.41-1,13.69,13.69,0,0,0-.84-1.27c-.36-.48-.84-1.07-1.44-1.75-.85-1-1.58-1.82-2.18-2.58a17.1,17.1,0,0,1-1.5-2.18,8.46,8.46,0,0,1-.86-2.1,9.51,9.51,0,0,1-.27-2.36v-.09a8.8,8.8,0,0,1,.53-3.12,7,7,0,0,1,1.46-2.37,6.32,6.32,0,0,1,2.22-1.5,7.17,7.17,0,0,1,2.78-.54,11.43,11.43,0,0,1,2.5.23,9.49,9.49,0,0,1,1.94.67v5.22a13.35,13.35,0,0,0-2-1,4.82,4.82,0,0,0-1.81-.32,2.74,2.74,0,0,0-1.83.64A2.26,2.26,0,0,0,5.09,204v.08a3.72,3.72,0,0,0,.11.91,2.65,2.65,0,0,0,.41.88A11.52,11.52,0,0,0,6.45,207c.36.44.84,1,1.44,1.69,1,1.15,1.79,2.15,2.42,3A13.76,13.76,0,0,1,11.77,214a9.37,9.37,0,0,1,.72,2.08,11,11,0,0,1,.21,2.24v.09a8.28,8.28,0,0,1-.56,3.08,7,7,0,0,1-1.52,2.39,6.58,6.58,0,0,1-2.26,1.52A7.12,7.12,0,0,1,5.59,226Zm9-29h5v28.76h-5Zm16.72,29a8.13,8.13,0,0,1-3.55-.8,8,8,0,0,1-2.92-2.49,12.71,12.71,0,0,1-2-4.35,25.2,25.2,0,0,1-.72-6.46v-1a23.88,23.88,0,0,1,.7-6.13,13.08,13.08,0,0,1,2-4.39,8.59,8.59,0,0,1,3-2.68,8.48,8.48,0,0,1,3.9-.9,9.07,9.07,0,0,1,2.1.23,9.24,9.24,0,0,1,1.73.59v5.22a11.15,11.15,0,0,0-1.81-.93,4.94,4.94,0,0,0-1.85-.34,3.81,3.81,0,0,0-3.43,2.2q-1.26,2.2-1.26,6.9v1.4a24.14,24.14,0,0,0,.37,4.63,9.16,9.16,0,0,0,1,2.82,3.56,3.56,0,0,0,1.38,1.42,3.22,3.22,0,0,0,1.54.4h.18l.27-.05v-7.35H29.46v-4.48h7v15.29a20.38,20.38,0,0,1-2.57.9A10.07,10.07,0,0,1,31.27,226Zm8-29h5v11.91h4.36V197h5v28.76h-5V213.68H44.26v12.08h-5Zm20,4.76H55.73V197H67.81v4.76H64.27v24h-5ZM74.38,226a11,11,0,0,1-2.75-.33,12.19,12.19,0,0,1-2.34-.86v-5.22a15.12,15.12,0,0,0,2.4,1.22,5.88,5.88,0,0,0,2.12.42,3.16,3.16,0,0,0,1.87-.57,2.2,2.2,0,0,0,.8-1.9v-.08a5.23,5.23,0,0,0-.1-1,4.15,4.15,0,0,0-.41-1,12.19,12.19,0,0,0-.85-1.27c-.35-.48-.83-1.07-1.44-1.75-.85-1-1.57-1.82-2.17-2.58a15.26,15.26,0,0,1-1.5-2.18,8.51,8.51,0,0,1-.87-2.1,9.53,9.53,0,0,1-.26-2.36v-.09a8.58,8.58,0,0,1,.53-3.12,6.88,6.88,0,0,1,1.46-2.37,6.32,6.32,0,0,1,2.22-1.5,7.12,7.12,0,0,1,2.77-.54,11.53,11.53,0,0,1,2.51.23,9.21,9.21,0,0,1,1.93.67v5.22a12.86,12.86,0,0,0-2-1,4.82,4.82,0,0,0-1.81-.32,2.74,2.74,0,0,0-1.83.64,2.23,2.23,0,0,0-.76,1.83v.08a3.73,3.73,0,0,0,.1.91,3.12,3.12,0,0,0,.41.88,13.83,13.83,0,0,0,.85,1.13c.35.44.83,1,1.43,1.69,1,1.15,1.8,2.15,2.43,3A13.76,13.76,0,0,1,80.57,214a9.37,9.37,0,0,1,.72,2.08,11.81,11.81,0,0,1,.2,2.24v.09a8.27,8.27,0,0,1-.55,3.08,7.14,7.14,0,0,1-1.52,2.39,6.67,6.67,0,0,1-2.26,1.52A7.17,7.17,0,0,1,74.38,226Zm8.88-29h11v4.76h-6v7.15h5.31v4.77H88.27V221H94.4v4.76H83.26Zm13.56,0h11v4.76h-6v7.15h5.3v4.77h-5.3V221H108v4.76H96.82Zm13.65,0h5v28.76h-5Zm8,0h4.68l5.06,14.54V197h4.85v28.76h-4.44l-5.3-15.24v15.24h-4.85Zm26.26,29a8.13,8.13,0,0,1-3.55-.8,7.89,7.89,0,0,1-2.92-2.49,12.53,12.53,0,0,1-2-4.35,25.2,25.2,0,0,1-.72-6.46v-1a24.36,24.36,0,0,1,.69-6.13,13.28,13.28,0,0,1,2-4.39,8.59,8.59,0,0,1,3-2.68,8.48,8.48,0,0,1,3.9-.9,9.07,9.07,0,0,1,2.1.23,9.5,9.5,0,0,1,1.73.59v5.22a11.57,11.57,0,0,0-1.81-.93,5,5,0,0,0-1.85-.34,3.8,3.8,0,0,0-3.43,2.2q-1.26,2.2-1.26,6.9v1.4a24.14,24.14,0,0,0,.37,4.63,9.16,9.16,0,0,0,1,2.82,3.56,3.56,0,0,0,1.38,1.42,3.22,3.22,0,0,0,1.54.4h.18l.27-.05v-7.35H143v-4.48h7v15.29a20.38,20.38,0,0,1-2.57.9A10.07,10.07,0,0,1,144.78,226Zm-34.29,3.34h3.18a8.4,8.4,0,0,1,2.67.4,5.74,5.74,0,0,1,2.08,1.24,5.55,5.55,0,0,1,1.36,2.14,9,9,0,0,1,.48,3.09v.06a9.5,9.5,0,0,1-.45,3,5.93,5.93,0,0,1-1.28,2.21,5.28,5.28,0,0,1-2,1.34,6.51,6.51,0,0,1-2.48.46h0v6.41h-3.56Zm3.6,10.7a2.36,2.36,0,0,0,1.86-.9,4.14,4.14,0,0,0,.76-2.75v-.06a4.69,4.69,0,0,0-.69-2.83,2.24,2.24,0,0,0-1.85-.87h-.12V240Zm9.46-10.77h3.79l3.89,20.45h-3.55l-.68-4h-3.23l-.64,4h-3.44Zm2.93,13.2-1.09-6.73-1.1,6.73Zm9,7.4a7.55,7.55,0,0,1-2-.24,7.4,7.4,0,0,1-1.66-.61v-3.7a10.64,10.64,0,0,0,1.71.87,3.88,3.88,0,0,0,1.5.29,2.14,2.14,0,0,0,1.32-.41,1.53,1.53,0,0,0,.57-1.34v-.06a3.08,3.08,0,0,0-.07-.68,2.84,2.84,0,0,0-.29-.73,8.76,8.76,0,0,0-.6-.91c-.26-.34-.6-.75-1-1.24-.61-.68-1.12-1.29-1.55-1.82a12.78,12.78,0,0,1-1.07-1.55,6.18,6.18,0,0,1-.61-1.48,6.69,6.69,0,0,1-.19-1.68v-.06a6,6,0,0,1,.38-2.22,4.9,4.9,0,0,1,1-1.68,4.66,4.66,0,0,1,1.57-1.07,5.16,5.16,0,0,1,2-.38,8,8,0,0,1,1.78.16,7.21,7.21,0,0,1,1.37.48v3.7a9.25,9.25,0,0,0-1.43-.73,3.51,3.51,0,0,0-1.28-.23,2,2,0,0,0-1.3.45,1.62,1.62,0,0,0-.54,1.3v.06a2.63,2.63,0,0,0,.08.65,2,2,0,0,0,.29.62c.15.23.35.49.6.81s.59.7,1,1.19c.7.82,1.27,1.52,1.72,2.12a10.39,10.39,0,0,1,1,1.64,6.68,6.68,0,0,1,.51,1.48,7.81,7.81,0,0,1,.15,1.59v.06a5.93,5.93,0,0,1-.39,2.19,5.32,5.32,0,0,1-1.08,1.69,4.71,4.71,0,0,1-1.6,1.08A5.17,5.17,0,0,1,135.49,249.84Zm9.47,0a8.14,8.14,0,0,1-3.61-.85v-3.7a11.07,11.07,0,0,0,1.71.87,4.13,4.13,0,0,0,1.5.3,2.3,2.3,0,0,0,1.33-.41,1.56,1.56,0,0,0,.56-1.35v-.06a3.08,3.08,0,0,0-.07-.68,2.84,2.84,0,0,0-.29-.73,10,10,0,0,0-.6-.91c-.25-.34-.59-.75-1-1.24-.6-.68-1.12-1.28-1.55-1.82a11,11,0,0,1-1.06-1.55,5.84,5.84,0,0,1-.62-1.48,7.19,7.19,0,0,1-.19-1.68v-.06a6.23,6.23,0,0,1,.38-2.22,4.9,4.9,0,0,1,1-1.68,4.66,4.66,0,0,1,1.57-1.07,5.2,5.2,0,0,1,2-.38,8,8,0,0,1,1.78.16,7,7,0,0,1,1.37.48v3.7a9.25,9.25,0,0,0-1.43-.73,3.47,3.47,0,0,0-1.28-.23,1.93,1.93,0,0,0-1.3.46,1.61,1.61,0,0,0-.53,1.29v.06a2.64,2.64,0,0,0,.07.65,2.27,2.27,0,0,0,.29.62c.15.23.35.49.6.81s.59.71,1,1.19c.7.82,1.28,1.52,1.72,2.12a9.37,9.37,0,0,1,1,1.65,6.44,6.44,0,0,1,.51,1.47,7.81,7.81,0,0,1,.15,1.59v.06a5.93,5.93,0,0,1-.39,2.19,5,5,0,0,1-1.08,1.69,4.62,4.62,0,0,1-1.6,1.08A5,5,0,0,1,145,249.83Z"/></clipPath><linearGradient id="linear-gradient-19" x1="1172.32" y1="-819.66" x2="1383.62" y2="-996.96" xlink:href="#linear-gradient-2"/><linearGradient id="linear-gradient-20" x1="172.07" y1="-487.06" x2="373.72" y2="-656.27" gradientTransform="translate(114.71 686.9) rotate(-35.62)" xlink:href="#linear-gradient-3"/><clipPath id="clip-path-8"><path class="cls-1" d="M171.62,182.4H170v-2.18h5.54v2.18h-1.62v11h-2.3Zm4.88-2.18h2.29v5.46h2v-5.46h2.29V193.4h-2.29v-5.54h-2v5.54H176.5Zm7.94,0h5.05v2.18h-2.75v3.28h2.43v2.18h-2.43v3.35h2.8v2.19h-5.1ZM175.59,226a11,11,0,0,1-2.76-.33,12.19,12.19,0,0,1-2.34-.86v-5.22a15.62,15.62,0,0,0,2.41,1.22,5.83,5.83,0,0,0,2.11.42,3.14,3.14,0,0,0,1.87-.57,2.17,2.17,0,0,0,.8-1.9v-.08a4.5,4.5,0,0,0-.1-1,4.15,4.15,0,0,0-.41-1,13.69,13.69,0,0,0-.84-1.27c-.36-.48-.84-1.07-1.44-1.75-.85-1-1.58-1.82-2.18-2.58a17.1,17.1,0,0,1-1.5-2.18,8.46,8.46,0,0,1-.86-2.1,9.51,9.51,0,0,1-.27-2.36v-.09a8.8,8.8,0,0,1,.53-3.12,7,7,0,0,1,1.46-2.37,6.32,6.32,0,0,1,2.22-1.5,7.17,7.17,0,0,1,2.78-.54,11.43,11.43,0,0,1,2.5.23,9.49,9.49,0,0,1,1.94.67v5.22a13.35,13.35,0,0,0-2-1,4.82,4.82,0,0,0-1.81-.32,2.74,2.74,0,0,0-1.83.64,2.26,2.26,0,0,0-.76,1.83v.08a3.72,3.72,0,0,0,.11.91,2.65,2.65,0,0,0,.41.88,11.52,11.52,0,0,0,.84,1.13c.36.44.84,1,1.44,1.69,1,1.15,1.79,2.15,2.42,3a13.76,13.76,0,0,1,1.46,2.32,9.37,9.37,0,0,1,.72,2.08,11,11,0,0,1,.21,2.24v.09a8.28,8.28,0,0,1-.56,3.08,7,7,0,0,1-1.52,2.39,6.58,6.58,0,0,1-2.26,1.52A7.12,7.12,0,0,1,175.59,226Zm9-29h5v28.76h-5Zm16.72,29a8.13,8.13,0,0,1-3.55-.8,8,8,0,0,1-2.92-2.49,12.71,12.71,0,0,1-2-4.35,25.2,25.2,0,0,1-.72-6.46v-1a23.88,23.88,0,0,1,.7-6.13,13.08,13.08,0,0,1,2-4.39,8.59,8.59,0,0,1,3-2.68,8.48,8.48,0,0,1,3.9-.9,9.07,9.07,0,0,1,2.1.23,9.24,9.24,0,0,1,1.73.59v5.22a11.15,11.15,0,0,0-1.81-.93,4.94,4.94,0,0,0-1.85-.34,3.81,3.81,0,0,0-3.43,2.2q-1.26,2.2-1.26,6.9v1.4a24.14,24.14,0,0,0,.37,4.63,9.16,9.16,0,0,0,1,2.82,3.56,3.56,0,0,0,1.38,1.42,3.22,3.22,0,0,0,1.54.4h.18l.27-.05v-7.35h-2.47v-4.48h7v15.29a20.38,20.38,0,0,1-2.57.9A10.07,10.07,0,0,1,201.27,226Zm8-29h5v11.91h4.36V197h5v28.76h-5V213.68h-4.36v12.08h-5Zm20,4.76h-3.53V197h12.08v4.76h-3.54v24h-5ZM244.38,226a11,11,0,0,1-2.75-.33,12.19,12.19,0,0,1-2.34-.86v-5.22a15.12,15.12,0,0,0,2.4,1.22,5.88,5.88,0,0,0,2.12.42,3.16,3.16,0,0,0,1.87-.57,2.2,2.2,0,0,0,.8-1.9v-.08a5.23,5.23,0,0,0-.1-1,4.15,4.15,0,0,0-.41-1,12.19,12.19,0,0,0-.85-1.27c-.35-.48-.83-1.07-1.44-1.75-.85-1-1.57-1.82-2.17-2.58a15.26,15.26,0,0,1-1.5-2.18,8.51,8.51,0,0,1-.87-2.1,9.53,9.53,0,0,1-.26-2.36v-.09a8.58,8.58,0,0,1,.53-3.12,6.88,6.88,0,0,1,1.46-2.37,6.32,6.32,0,0,1,2.22-1.5,7.12,7.12,0,0,1,2.77-.54,11.53,11.53,0,0,1,2.51.23,9.21,9.21,0,0,1,1.93.67v5.22a12.86,12.86,0,0,0-2-1,4.82,4.82,0,0,0-1.81-.32,2.74,2.74,0,0,0-1.83.64,2.23,2.23,0,0,0-.76,1.83v.08a3.73,3.73,0,0,0,.1.91,3.12,3.12,0,0,0,.41.88,13.83,13.83,0,0,0,.85,1.13c.35.44.83,1,1.43,1.69,1,1.15,1.8,2.15,2.43,3a13.76,13.76,0,0,1,1.46,2.32,9.37,9.37,0,0,1,.72,2.08,11.81,11.81,0,0,1,.2,2.24v.09a8.27,8.27,0,0,1-.55,3.08,7.14,7.14,0,0,1-1.52,2.39,6.67,6.67,0,0,1-2.26,1.52A7.17,7.17,0,0,1,244.38,226Zm8.88-29h11v4.76h-6v7.15h5.31v4.77h-5.31V221h6.13v4.76H253.26Zm13.56,0h11v4.76h-6v7.15h5.3v4.77h-5.3V221H278v4.76H266.82Zm13.65,0h5v28.76h-5Zm8,0h4.68l5.06,14.54V197h4.85v28.76h-4.44l-5.3-15.24v15.24h-4.85Zm26.26,29a8.13,8.13,0,0,1-3.55-.8,7.89,7.89,0,0,1-2.92-2.49,12.53,12.53,0,0,1-2-4.35,25.2,25.2,0,0,1-.72-6.46v-1a24.36,24.36,0,0,1,.69-6.13,13.28,13.28,0,0,1,2-4.39,8.59,8.59,0,0,1,3-2.68,8.48,8.48,0,0,1,3.9-.9,9.07,9.07,0,0,1,2.1.23,9.5,9.5,0,0,1,1.73.59v5.22a11.57,11.57,0,0,0-1.81-.93,5,5,0,0,0-1.85-.34,3.8,3.8,0,0,0-3.43,2.2q-1.26,2.2-1.26,6.9v1.4a24.14,24.14,0,0,0,.37,4.63,9.16,9.16,0,0,0,1,2.82,3.56,3.56,0,0,0,1.38,1.42,3.22,3.22,0,0,0,1.54.4h.18l.27-.05v-7.35H313v-4.48h7v15.29a20.38,20.38,0,0,1-2.57.9A10.07,10.07,0,0,1,314.78,226Zm-34.29,3.34h3.18a8.4,8.4,0,0,1,2.67.4,5.74,5.74,0,0,1,2.08,1.24,5.55,5.55,0,0,1,1.36,2.14,9,9,0,0,1,.48,3.09v.06a9.5,9.5,0,0,1-.45,3,5.93,5.93,0,0,1-1.28,2.21,5.28,5.28,0,0,1-2,1.34,6.51,6.51,0,0,1-2.48.46h0v6.41h-3.56Zm3.6,10.7a2.36,2.36,0,0,0,1.86-.9,4.14,4.14,0,0,0,.76-2.75v-.06a4.69,4.69,0,0,0-.69-2.83,2.24,2.24,0,0,0-1.85-.87h-.12V240Zm9.46-10.77h3.79l3.89,20.45h-3.55l-.68-4h-3.23l-.64,4h-3.44Zm2.93,13.2-1.09-6.73-1.1,6.73Zm9,7.4a7.55,7.55,0,0,1-1.95-.24,7.4,7.4,0,0,1-1.66-.61v-3.7a10.64,10.64,0,0,0,1.71.87,3.88,3.88,0,0,0,1.5.29,2.14,2.14,0,0,0,1.32-.41,1.53,1.53,0,0,0,.57-1.34v-.06a3.08,3.08,0,0,0-.07-.68,2.84,2.84,0,0,0-.29-.73,8.76,8.76,0,0,0-.6-.91c-.26-.34-.6-.75-1-1.24-.61-.68-1.12-1.29-1.55-1.82a12.78,12.78,0,0,1-1.07-1.55,6.18,6.18,0,0,1-.61-1.48,6.69,6.69,0,0,1-.19-1.68v-.06a6,6,0,0,1,.38-2.22,4.9,4.9,0,0,1,1-1.68,4.66,4.66,0,0,1,1.57-1.07,5.16,5.16,0,0,1,2-.38,8,8,0,0,1,1.78.16,7.21,7.21,0,0,1,1.37.48v3.7a9.25,9.25,0,0,0-1.43-.73,3.51,3.51,0,0,0-1.28-.23,2,2,0,0,0-1.3.45,1.62,1.62,0,0,0-.54,1.3v.06a2.63,2.63,0,0,0,.08.65,2,2,0,0,0,.29.62c.15.23.35.49.6.81s.59.7,1,1.19c.7.82,1.27,1.52,1.72,2.12a10.39,10.39,0,0,1,1,1.64,6.68,6.68,0,0,1,.51,1.48,7.81,7.81,0,0,1,.15,1.59v.06a5.93,5.93,0,0,1-.39,2.19,5.32,5.32,0,0,1-1.08,1.69,4.71,4.71,0,0,1-1.6,1.08A5.17,5.17,0,0,1,305.49,249.84Zm9.47,0a8.14,8.14,0,0,1-3.61-.85v-3.7a11.07,11.07,0,0,0,1.71.87,4.13,4.13,0,0,0,1.5.3,2.3,2.3,0,0,0,1.33-.41,1.56,1.56,0,0,0,.56-1.35v-.06a3.08,3.08,0,0,0-.07-.68,2.84,2.84,0,0,0-.29-.73,10,10,0,0,0-.6-.91c-.25-.34-.59-.75-1-1.24-.6-.68-1.12-1.28-1.55-1.82a11,11,0,0,1-1.06-1.55,5.84,5.84,0,0,1-.62-1.48,7.19,7.19,0,0,1-.19-1.68v-.06a6.23,6.23,0,0,1,.38-2.22,4.9,4.9,0,0,1,1-1.68,4.66,4.66,0,0,1,1.57-1.07,5.2,5.2,0,0,1,2-.38,8,8,0,0,1,1.78.16,7,7,0,0,1,1.37.48v3.7a9.25,9.25,0,0,0-1.43-.73,3.47,3.47,0,0,0-1.28-.23,1.93,1.93,0,0,0-1.3.46,1.61,1.61,0,0,0-.53,1.29v.06a2.64,2.64,0,0,0,.07.65,2.27,2.27,0,0,0,.29.62c.15.23.35.49.6.81s.59.71,1,1.19c.7.82,1.28,1.52,1.72,2.12a9.37,9.37,0,0,1,1,1.65,6.44,6.44,0,0,1,.51,1.47,7.81,7.81,0,0,1,.15,1.59v.06a5.93,5.93,0,0,1-.39,2.19,5,5,0,0,1-1.08,1.69,4.62,4.62,0,0,1-1.6,1.08A5,5,0,0,1,315,249.83Z"/></clipPath><linearGradient id="linear-gradient-21" x1="1322.56" y1="-937.93" x2="1546.66" y2="-1125.97" gradientTransform="translate(1082.21 1598.47) rotate(-90)" xlink:href="#linear-gradient"/><linearGradient id="linear-gradient-22" x1="310.25" y1="-388.05" x2="511.9" y2="-557.25" gradientTransform="translate(114.71 686.9) rotate(-35.62)" xlink:href="#linear-gradient-3"/><clipPath id="clip-path-9"><path class="cls-1" d="M341.62,182.4H340v-2.18h5.54v2.18h-1.62v11h-2.3Zm4.88-2.18h2.29v5.46h2v-5.46h2.29V193.4h-2.29v-5.54h-2v5.54H346.5Zm7.94,0h5.05v2.18h-2.75v3.28h2.43v2.18h-2.43v3.35h2.8v2.19h-5.1ZM345.59,226a11,11,0,0,1-2.76-.33,12.19,12.19,0,0,1-2.34-.86v-5.22a15.62,15.62,0,0,0,2.41,1.22,5.83,5.83,0,0,0,2.11.42,3.14,3.14,0,0,0,1.87-.57,2.17,2.17,0,0,0,.8-1.9v-.08a4.5,4.5,0,0,0-.1-1,4.15,4.15,0,0,0-.41-1,13.69,13.69,0,0,0-.84-1.27c-.36-.48-.84-1.07-1.44-1.75-.85-1-1.58-1.82-2.18-2.58a17.1,17.1,0,0,1-1.5-2.18,8.46,8.46,0,0,1-.86-2.1,9.51,9.51,0,0,1-.27-2.36v-.09a8.8,8.8,0,0,1,.53-3.12,7,7,0,0,1,1.46-2.37,6.32,6.32,0,0,1,2.22-1.5,7.17,7.17,0,0,1,2.78-.54,11.43,11.43,0,0,1,2.5.23,9.49,9.49,0,0,1,1.94.67v5.22a13.35,13.35,0,0,0-2-1,4.82,4.82,0,0,0-1.81-.32,2.74,2.74,0,0,0-1.83.64,2.26,2.26,0,0,0-.76,1.83v.08a3.72,3.72,0,0,0,.11.91,2.65,2.65,0,0,0,.41.88,11.52,11.52,0,0,0,.84,1.13c.36.44.84,1,1.44,1.69,1,1.15,1.79,2.15,2.42,3a13.76,13.76,0,0,1,1.46,2.32,9.37,9.37,0,0,1,.72,2.08,11,11,0,0,1,.21,2.24v.09a8.28,8.28,0,0,1-.56,3.08,7,7,0,0,1-1.52,2.39,6.58,6.58,0,0,1-2.26,1.52A7.12,7.12,0,0,1,345.59,226Zm9-29h5v28.76h-5Zm16.72,29a8.13,8.13,0,0,1-3.55-.8,8,8,0,0,1-2.92-2.49,12.71,12.71,0,0,1-2-4.35,25.2,25.2,0,0,1-.72-6.46v-1a23.88,23.88,0,0,1,.7-6.13,13.08,13.08,0,0,1,2-4.39,8.59,8.59,0,0,1,3-2.68,8.48,8.48,0,0,1,3.9-.9,9.07,9.07,0,0,1,2.1.23,9.24,9.24,0,0,1,1.73.59v5.22a11.15,11.15,0,0,0-1.81-.93,4.94,4.94,0,0,0-1.85-.34,3.81,3.81,0,0,0-3.43,2.2q-1.26,2.2-1.26,6.9v1.4a24.14,24.14,0,0,0,.37,4.63,9.16,9.16,0,0,0,1,2.82,3.56,3.56,0,0,0,1.38,1.42,3.22,3.22,0,0,0,1.54.4h.18l.27-.05v-7.35h-2.47v-4.48h7v15.29a20.38,20.38,0,0,1-2.57.9A10.07,10.07,0,0,1,371.27,226Zm8-29h5v11.91h4.36V197h5v28.76h-5V213.68h-4.36v12.08h-5Zm20,4.76h-3.53V197h12.08v4.76h-3.54v24h-5ZM414.38,226a11,11,0,0,1-2.75-.33,12.19,12.19,0,0,1-2.34-.86v-5.22a15.12,15.12,0,0,0,2.4,1.22,5.88,5.88,0,0,0,2.12.42,3.16,3.16,0,0,0,1.87-.57,2.2,2.2,0,0,0,.8-1.9v-.08a5.23,5.23,0,0,0-.1-1,4.15,4.15,0,0,0-.41-1,12.19,12.19,0,0,0-.85-1.27c-.35-.48-.83-1.07-1.44-1.75-.85-1-1.57-1.82-2.17-2.58a15.26,15.26,0,0,1-1.5-2.18,8.51,8.51,0,0,1-.87-2.1,9.53,9.53,0,0,1-.26-2.36v-.09a8.58,8.58,0,0,1,.53-3.12,6.88,6.88,0,0,1,1.46-2.37,6.32,6.32,0,0,1,2.22-1.5,7.12,7.12,0,0,1,2.77-.54,11.53,11.53,0,0,1,2.51.23,9.21,9.21,0,0,1,1.93.67v5.22a12.86,12.86,0,0,0-2-1,4.82,4.82,0,0,0-1.81-.32,2.74,2.74,0,0,0-1.83.64,2.23,2.23,0,0,0-.76,1.83v.08a3.73,3.73,0,0,0,.1.91,3.12,3.12,0,0,0,.41.88,13.83,13.83,0,0,0,.85,1.13c.35.44.83,1,1.43,1.69,1,1.15,1.8,2.15,2.43,3a13.76,13.76,0,0,1,1.46,2.32,9.37,9.37,0,0,1,.72,2.08,11.81,11.81,0,0,1,.2,2.24v.09a8.27,8.27,0,0,1-.55,3.08,7.14,7.14,0,0,1-1.52,2.39,6.67,6.67,0,0,1-2.26,1.52A7.17,7.17,0,0,1,414.38,226Zm8.88-29h11v4.76h-6v7.15h5.31v4.77h-5.31V221h6.13v4.76H423.26Zm13.56,0h11v4.76h-6v7.15h5.3v4.77h-5.3V221H448v4.76H436.82Zm13.65,0h5v28.76h-5Zm8,0h4.68l5.06,14.54V197h4.85v28.76h-4.44l-5.3-15.24v15.24h-4.85Zm26.26,29a8.13,8.13,0,0,1-3.55-.8,7.89,7.89,0,0,1-2.92-2.49,12.53,12.53,0,0,1-2-4.35,25.2,25.2,0,0,1-.72-6.46v-1a24.36,24.36,0,0,1,.69-6.13,13.28,13.28,0,0,1,2-4.39,8.59,8.59,0,0,1,3-2.68,8.48,8.48,0,0,1,3.9-.9,9.07,9.07,0,0,1,2.1.23,9.5,9.5,0,0,1,1.73.59v5.22a11.57,11.57,0,0,0-1.81-.93,5,5,0,0,0-1.85-.34,3.8,3.8,0,0,0-3.43,2.2q-1.26,2.2-1.26,6.9v1.4a24.14,24.14,0,0,0,.37,4.63,9.16,9.16,0,0,0,1,2.82,3.56,3.56,0,0,0,1.38,1.42,3.22,3.22,0,0,0,1.54.4h.18l.27-.05v-7.35H483v-4.48h7v15.29a20.38,20.38,0,0,1-2.57.9A10.07,10.07,0,0,1,484.78,226Zm-34.29,3.34h3.18a8.4,8.4,0,0,1,2.67.4,5.74,5.74,0,0,1,2.08,1.24,5.55,5.55,0,0,1,1.36,2.14,9,9,0,0,1,.48,3.09v.06a9.5,9.5,0,0,1-.45,3,5.93,5.93,0,0,1-1.28,2.21,5.28,5.28,0,0,1-2,1.34,6.51,6.51,0,0,1-2.48.46h0v6.41h-3.56Zm3.6,10.7a2.36,2.36,0,0,0,1.86-.9,4.14,4.14,0,0,0,.76-2.75v-.06a4.69,4.69,0,0,0-.69-2.83,2.24,2.24,0,0,0-1.85-.87h-.12V240Zm9.46-10.77h3.79l3.89,20.45h-3.55l-.68-4h-3.23l-.64,4h-3.44Zm2.93,13.2-1.09-6.73-1.1,6.73Zm9,7.4a7.55,7.55,0,0,1-1.95-.24,7.4,7.4,0,0,1-1.66-.61v-3.7a10.64,10.64,0,0,0,1.71.87,3.88,3.88,0,0,0,1.5.29,2.14,2.14,0,0,0,1.32-.41,1.53,1.53,0,0,0,.57-1.34v-.06a3.08,3.08,0,0,0-.07-.68,2.84,2.84,0,0,0-.29-.73,8.76,8.76,0,0,0-.6-.91c-.26-.34-.6-.75-1-1.24-.61-.68-1.12-1.29-1.55-1.82a12.78,12.78,0,0,1-1.07-1.55,6.18,6.18,0,0,1-.61-1.48,6.69,6.69,0,0,1-.19-1.68v-.06a6,6,0,0,1,.38-2.22,4.9,4.9,0,0,1,1-1.68,4.66,4.66,0,0,1,1.57-1.07,5.16,5.16,0,0,1,2-.38,8,8,0,0,1,1.78.16,7.21,7.21,0,0,1,1.37.48v3.7a9.25,9.25,0,0,0-1.43-.73,3.51,3.51,0,0,0-1.28-.23,2,2,0,0,0-1.3.45,1.62,1.62,0,0,0-.54,1.3v.06a2.63,2.63,0,0,0,.08.65,2,2,0,0,0,.29.62c.15.23.35.49.6.81s.59.7,1,1.19c.7.82,1.27,1.52,1.72,2.12a10.39,10.39,0,0,1,1,1.64,6.68,6.68,0,0,1,.51,1.48,7.81,7.81,0,0,1,.15,1.59v.06a5.93,5.93,0,0,1-.39,2.19,5.32,5.32,0,0,1-1.08,1.69,4.71,4.71,0,0,1-1.6,1.08A5.17,5.17,0,0,1,475.49,249.84Zm9.47,0a8.14,8.14,0,0,1-3.61-.85v-3.7a11.07,11.07,0,0,0,1.71.87,4.13,4.13,0,0,0,1.5.3,2.3,2.3,0,0,0,1.33-.41,1.56,1.56,0,0,0,.56-1.35v-.06a3.08,3.08,0,0,0-.07-.68,2.84,2.84,0,0,0-.29-.73,10,10,0,0,0-.6-.91c-.25-.34-.59-.75-1-1.24-.6-.68-1.12-1.28-1.55-1.82a11,11,0,0,1-1.06-1.55,5.84,5.84,0,0,1-.62-1.48,7.19,7.19,0,0,1-.19-1.68v-.06a6.23,6.23,0,0,1,.38-2.22,4.9,4.9,0,0,1,1-1.68,4.66,4.66,0,0,1,1.57-1.07,5.2,5.2,0,0,1,2-.38,8,8,0,0,1,1.78.16,7,7,0,0,1,1.37.48v3.7a9.25,9.25,0,0,0-1.43-.73,3.47,3.47,0,0,0-1.28-.23,1.93,1.93,0,0,0-1.3.46,1.61,1.61,0,0,0-.53,1.29v.06a2.64,2.64,0,0,0,.07.65,2.27,2.27,0,0,0,.29.62c.15.23.35.49.6.81s.59.71,1,1.19c.7.82,1.28,1.52,1.72,2.12a9.37,9.37,0,0,1,1,1.65,6.44,6.44,0,0,1,.51,1.47,7.81,7.81,0,0,1,.15,1.59v.06a5.93,5.93,0,0,1-.39,2.19,5,5,0,0,1-1.08,1.69,4.62,4.62,0,0,1-1.6,1.08A5,5,0,0,1,485,249.83Z"/></clipPath><linearGradient id="linear-gradient-23" x1="1322.56" y1="-767.93" x2="1546.66" y2="-955.97" gradientTransform="translate(1082.21 1598.47) rotate(-90)" xlink:href="#linear-gradient"/><clipPath id="clip-path-10"><path class="cls-1" d="M1.62,272.4H0v-2.18H5.54v2.18H3.92v11H1.62Zm4.88-2.18H8.79v5.46h2v-5.46h2.29V283.4H10.79v-5.54h-2v5.54H6.5Zm7.94,0h5v2.18H16.74v3.28h2.43v2.18H16.74v3.35h2.8v2.19h-5.1ZM5.59,316a11,11,0,0,1-2.76-.33,12.19,12.19,0,0,1-2.34-.86v-5.22a15.62,15.62,0,0,0,2.41,1.22A5.83,5.83,0,0,0,5,311.2a3.14,3.14,0,0,0,1.87-.57,2.17,2.17,0,0,0,.8-1.9v-.08a4.5,4.5,0,0,0-.1-1,4.15,4.15,0,0,0-.41-1,13.69,13.69,0,0,0-.84-1.27c-.36-.48-.84-1.07-1.44-1.75-.85-1-1.58-1.82-2.18-2.58a17.1,17.1,0,0,1-1.5-2.18,8.46,8.46,0,0,1-.86-2.1,9.51,9.51,0,0,1-.27-2.36v-.09a8.8,8.8,0,0,1,.53-3.12,7,7,0,0,1,1.46-2.37,6.32,6.32,0,0,1,2.22-1.5,7.17,7.17,0,0,1,2.78-.54,11.43,11.43,0,0,1,2.5.23,9.49,9.49,0,0,1,1.94.67v5.22a13.35,13.35,0,0,0-2-1,4.82,4.82,0,0,0-1.81-.32,2.74,2.74,0,0,0-1.83.64A2.26,2.26,0,0,0,5.09,294v.08a3.72,3.72,0,0,0,.11.91,2.65,2.65,0,0,0,.41.88A11.52,11.52,0,0,0,6.45,297c.36.44.84,1,1.44,1.69,1,1.15,1.79,2.15,2.42,3A13.76,13.76,0,0,1,11.77,304a9.37,9.37,0,0,1,.72,2.08,11,11,0,0,1,.21,2.24v.09a8.28,8.28,0,0,1-.56,3.08,7,7,0,0,1-1.52,2.39,6.58,6.58,0,0,1-2.26,1.52A7.12,7.12,0,0,1,5.59,316Zm9-29h5v28.76h-5Zm16.72,29a8.13,8.13,0,0,1-3.55-.8,8,8,0,0,1-2.92-2.49,12.71,12.71,0,0,1-2-4.35,25.2,25.2,0,0,1-.72-6.46v-1a23.88,23.88,0,0,1,.7-6.13,13.08,13.08,0,0,1,2-4.39,8.59,8.59,0,0,1,3-2.68,8.48,8.48,0,0,1,3.9-.9,9.07,9.07,0,0,1,2.1.23,9.24,9.24,0,0,1,1.73.59v5.22a11.15,11.15,0,0,0-1.81-.93,4.94,4.94,0,0,0-1.85-.34,3.81,3.81,0,0,0-3.43,2.2q-1.26,2.21-1.26,6.9v1.4a24.14,24.14,0,0,0,.37,4.63,9.16,9.16,0,0,0,1,2.82,3.56,3.56,0,0,0,1.38,1.42,3.22,3.22,0,0,0,1.54.4h.18l.27-.05v-7.35H29.46v-4.48h7v15.29a20.38,20.38,0,0,1-2.57.9A10.07,10.07,0,0,1,31.27,316Zm8-29h5v11.91h4.36V287h5v28.76h-5V303.68H44.26v12.08h-5Zm20,4.76H55.73V287H67.81v4.76H64.27v24h-5ZM74.38,316a11,11,0,0,1-2.75-.33,12.19,12.19,0,0,1-2.34-.86v-5.22a15.12,15.12,0,0,0,2.4,1.22,5.88,5.88,0,0,0,2.12.42,3.16,3.16,0,0,0,1.87-.57,2.2,2.2,0,0,0,.8-1.9v-.08a5.23,5.23,0,0,0-.1-1,4.15,4.15,0,0,0-.41-1,12.19,12.19,0,0,0-.85-1.27c-.35-.48-.83-1.07-1.44-1.75-.85-1-1.57-1.82-2.17-2.58a15.26,15.26,0,0,1-1.5-2.18,8.51,8.51,0,0,1-.87-2.1,9.53,9.53,0,0,1-.26-2.36v-.09a8.58,8.58,0,0,1,.53-3.12,6.88,6.88,0,0,1,1.46-2.37,6.32,6.32,0,0,1,2.22-1.5,7.12,7.12,0,0,1,2.77-.54,11.53,11.53,0,0,1,2.51.23,9.21,9.21,0,0,1,1.93.67v5.22a12.86,12.86,0,0,0-2-1,4.82,4.82,0,0,0-1.81-.32,2.74,2.74,0,0,0-1.83.64,2.23,2.23,0,0,0-.76,1.83v.08a3.73,3.73,0,0,0,.1.91,3.12,3.12,0,0,0,.41.88,13.83,13.83,0,0,0,.85,1.13c.35.44.83,1,1.43,1.69,1,1.15,1.8,2.15,2.43,3A13.76,13.76,0,0,1,80.57,304a9.37,9.37,0,0,1,.72,2.08,11.81,11.81,0,0,1,.2,2.24v.09a8.27,8.27,0,0,1-.55,3.08,7.14,7.14,0,0,1-1.52,2.39,6.67,6.67,0,0,1-2.26,1.52A7.17,7.17,0,0,1,74.38,316Zm8.88-29h11v4.76h-6v7.15h5.31v4.77H88.27V311H94.4v4.76H83.26Zm13.56,0h11v4.76h-6v7.15h5.3v4.77h-5.3V311H108v4.76H96.82Zm13.65,0h5v28.76h-5Zm8,0h4.68l5.06,14.54V287h4.85v28.76h-4.44l-5.3-15.24v15.24h-4.85Zm26.26,29a8.13,8.13,0,0,1-3.55-.8,7.89,7.89,0,0,1-2.92-2.49,12.53,12.53,0,0,1-2-4.35,25.2,25.2,0,0,1-.72-6.46v-1a24.36,24.36,0,0,1,.69-6.13,13.28,13.28,0,0,1,2-4.39,8.59,8.59,0,0,1,3-2.68,8.48,8.48,0,0,1,3.9-.9,9.07,9.07,0,0,1,2.1.23,9.5,9.5,0,0,1,1.73.59v5.22a11.57,11.57,0,0,0-1.81-.93,5,5,0,0,0-1.85-.34,3.8,3.8,0,0,0-3.43,2.2q-1.26,2.21-1.26,6.9v1.4a24.14,24.14,0,0,0,.37,4.63,9.16,9.16,0,0,0,1,2.82,3.56,3.56,0,0,0,1.38,1.42,3.22,3.22,0,0,0,1.54.4h.18l.27-.05v-7.35H143v-4.48h7v15.29a20.38,20.38,0,0,1-2.57.9A10.07,10.07,0,0,1,144.78,316Zm-34.29,3.34h3.18a8.4,8.4,0,0,1,2.67.4,5.74,5.74,0,0,1,2.08,1.24,5.55,5.55,0,0,1,1.36,2.14,9,9,0,0,1,.48,3.09v.06a9.5,9.5,0,0,1-.45,3.05,5.93,5.93,0,0,1-1.28,2.21,5.28,5.28,0,0,1-2,1.34,6.51,6.51,0,0,1-2.48.46h0v6.41h-3.56Zm3.6,10.7a2.36,2.36,0,0,0,1.86-.9,4.14,4.14,0,0,0,.76-2.75v-.06a4.69,4.69,0,0,0-.69-2.83,2.24,2.24,0,0,0-1.85-.87h-.12V330Zm9.46-10.77h3.79l3.89,20.45h-3.55l-.68-4.05h-3.23l-.64,4.05h-3.44Zm2.93,13.2-1.09-6.73-1.1,6.73Zm9,7.4a7.55,7.55,0,0,1-2-.24,7.4,7.4,0,0,1-1.66-.61v-3.7a10.64,10.64,0,0,0,1.71.87,3.88,3.88,0,0,0,1.5.29,2.14,2.14,0,0,0,1.32-.41,1.53,1.53,0,0,0,.57-1.34v-.06a3.08,3.08,0,0,0-.07-.68,2.84,2.84,0,0,0-.29-.73,8.76,8.76,0,0,0-.6-.91c-.26-.34-.6-.75-1-1.24-.61-.68-1.12-1.29-1.55-1.82a12.78,12.78,0,0,1-1.07-1.55,6.18,6.18,0,0,1-.61-1.48,6.69,6.69,0,0,1-.19-1.68v-.06a6,6,0,0,1,.38-2.22,4.9,4.9,0,0,1,1-1.68,4.66,4.66,0,0,1,1.57-1.07,5.16,5.16,0,0,1,2-.38,8,8,0,0,1,1.78.16,7.21,7.21,0,0,1,1.37.48v3.7a9.25,9.25,0,0,0-1.43-.73,3.51,3.51,0,0,0-1.28-.23,2,2,0,0,0-1.3.45,1.62,1.62,0,0,0-.54,1.3v.06a2.63,2.63,0,0,0,.08.65,2,2,0,0,0,.29.62c.15.23.35.49.6.81s.59.7,1,1.19c.7.82,1.27,1.52,1.72,2.12a10.39,10.39,0,0,1,1,1.64,6.68,6.68,0,0,1,.51,1.48,7.81,7.81,0,0,1,.15,1.59v.06a5.93,5.93,0,0,1-.39,2.19,5.32,5.32,0,0,1-1.08,1.69,4.71,4.71,0,0,1-1.6,1.08A5.17,5.17,0,0,1,135.49,339.84Zm9.47,0a8.14,8.14,0,0,1-3.61-.85v-3.7a11.07,11.07,0,0,0,1.71.87,4.13,4.13,0,0,0,1.5.3,2.3,2.3,0,0,0,1.33-.41,1.56,1.56,0,0,0,.56-1.35v-.06a3.08,3.08,0,0,0-.07-.68,2.84,2.84,0,0,0-.29-.73,10,10,0,0,0-.6-.91c-.25-.34-.59-.75-1-1.24-.6-.68-1.12-1.28-1.55-1.82a11,11,0,0,1-1.06-1.55,5.84,5.84,0,0,1-.62-1.48,7.19,7.19,0,0,1-.19-1.68v-.06a6.23,6.23,0,0,1,.38-2.22,4.9,4.9,0,0,1,1-1.68,4.66,4.66,0,0,1,1.57-1.07,5.2,5.2,0,0,1,2-.38,8,8,0,0,1,1.78.16,7,7,0,0,1,1.37.48v3.7a9.25,9.25,0,0,0-1.43-.73,3.47,3.47,0,0,0-1.28-.23,1.93,1.93,0,0,0-1.3.46,1.61,1.61,0,0,0-.53,1.29v.06a2.64,2.64,0,0,0,.07.65,2.27,2.27,0,0,0,.29.62c.15.23.35.49.6.81s.59.71,1,1.19c.7.82,1.28,1.52,1.72,2.12a9.37,9.37,0,0,1,1,1.65,6.44,6.44,0,0,1,.51,1.47,7.81,7.81,0,0,1,.15,1.59v.06a5.93,5.93,0,0,1-.39,2.19,5,5,0,0,1-1.08,1.69,4.62,4.62,0,0,1-1.6,1.08A5,5,0,0,1,145,339.83Z"/></clipPath><linearGradient id="linear-gradient-24" x1="119.65" y1="-413.91" x2="321.3" y2="-583.11" gradientTransform="translate(114.71 686.9) rotate(-35.62)" xlink:href="#linear-gradient-3"/><clipPath id="clip-path-11"><path class="cls-1" d="M171.62,272.4H170v-2.18h5.54v2.18h-1.62v11h-2.3Zm4.88-2.18h2.29v5.46h2v-5.46h2.29V283.4h-2.29v-5.54h-2v5.54H176.5Zm7.94,0h5.05v2.18h-2.75v3.28h2.43v2.18h-2.43v3.35h2.8v2.19h-5.1ZM175.59,316a11,11,0,0,1-2.76-.33,12.19,12.19,0,0,1-2.34-.86v-5.22a15.62,15.62,0,0,0,2.41,1.22,5.83,5.83,0,0,0,2.11.42,3.14,3.14,0,0,0,1.87-.57,2.17,2.17,0,0,0,.8-1.9v-.08a4.5,4.5,0,0,0-.1-1,4.15,4.15,0,0,0-.41-1,13.69,13.69,0,0,0-.84-1.27c-.36-.48-.84-1.07-1.44-1.75-.85-1-1.58-1.82-2.18-2.58a17.1,17.1,0,0,1-1.5-2.18,8.46,8.46,0,0,1-.86-2.1,9.51,9.51,0,0,1-.27-2.36v-.09a8.8,8.8,0,0,1,.53-3.12,7,7,0,0,1,1.46-2.37,6.32,6.32,0,0,1,2.22-1.5,7.17,7.17,0,0,1,2.78-.54,11.43,11.43,0,0,1,2.5.23,9.49,9.49,0,0,1,1.94.67v5.22a13.35,13.35,0,0,0-2-1,4.82,4.82,0,0,0-1.81-.32,2.74,2.74,0,0,0-1.83.64,2.26,2.26,0,0,0-.76,1.83v.08a3.72,3.72,0,0,0,.11.91,2.65,2.65,0,0,0,.41.88,11.52,11.52,0,0,0,.84,1.13c.36.44.84,1,1.44,1.69,1,1.15,1.79,2.15,2.42,3a13.76,13.76,0,0,1,1.46,2.32,9.37,9.37,0,0,1,.72,2.08,11,11,0,0,1,.21,2.24v.09a8.28,8.28,0,0,1-.56,3.08,7,7,0,0,1-1.52,2.39,6.58,6.58,0,0,1-2.26,1.52A7.12,7.12,0,0,1,175.59,316Zm9-29h5v28.76h-5Zm16.72,29a8.13,8.13,0,0,1-3.55-.8,8,8,0,0,1-2.92-2.49,12.71,12.71,0,0,1-2-4.35,25.2,25.2,0,0,1-.72-6.46v-1a23.88,23.88,0,0,1,.7-6.13,13.08,13.08,0,0,1,2-4.39,8.59,8.59,0,0,1,3-2.68,8.48,8.48,0,0,1,3.9-.9,9.07,9.07,0,0,1,2.1.23,9.24,9.24,0,0,1,1.73.59v5.22a11.15,11.15,0,0,0-1.81-.93,4.94,4.94,0,0,0-1.85-.34,3.81,3.81,0,0,0-3.43,2.2q-1.26,2.21-1.26,6.9v1.4a24.14,24.14,0,0,0,.37,4.63,9.16,9.16,0,0,0,1,2.82,3.56,3.56,0,0,0,1.38,1.42,3.22,3.22,0,0,0,1.54.4h.18l.27-.05v-7.35h-2.47v-4.48h7v15.29a20.38,20.38,0,0,1-2.57.9A10.07,10.07,0,0,1,201.27,316Zm8-29h5v11.91h4.36V287h5v28.76h-5V303.68h-4.36v12.08h-5Zm20,4.76h-3.53V287h12.08v4.76h-3.54v24h-5ZM244.38,316a11,11,0,0,1-2.75-.33,12.19,12.19,0,0,1-2.34-.86v-5.22a15.12,15.12,0,0,0,2.4,1.22,5.88,5.88,0,0,0,2.12.42,3.16,3.16,0,0,0,1.87-.57,2.2,2.2,0,0,0,.8-1.9v-.08a5.23,5.23,0,0,0-.1-1,4.15,4.15,0,0,0-.41-1,12.19,12.19,0,0,0-.85-1.27c-.35-.48-.83-1.07-1.44-1.75-.85-1-1.57-1.82-2.17-2.58a15.26,15.26,0,0,1-1.5-2.18,8.51,8.51,0,0,1-.87-2.1,9.53,9.53,0,0,1-.26-2.36v-.09a8.58,8.58,0,0,1,.53-3.12,6.88,6.88,0,0,1,1.46-2.37,6.32,6.32,0,0,1,2.22-1.5,7.12,7.12,0,0,1,2.77-.54,11.53,11.53,0,0,1,2.51.23,9.21,9.21,0,0,1,1.93.67v5.22a12.86,12.86,0,0,0-2-1,4.82,4.82,0,0,0-1.81-.32,2.74,2.74,0,0,0-1.83.64,2.23,2.23,0,0,0-.76,1.83v.08a3.73,3.73,0,0,0,.1.91,3.12,3.12,0,0,0,.41.88,13.83,13.83,0,0,0,.85,1.13c.35.44.83,1,1.43,1.69,1,1.15,1.8,2.15,2.43,3a13.76,13.76,0,0,1,1.46,2.32,9.37,9.37,0,0,1,.72,2.08,11.81,11.81,0,0,1,.2,2.24v.09a8.27,8.27,0,0,1-.55,3.08,7.14,7.14,0,0,1-1.52,2.39,6.67,6.67,0,0,1-2.26,1.52A7.17,7.17,0,0,1,244.38,316Zm8.88-29h11v4.76h-6v7.15h5.31v4.77h-5.31V311h6.13v4.76H253.26Zm13.56,0h11v4.76h-6v7.15h5.3v4.77h-5.3V311H278v4.76H266.82Zm13.65,0h5v28.76h-5Zm8,0h4.68l5.06,14.54V287h4.85v28.76h-4.44l-5.3-15.24v15.24h-4.85Zm26.26,29a8.13,8.13,0,0,1-3.55-.8,7.89,7.89,0,0,1-2.92-2.49,12.53,12.53,0,0,1-2-4.35,25.2,25.2,0,0,1-.72-6.46v-1a24.36,24.36,0,0,1,.69-6.13,13.28,13.28,0,0,1,2-4.39,8.59,8.59,0,0,1,3-2.68,8.48,8.48,0,0,1,3.9-.9,9.07,9.07,0,0,1,2.1.23,9.5,9.5,0,0,1,1.73.59v5.22a11.57,11.57,0,0,0-1.81-.93,5,5,0,0,0-1.85-.34,3.8,3.8,0,0,0-3.43,2.2q-1.26,2.21-1.26,6.9v1.4a24.14,24.14,0,0,0,.37,4.63,9.16,9.16,0,0,0,1,2.82,3.56,3.56,0,0,0,1.38,1.42,3.22,3.22,0,0,0,1.54.4h.18l.27-.05v-7.35H313v-4.48h7v15.29a20.38,20.38,0,0,1-2.57.9A10.07,10.07,0,0,1,314.78,316Zm-34.29,3.34h3.18a8.4,8.4,0,0,1,2.67.4,5.74,5.74,0,0,1,2.08,1.24,5.55,5.55,0,0,1,1.36,2.14,9,9,0,0,1,.48,3.09v.06a9.5,9.5,0,0,1-.45,3.05,5.93,5.93,0,0,1-1.28,2.21,5.28,5.28,0,0,1-2,1.34,6.51,6.51,0,0,1-2.48.46h0v6.41h-3.56Zm3.6,10.7a2.36,2.36,0,0,0,1.86-.9,4.14,4.14,0,0,0,.76-2.75v-.06a4.69,4.69,0,0,0-.69-2.83,2.24,2.24,0,0,0-1.85-.87h-.12V330Zm9.46-10.77h3.79l3.89,20.45h-3.55l-.68-4.05h-3.23l-.64,4.05h-3.44Zm2.93,13.2-1.09-6.73-1.1,6.73Zm9,7.4a7.55,7.55,0,0,1-1.95-.24,7.4,7.4,0,0,1-1.66-.61v-3.7a10.64,10.64,0,0,0,1.71.87,3.88,3.88,0,0,0,1.5.29,2.14,2.14,0,0,0,1.32-.41,1.53,1.53,0,0,0,.57-1.34v-.06a3.08,3.08,0,0,0-.07-.68,2.84,2.84,0,0,0-.29-.73,8.76,8.76,0,0,0-.6-.91c-.26-.34-.6-.75-1-1.24-.61-.68-1.12-1.29-1.55-1.82a12.78,12.78,0,0,1-1.07-1.55,6.18,6.18,0,0,1-.61-1.48,6.69,6.69,0,0,1-.19-1.68v-.06a6,6,0,0,1,.38-2.22,4.9,4.9,0,0,1,1-1.68,4.66,4.66,0,0,1,1.57-1.07,5.16,5.16,0,0,1,2-.38,8,8,0,0,1,1.78.16,7.21,7.21,0,0,1,1.37.48v3.7a9.25,9.25,0,0,0-1.43-.73,3.51,3.51,0,0,0-1.28-.23,2,2,0,0,0-1.3.45,1.62,1.62,0,0,0-.54,1.3v.06a2.63,2.63,0,0,0,.08.65,2,2,0,0,0,.29.62c.15.23.35.49.6.81s.59.7,1,1.19c.7.82,1.27,1.52,1.72,2.12a10.39,10.39,0,0,1,1,1.64,6.68,6.68,0,0,1,.51,1.48,7.81,7.81,0,0,1,.15,1.59v.06a5.93,5.93,0,0,1-.39,2.19,5.32,5.32,0,0,1-1.08,1.69,4.71,4.71,0,0,1-1.6,1.08A5.17,5.17,0,0,1,305.49,339.84Zm9.47,0a8.14,8.14,0,0,1-3.61-.85v-3.7a11.07,11.07,0,0,0,1.71.87,4.13,4.13,0,0,0,1.5.3,2.3,2.3,0,0,0,1.33-.41,1.56,1.56,0,0,0,.56-1.35v-.06a3.08,3.08,0,0,0-.07-.68,2.84,2.84,0,0,0-.29-.73,10,10,0,0,0-.6-.91c-.25-.34-.59-.75-1-1.24-.6-.68-1.12-1.28-1.55-1.82a11,11,0,0,1-1.06-1.55,5.84,5.84,0,0,1-.62-1.48,7.19,7.19,0,0,1-.19-1.68v-.06a6.23,6.23,0,0,1,.38-2.22,4.9,4.9,0,0,1,1-1.68,4.66,4.66,0,0,1,1.57-1.07,5.2,5.2,0,0,1,2-.38,8,8,0,0,1,1.78.16,7,7,0,0,1,1.37.48v3.7a9.25,9.25,0,0,0-1.43-.73,3.47,3.47,0,0,0-1.28-.23,1.93,1.93,0,0,0-1.3.46,1.61,1.61,0,0,0-.53,1.29v.06a2.64,2.64,0,0,0,.07.65,2.27,2.27,0,0,0,.29.62c.15.23.35.49.6.81s.59.71,1,1.19c.7.82,1.28,1.52,1.72,2.12a9.37,9.37,0,0,1,1,1.65,6.44,6.44,0,0,1,.51,1.47,7.81,7.81,0,0,1,.15,1.59v.06a5.93,5.93,0,0,1-.39,2.19,5,5,0,0,1-1.08,1.69,4.62,4.62,0,0,1-1.6,1.08A5,5,0,0,1,315,339.83Z"/></clipPath><linearGradient id="linear-gradient-25" x1="257.83" y1="-314.89" x2="459.48" y2="-484.09" gradientTransform="translate(114.71 686.9) rotate(-35.62)" xlink:href="#linear-gradient-3"/><clipPath id="clip-path-12"><path class="cls-1" d="M341.62,272.4H340v-2.18h5.54v2.18h-1.62v11h-2.3Zm4.88-2.18h2.29v5.46h2v-5.46h2.29V283.4h-2.29v-5.54h-2v5.54H346.5Zm7.94,0h5.05v2.18h-2.75v3.28h2.43v2.18h-2.43v3.35h2.8v2.19h-5.1ZM345.59,316a11,11,0,0,1-2.76-.33,12.19,12.19,0,0,1-2.34-.86v-5.22a15.62,15.62,0,0,0,2.41,1.22,5.83,5.83,0,0,0,2.11.42,3.14,3.14,0,0,0,1.87-.57,2.17,2.17,0,0,0,.8-1.9v-.08a4.5,4.5,0,0,0-.1-1,4.15,4.15,0,0,0-.41-1,13.69,13.69,0,0,0-.84-1.27c-.36-.48-.84-1.07-1.44-1.75-.85-1-1.58-1.82-2.18-2.58a17.1,17.1,0,0,1-1.5-2.18,8.46,8.46,0,0,1-.86-2.1,9.51,9.51,0,0,1-.27-2.36v-.09a8.8,8.8,0,0,1,.53-3.12,7,7,0,0,1,1.46-2.37,6.32,6.32,0,0,1,2.22-1.5,7.17,7.17,0,0,1,2.78-.54,11.43,11.43,0,0,1,2.5.23,9.49,9.49,0,0,1,1.94.67v5.22a13.35,13.35,0,0,0-2-1,4.82,4.82,0,0,0-1.81-.32,2.74,2.74,0,0,0-1.83.64,2.26,2.26,0,0,0-.76,1.83v.08a3.72,3.72,0,0,0,.11.91,2.65,2.65,0,0,0,.41.88,11.52,11.52,0,0,0,.84,1.13c.36.44.84,1,1.44,1.69,1,1.15,1.79,2.15,2.42,3a13.76,13.76,0,0,1,1.46,2.32,9.37,9.37,0,0,1,.72,2.08,11,11,0,0,1,.21,2.24v.09a8.28,8.28,0,0,1-.56,3.08,7,7,0,0,1-1.52,2.39,6.58,6.58,0,0,1-2.26,1.52A7.12,7.12,0,0,1,345.59,316Zm9-29h5v28.76h-5Zm16.72,29a8.13,8.13,0,0,1-3.55-.8,8,8,0,0,1-2.92-2.49,12.71,12.71,0,0,1-2-4.35,25.2,25.2,0,0,1-.72-6.46v-1a23.88,23.88,0,0,1,.7-6.13,13.08,13.08,0,0,1,2-4.39,8.59,8.59,0,0,1,3-2.68,8.48,8.48,0,0,1,3.9-.9,9.07,9.07,0,0,1,2.1.23,9.24,9.24,0,0,1,1.73.59v5.22a11.15,11.15,0,0,0-1.81-.93,4.94,4.94,0,0,0-1.85-.34,3.81,3.81,0,0,0-3.43,2.2q-1.26,2.21-1.26,6.9v1.4a24.14,24.14,0,0,0,.37,4.63,9.16,9.16,0,0,0,1,2.82,3.56,3.56,0,0,0,1.38,1.42,3.22,3.22,0,0,0,1.54.4h.18l.27-.05v-7.35h-2.47v-4.48h7v15.29a20.38,20.38,0,0,1-2.57.9A10.07,10.07,0,0,1,371.27,316Zm8-29h5v11.91h4.36V287h5v28.76h-5V303.68h-4.36v12.08h-5Zm20,4.76h-3.53V287h12.08v4.76h-3.54v24h-5ZM414.38,316a11,11,0,0,1-2.75-.33,12.19,12.19,0,0,1-2.34-.86v-5.22a15.12,15.12,0,0,0,2.4,1.22,5.88,5.88,0,0,0,2.12.42,3.16,3.16,0,0,0,1.87-.57,2.2,2.2,0,0,0,.8-1.9v-.08a5.23,5.23,0,0,0-.1-1,4.15,4.15,0,0,0-.41-1,12.19,12.19,0,0,0-.85-1.27c-.35-.48-.83-1.07-1.44-1.75-.85-1-1.57-1.82-2.17-2.58a15.26,15.26,0,0,1-1.5-2.18,8.51,8.51,0,0,1-.87-2.1,9.53,9.53,0,0,1-.26-2.36v-.09a8.58,8.58,0,0,1,.53-3.12,6.88,6.88,0,0,1,1.46-2.37,6.32,6.32,0,0,1,2.22-1.5,7.12,7.12,0,0,1,2.77-.54,11.53,11.53,0,0,1,2.51.23,9.21,9.21,0,0,1,1.93.67v5.22a12.86,12.86,0,0,0-2-1,4.82,4.82,0,0,0-1.81-.32,2.74,2.74,0,0,0-1.83.64,2.23,2.23,0,0,0-.76,1.83v.08a3.73,3.73,0,0,0,.1.91,3.12,3.12,0,0,0,.41.88,13.83,13.83,0,0,0,.85,1.13c.35.44.83,1,1.43,1.69,1,1.15,1.8,2.15,2.43,3a13.76,13.76,0,0,1,1.46,2.32,9.37,9.37,0,0,1,.72,2.08,11.81,11.81,0,0,1,.2,2.24v.09a8.27,8.27,0,0,1-.55,3.08,7.14,7.14,0,0,1-1.52,2.39,6.67,6.67,0,0,1-2.26,1.52A7.17,7.17,0,0,1,414.38,316Zm8.88-29h11v4.76h-6v7.15h5.31v4.77h-5.31V311h6.13v4.76H423.26Zm13.56,0h11v4.76h-6v7.15h5.3v4.77h-5.3V311H448v4.76H436.82Zm13.65,0h5v28.76h-5Zm8,0h4.68l5.06,14.54V287h4.85v28.76h-4.44l-5.3-15.24v15.24h-4.85Zm26.26,29a8.13,8.13,0,0,1-3.55-.8,7.89,7.89,0,0,1-2.92-2.49,12.53,12.53,0,0,1-2-4.35,25.2,25.2,0,0,1-.72-6.46v-1a24.36,24.36,0,0,1,.69-6.13,13.28,13.28,0,0,1,2-4.39,8.59,8.59,0,0,1,3-2.68,8.48,8.48,0,0,1,3.9-.9,9.07,9.07,0,0,1,2.1.23,9.5,9.5,0,0,1,1.73.59v5.22a11.57,11.57,0,0,0-1.81-.93,5,5,0,0,0-1.85-.34,3.8,3.8,0,0,0-3.43,2.2q-1.26,2.21-1.26,6.9v1.4a24.14,24.14,0,0,0,.37,4.63,9.16,9.16,0,0,0,1,2.82,3.56,3.56,0,0,0,1.38,1.42,3.22,3.22,0,0,0,1.54.4h.18l.27-.05v-7.35H483v-4.48h7v15.29a20.38,20.38,0,0,1-2.57.9A10.07,10.07,0,0,1,484.78,316Zm-34.29,3.34h3.18a8.4,8.4,0,0,1,2.67.4,5.74,5.74,0,0,1,2.08,1.24,5.55,5.55,0,0,1,1.36,2.14,9,9,0,0,1,.48,3.09v.06a9.5,9.5,0,0,1-.45,3.05,5.93,5.93,0,0,1-1.28,2.21,5.28,5.28,0,0,1-2,1.34,6.51,6.51,0,0,1-2.48.46h0v6.41h-3.56Zm3.6,10.7a2.36,2.36,0,0,0,1.86-.9,4.14,4.14,0,0,0,.76-2.75v-.06a4.69,4.69,0,0,0-.69-2.83,2.24,2.24,0,0,0-1.85-.87h-.12V330Zm9.46-10.77h3.79l3.89,20.45h-3.55l-.68-4.05h-3.23l-.64,4.05h-3.44Zm2.93,13.2-1.09-6.73-1.1,6.73Zm9,7.4a7.55,7.55,0,0,1-1.95-.24,7.4,7.4,0,0,1-1.66-.61v-3.7a10.64,10.64,0,0,0,1.71.87,3.88,3.88,0,0,0,1.5.29,2.14,2.14,0,0,0,1.32-.41,1.53,1.53,0,0,0,.57-1.34v-.06a3.08,3.08,0,0,0-.07-.68,2.84,2.84,0,0,0-.29-.73,8.76,8.76,0,0,0-.6-.91c-.26-.34-.6-.75-1-1.24-.61-.68-1.12-1.29-1.55-1.82a12.78,12.78,0,0,1-1.07-1.55,6.18,6.18,0,0,1-.61-1.48,6.69,6.69,0,0,1-.19-1.68v-.06a6,6,0,0,1,.38-2.22,4.9,4.9,0,0,1,1-1.68,4.66,4.66,0,0,1,1.57-1.07,5.16,5.16,0,0,1,2-.38,8,8,0,0,1,1.78.16,7.21,7.21,0,0,1,1.37.48v3.7a9.25,9.25,0,0,0-1.43-.73,3.51,3.51,0,0,0-1.28-.23,2,2,0,0,0-1.3.45,1.62,1.62,0,0,0-.54,1.3v.06a2.63,2.63,0,0,0,.08.65,2,2,0,0,0,.29.62c.15.23.35.49.6.81s.59.7,1,1.19c.7.82,1.27,1.52,1.72,2.12a10.39,10.39,0,0,1,1,1.64,6.68,6.68,0,0,1,.51,1.48,7.81,7.81,0,0,1,.15,1.59v.06a5.93,5.93,0,0,1-.39,2.19,5.32,5.32,0,0,1-1.08,1.69,4.71,4.71,0,0,1-1.6,1.08A5.17,5.17,0,0,1,475.49,339.84Zm9.47,0a8.14,8.14,0,0,1-3.61-.85v-3.7a11.07,11.07,0,0,0,1.71.87,4.13,4.13,0,0,0,1.5.3,2.3,2.3,0,0,0,1.33-.41,1.56,1.56,0,0,0,.56-1.35v-.06a3.08,3.08,0,0,0-.07-.68,2.84,2.84,0,0,0-.29-.73,10,10,0,0,0-.6-.91c-.25-.34-.59-.75-1-1.24-.6-.68-1.12-1.28-1.55-1.82a11,11,0,0,1-1.06-1.55,5.84,5.84,0,0,1-.62-1.48,7.19,7.19,0,0,1-.19-1.68v-.06a6.23,6.23,0,0,1,.38-2.22,4.9,4.9,0,0,1,1-1.68,4.66,4.66,0,0,1,1.57-1.07,5.2,5.2,0,0,1,2-.38,8,8,0,0,1,1.78.16,7,7,0,0,1,1.37.48v3.7a9.25,9.25,0,0,0-1.43-.73,3.47,3.47,0,0,0-1.28-.23,1.93,1.93,0,0,0-1.3.46,1.61,1.61,0,0,0-.53,1.29v.06a2.64,2.64,0,0,0,.07.65,2.27,2.27,0,0,0,.29.62c.15.23.35.49.6.81s.59.71,1,1.19c.7.82,1.28,1.52,1.72,2.12a9.37,9.37,0,0,1,1,1.65,6.44,6.44,0,0,1,.51,1.47,7.81,7.81,0,0,1,.15,1.59v.06a5.93,5.93,0,0,1-.39,2.19,5,5,0,0,1-1.08,1.69,4.62,4.62,0,0,1-1.6,1.08A5,5,0,0,1,485,339.83Z"/></clipPath></defs><title>sightseeing-logo-colour</title><g class="cls-2"><ellipse class="cls-3" cx="164.97" cy="37.16" rx="168" ry="108.22" transform="translate(22.04 127.54) rotate(-45)"/><ellipse class="cls-4" cx="192.94" cy="-10.51" rx="119.36" ry="149.58"/><ellipse class="cls-5" cx="198.38" cy="30.59" rx="69.17" ry="136.66" transform="translate(19.24 121.13) rotate(-35.58)"/><ellipse class="cls-6" cx="-22.14" cy="91.21" rx="119.36" ry="149.58"/><path class="cls-7" d="M83.44-174c54,75.41,62.09,162.16,18,193.76-23.08,16.53-55.85,14.7-89.6-1.61-.4-.19.11-1-.29-1.16s-1.88.1-2.36-.14Q6,15.29,2.84,13.53c-.27-.15-1,.38-1.25.23s-.08-1-.34-1.13C-26.09-2.93-53.47-27.67-76.3-59.52c-54-75.4-62.09-162.15-18-193.75S29.4-249.36,83.44-174Z"/></g><g class="cls-8"><ellipse class="cls-9" cx="50.26" cy="-16.14" rx="108.1" ry="167.97"/><ellipse class="cls-10" cx="147.86" cy="91.21" rx="119.36" ry="149.58"/><path class="cls-11" d="M253.44-174c54,75.41,62.09,162.16,18,193.76-23.08,16.53-55.85,14.7-89.6-1.61-.4-.19.11-1-.29-1.16s-1.88.1-2.36-.14q-3.16-1.61-6.33-3.36c-.27-.15-1,.38-1.25.23s-.08-1-.34-1.13C143.91-2.93,116.53-27.67,93.7-59.52c-54-75.4-62.09-162.15-18-193.75S199.4-249.36,253.44-174Z"/></g><g class="cls-12"><ellipse class="cls-13" cx="220.26" cy="-16.14" rx="108.1" ry="167.97"/></g><g class="cls-14"><ellipse class="cls-15" cx="164.97" cy="127.16" rx="168" ry="108.22" transform="translate(-41.6 153.9) rotate(-45)"/><ellipse class="cls-16" cx="192.94" cy="79.49" rx="119.36" ry="149.58"/><ellipse class="cls-17" cx="198.38" cy="120.59" rx="69.17" ry="136.66" transform="translate(-33.13 137.94) rotate(-35.58)"/><ellipse class="cls-18" cx="-22.14" cy="181.21" rx="119.36" ry="149.58"/><path class="cls-19" d="M83.44-84c54,75.41,62.09,162.16,18,193.76-23.08,16.53-55.85,14.7-89.6-1.61-.4-.19.11-1-.29-1.16s-1.88.1-2.36-.14Q6,105.29,2.84,103.53c-.27-.15-1,.38-1.25.23s-.08-1-.34-1.13C-26.09,87.07-53.47,62.33-76.3,30.48c-54-75.4-62.09-162.15-18-193.75S29.4-159.36,83.44-84Z"/></g><g class="cls-20"><ellipse class="cls-21" cx="50.26" cy="73.86" rx="108.1" ry="167.97"/><ellipse class="cls-22" cx="147.86" cy="181.21" rx="119.36" ry="149.58"/><path class="cls-23" d="M253.44-84c54,75.41,62.09,162.16,18,193.76-23.08,16.53-55.85,14.7-89.6-1.61-.4-.19.11-1-.29-1.16s-1.88.1-2.36-.14q-3.16-1.61-6.33-3.36c-.27-.15-1,.38-1.25.23s-.08-1-.34-1.13c-27.34-15.56-54.72-40.3-77.55-72.15-54-75.4-62.09-162.15-18-193.75S199.4-159.36,253.44-84Z"/></g><g class="cls-24"><ellipse class="cls-25" cx="220.26" cy="73.86" rx="108.1" ry="167.97"/></g><g class="cls-26"><ellipse class="cls-27" cx="192.94" cy="169.49" rx="119.36" ry="149.58"/><path class="cls-28" d="M83.44,6c54,75.41,62.09,162.16,18,193.76-23.08,16.53-55.85,14.7-89.6-1.61-.4-.19.11-1-.29-1.16s-1.88.1-2.36-.14q-3.17-1.6-6.33-3.36c-.27-.15-1,.38-1.25.23s-.08-1-.34-1.13c-27.34-15.56-54.72-40.3-77.55-72.15-54-75.4-62.09-162.15-18-193.75S29.4-69.36,83.44,6Z"/></g><g class="cls-29"><ellipse class="cls-30" cx="50.26" cy="163.86" rx="108.1" ry="167.97"/><path class="cls-31" d="M253.44,6c54,75.41,62.09,162.16,18,193.76-23.08,16.53-55.85,14.7-89.6-1.61-.4-.19.11-1-.29-1.16s-1.88.1-2.36-.14q-3.16-1.6-6.33-3.36c-.27-.15-1,.38-1.25.23s-.08-1-.34-1.13c-27.34-15.56-54.72-40.3-77.55-72.15-54-75.4-62.09-162.15-18-193.75S199.4-69.36,253.44,6Z"/></g><g class="cls-32"><ellipse class="cls-33" cx="220.26" cy="163.86" rx="108.1" ry="167.97"/></g><g class="cls-34"><path class="cls-35" d="M83.44,96c54,75.41,62.09,162.16,18,193.76-23.08,16.53-55.85,14.7-89.6-1.61-.4-.19.11-1-.29-1.16s-1.88.1-2.36-.14Q6,285.28,2.84,283.53c-.27-.15-1,.38-1.25.23s-.08-1-.34-1.13c-27.34-15.56-54.72-40.3-77.55-72.15-54-75.4-62.09-162.15-18-193.75S29.4,20.64,83.44,96Z"/></g><g class="cls-36"><path class="cls-37" d="M253.44,96c54,75.41,62.09,162.16,18,193.76-23.08,16.53-55.85,14.7-89.6-1.61-.4-.19.11-1-.29-1.16s-1.88.1-2.36-.14q-3.16-1.61-6.33-3.36c-.27-.15-1,.38-1.25.23s-.08-1-.34-1.13c-27.34-15.56-54.72-40.3-77.55-72.15-54-75.4-62.09-162.15-18-193.75S199.4,20.64,253.44,96Z"/></g></svg>