<svg xmlns="http://www.w3.org/2000/svg" version="1.1" xmlns:xlink="http://www.w3.org/1999/xlink" width="512" height="512" x="0" y="0" viewBox="0 0 512 512" style="enable-background:new 0 0 512 512" xml:space="preserve" class=""><g><path d="M107.318 455.132C148.779 486.138 200.245 504.5 256 504.5c137.243 0 248.5-111.257 248.5-248.5S393.243 7.5 256 7.5 7.5 118.757 7.5 256c0 68.621 27.814 130.746 72.784 175.716" style="stroke-width:15;stroke-linecap:round;stroke-linejoin:round;stroke-miterlimit:10;" fill="none" stroke="#000" stroke-width="15" stroke-linecap="round" stroke-linejoin="round" stroke-miterlimit="10" data-original="#000" opacity="1" class=""></path><path d="M325.226 92.13c-21.277-8.999-44.67-13.976-69.226-13.976-98.222 0-177.846 79.624-177.846 177.846S157.778 433.846 256 433.846 433.846 354.222 433.846 256c0-60.999-30.71-114.826-77.513-146.862M333.833 221.062v71.45M369.133 256.362h-71.45" style="stroke-width:15;stroke-linecap:round;stroke-linejoin:round;stroke-miterlimit:10;" fill="none" stroke="#000" stroke-width="15" stroke-linecap="round" stroke-linejoin="round" stroke-miterlimit="10" data-original="#000" opacity="1" class=""></path><path d="M142.867 202.744h23.102V310.83" style="stroke-width:15;stroke-linecap:round;stroke-linejoin:round;stroke-miterlimit:10;" fill="none" stroke="#000" stroke-width="15" stroke-linecap="round" stroke-linejoin="round" stroke-miterlimit="10" data-original="#000" opacity="1" class=""></path><circle cx="234.439" cy="278" r="31.256" style="stroke-width:15;stroke-linecap:round;stroke-linejoin:round;stroke-miterlimit:10;" fill="none" stroke="#000" stroke-width="15" stroke-linecap="round" stroke-linejoin="round" stroke-miterlimit="10" data-original="#000" opacity="1" class=""></circle><circle cx="234.439" cy="223.957" r="22.787" style="stroke-width:15;stroke-linecap:round;stroke-linejoin:round;stroke-miterlimit:10;" transform="rotate(-76.585 234.436 223.96)" fill="none" stroke="#000" stroke-width="15" stroke-linecap="round" stroke-linejoin="round" stroke-miterlimit="10" data-original="#000" opacity="1" class=""></circle></g></svg>