<svg xmlns="http://www.w3.org/2000/svg" version="1.1" xmlns:xlink="http://www.w3.org/1999/xlink" width="512" height="512" x="0" y="0" viewBox="0 0 512 512" style="enable-background:new 0 0 512 512" xml:space="preserve" class=""><g><path d="M437.02 74.98C388.667 26.629 324.38 0 256 0S123.333 26.629 74.98 74.98C26.629 123.333 0 187.62 0 256s26.629 132.667 74.98 181.02C123.333 485.371 187.62 512 256 512s132.667-26.629 181.02-74.98C485.371 388.667 512 324.38 512 256s-26.629-132.667-74.98-181.02zm-10.607 351.433C380.894 471.932 320.374 497 256 497s-124.894-25.068-170.413-70.587C40.068 380.894 15 320.374 15 256S40.068 131.106 85.587 85.587C131.106 40.068 191.626 15 256 15s124.894 25.068 170.413 70.587C471.932 131.106 497 191.626 497 256s-25.068 124.894-70.587 170.413z" fill="#000" opacity="1" data-original="#fff" class=""></path><path d="M396.495 92.028c-41.178-35.356-93.819-53.755-148.261-51.81-54.713 1.957-106.178 24.367-144.913 63.103-38.736 38.735-61.146 90.201-63.103 144.915-1.947 54.43 16.454 107.084 51.813 148.263a7.48 7.48 0 0 0 5.693 2.614 7.469 7.469 0 0 0 4.882-1.81 7.499 7.499 0 0 0 .804-10.576c-32.892-38.309-50.012-87.302-48.2-137.954 1.821-50.911 22.674-98.8 58.719-134.845 36.044-36.044 83.932-56.897 134.842-58.719 50.656-1.812 99.644 15.306 137.953 48.199a7.5 7.5 0 0 0 9.771-11.38zM419.971 115.504a7.5 7.5 0 0 0-10.576-.804 7.5 7.5 0 0 0-.805 10.576c32.894 38.31 50.012 87.303 48.2 137.953-1.821 50.911-22.674 98.798-58.718 134.842-36.045 36.045-83.934 56.898-134.845 58.719-50.655 1.808-99.645-15.307-137.955-48.203a7.5 7.5 0 0 0-9.772 11.381c39.203 33.662 88.799 51.955 140.434 51.953 2.602 0 5.217-.047 7.828-.14 54.714-1.957 106.18-24.367 144.916-63.103 38.735-38.734 61.146-90.199 63.103-144.913 1.947-54.429-16.453-107.082-51.81-148.261z" fill="#000" opacity="1" data-original="#fff" class=""></path><path d="M256 72.146a7.5 7.5 0 0 0-7.5 7.5v24.048a7.5 7.5 0 0 0 7.5 7.499 7.5 7.5 0 0 0 7.5-7.5V79.646a7.5 7.5 0 0 0-7.5-7.5zM256 400.807a7.5 7.5 0 0 0-7.5 7.5v24.048a7.5 7.5 0 0 0 7.5 7.5 7.5 7.5 0 0 0 7.5-7.5v-24.048a7.5 7.5 0 0 0-7.5-7.5zM432.355 248.5h-24.048a7.5 7.5 0 0 0 0 15h24.048a7.5 7.5 0 0 0 0-15zM103.693 248.5H79.645a7.5 7.5 0 0 0 0 15h24.048a7.5 7.5 0 0 0 0-15zM120.907 169.344l-13.884-8.017a7.5 7.5 0 0 0-7.5 12.99l13.884 8.017a7.497 7.497 0 0 0 10.245-2.745 7.5 7.5 0 0 0-2.745-10.245zM412.477 337.683l-13.884-8.017a7.5 7.5 0 0 0-7.5 12.99l13.884 8.017a7.497 7.497 0 0 0 10.245-2.745 7.5 7.5 0 0 0-2.745-10.245zM347.927 96.778a7.498 7.498 0 0 0-10.245 2.745l-8.016 13.884a7.5 7.5 0 0 0 12.99 7.5l8.016-13.884a7.5 7.5 0 0 0-2.745-10.245zM179.589 388.349a7.498 7.498 0 0 0-10.245 2.745l-8.016 13.884a7.5 7.5 0 0 0 12.99 7.5l8.016-13.884a7.5 7.5 0 0 0-2.745-10.245zM415.223 164.072a7.501 7.501 0 0 0-10.245-2.745l-13.884 8.017a7.5 7.5 0 0 0 7.5 12.99l13.884-8.017a7.5 7.5 0 0 0 2.745-10.245zM123.652 332.411a7.5 7.5 0 0 0-10.245-2.745l-13.884 8.017a7.5 7.5 0 0 0 7.5 12.99l13.884-8.017a7.5 7.5 0 0 0 2.745-10.245zM182.334 113.406l-8.016-13.884a7.5 7.5 0 0 0-12.99 7.5l8.016 13.884a7.497 7.497 0 0 0 10.245 2.745 7.5 7.5 0 0 0 2.745-10.245zM350.672 404.978l-8.016-13.884a7.5 7.5 0 0 0-12.99 7.5l8.016 13.884a7.497 7.497 0 0 0 10.245 2.745 7.5 7.5 0 0 0 2.745-10.245zM360.209 248.5H278.3a23.637 23.637 0 0 0-14.8-14.8v-97.942a7.5 7.5 0 0 0-15 0V233.7a23.64 23.64 0 0 0-14.8 14.8h-9.765a7.5 7.5 0 0 0 0 15h9.765a23.637 23.637 0 0 0 14.8 14.8v9.765a7.5 7.5 0 0 0 15 0V278.3a23.64 23.64 0 0 0 14.8-14.8h81.91a7.5 7.5 0 0 0-.001-15zM256 264.532c-4.705 0-8.532-3.828-8.532-8.532 0-4.704 3.828-8.532 8.532-8.532s8.532 3.828 8.532 8.532-3.827 8.532-8.532 8.532z" fill="#000" opacity="1" data-original="#fff" class=""></path></g></svg>