<?xml version="1.0" encoding="UTF-8"?>
<svg id="Layer_2" data-name="Layer 2" xmlns="http://www.w3.org/2000/svg" viewBox="0 0 165.4 184.96">
  <defs>
    <style>
      .cls-1 {
        fill: #010101;
        stroke-width: 0px;
      }
    </style>
  </defs>
  <g id="Layer_1-2" data-name="Layer 1">
    <g>
      <path class="cls-1" d="m165.27,32.24c-.43-4.76-4.35-8.35-9.13-8.35h-23.18v-3.15h.31c3.41,0,6.19-2.77,6.19-6.19V6.19C139.45,2.78,136.68,0,133.27,0h-58.22c-1.57,0-2.85,1.28-2.85,2.85s1.28,2.85,2.85,2.85h58.22c.27,0,.49.22.49.49v8.38c0,.27-.22.49-.49.49h-3.15s0,0,0,0H35.3s0,0,0,0h-3.15c-.27,0-.49-.22-.49-.49V6.19c0-.27.22-.49.49-.49h19.79c1.57,0,2.85-1.28,2.85-2.85S53.5,0,51.93,0h-19.79C28.73,0,25.95,2.78,25.95,6.19v8.38c0,3.41,2.77,6.19,6.18,6.19h.31v3.15H9.26c-4.78,0-8.7,3.59-9.12,8.35-.05.61-1.28,15.21,4.71,31.4,5.42,14.67,17.95,33.67,46.79,41.12,4.61,3.64,9.87,6.49,15.58,8.35l1.34,2.21c2.56,4.23,3.91,9.22,3.91,14.45,0,3.19-.51,6.31-1.51,9.27l-1.86,5.47h-6.19c-6.54,0-11.85,5.32-11.85,11.85v5.52h-9.7c-2.86,0-5.18,2.33-5.18,5.18v12.71c0,2.86,2.33,5.18,5.18,5.18h82.69c2.86,0,5.18-2.33,5.18-5.18v-12.71c0-2.86-2.33-5.18-5.18-5.18h-9.7v-5.52c0-6.54-5.32-11.85-11.85-11.85h-6.19l-1.86-5.47c-1-2.96-1.51-6.08-1.51-9.27,0-5.23,1.35-10.22,3.91-14.45l1.34-2.21c5.71-1.85,10.97-4.71,15.58-8.35,28.83-7.45,41.36-26.44,46.79-41.12,5.97-16.14,4.76-30.78,4.71-31.4Zm-38.01-11.49v44.56c0,24.57-19.99,44.56-44.56,44.56s-44.56-19.99-44.56-44.56v-25.93s0,0,0,0,0,0,0,0v-12.6s0,0,0,0,0,0,0,0v-5.99h89.12Zm-93.89,54.12c-4.85-4.65-8.62-10.39-11.19-17.18-1.81-4.79-3.01-10-3.55-15.46h13.82v23.09c0,3.27.32,6.46.92,9.56Zm-23.18-13.2c-5.55-15-4.43-28.36-4.38-28.92.16-1.8,1.64-3.15,3.45-3.15h23.18v6.92h-14.2c-1.5,0-2.94.64-3.95,1.75-1.01,1.11-1.51,2.61-1.37,4.11.57,6.11,1.89,11.94,3.93,17.33,3.99,10.54,10.52,18.87,19.41,24.79,1.68,4.06,3.88,7.85,6.52,11.29-19.26-8.17-28.33-22.6-32.58-34.11Zm113.34,117.59H41.87v-11.67h81.66v11.67Zm-14.88-22.9v5.52h-51.89v-5.52c0-3.39,2.76-6.15,6.15-6.15h39.59c3.39,0,6.15,2.76,6.15,6.15Zm-19.59-15.49l1.24,3.64h-15.18l1.24-3.64c1.2-3.55,1.81-7.29,1.81-11.1,0-5.25-1.16-10.31-3.36-14.83,2.57.41,5.21.63,7.9.63s5.32-.22,7.9-.63c-2.19,4.51-3.36,9.58-3.36,14.83,0,3.82.61,7.55,1.81,11.1Zm66.16-79.2c-4.26,11.51-13.33,25.94-32.59,34.11,2.64-3.44,4.84-7.24,6.52-11.3,7.63-5.08,13.55-11.96,17.58-20.47.67-1.42.07-3.12-1.36-3.8-1.42-.67-3.12-.07-3.8,1.36-2.43,5.12-5.63,9.57-9.54,13.31.6-3.1.93-6.3.93-9.58v-23.09h13.82c-.27,2.72-.71,5.42-1.31,8.03-.35,1.53.6,3.06,2.14,3.42.21.05.43.07.64.07,1.3,0,2.47-.89,2.77-2.21.68-2.98,1.18-6.06,1.47-9.16.14-1.5-.36-2.99-1.37-4.11-1.01-1.11-2.45-1.75-3.95-1.75h-14.2v-6.92h23.18c1.81,0,3.29,1.36,3.45,3.15.05.56,1.15,13.97-4.38,28.92Z"/>
      <path class="cls-1" d="m66.85,69.25c.21.21.31.5.26.79l-1.33,7.73c-.43,2.49.58,4.96,2.62,6.45,1.16.84,2.51,1.27,3.87,1.27,1.05,0,2.1-.25,3.07-.76l6.94-3.65c.26-.14.57-.14.83,0l6.94,3.65c2.24,1.18,4.9.98,6.94-.5,2.04-1.49,3.05-3.96,2.62-6.45l-1.33-7.73c-.05-.29.05-.58.26-.79l5.61-5.47c1.81-1.76,2.45-4.35,1.67-6.76s-2.82-4.12-5.32-4.49l-7.76-1.13c-.29-.04-.54-.22-.67-.49l-3.47-7.03c-1.12-2.27-3.38-3.68-5.91-3.68h0c-2.53,0-4.79,1.41-5.91,3.68l-3.47,7.03c-.13.26-.38.45-.67.49l-7.76,1.13c-2.5.36-4.54,2.08-5.32,4.49s-.14,4.99,1.67,6.76l5.61,5.47Zm-1.86-10.47c.06-.2.24-.54.72-.61l7.76-1.13c2.15-.31,4-1.66,4.96-3.61l3.47-7.03c.21-.43.59-.5.8-.5s.59.06.8.5l3.47,7.03c.96,1.95,2.82,3.29,4.96,3.61l7.76,1.13c.48.07.66.41.72.61.06.2.12.58-.23.91l-5.61,5.47c-1.55,1.51-2.26,3.7-1.9,5.83l1.33,7.73c.08.48-.19.75-.36.87-.17.12-.51.29-.94.07l-6.94-3.65c-1.92-1.01-4.22-1.01-6.14,0l-6.94,3.65c-.43.23-.77.05-.94-.07-.17-.12-.44-.4-.36-.87l1.33-7.73c.37-2.14-.34-4.32-1.9-5.83l-5.61-5.47c-.35-.34-.29-.72-.23-.91Z"/>
      <path class="cls-1" d="m62.37,5.22c.15.1.32.19.49.26.17.07.35.13.54.17.18.03.37.05.55.05s.37-.02.56-.05c.18-.04.36-.1.53-.17.17-.07.34-.16.49-.26.16-.1.31-.22.44-.35.53-.53.83-1.27.83-2.02,0-.18-.02-.37-.05-.55-.04-.19-.1-.37-.17-.54-.07-.17-.16-.34-.26-.49-.1-.16-.22-.3-.35-.43-.13-.14-.28-.25-.44-.36-.15-.1-.32-.19-.49-.26s-.35-.13-.53-.16c-.37-.08-.75-.08-1.11,0-.19.03-.37.09-.54.16s-.34.16-.49.26c-.16.11-.3.22-.43.36-.14.13-.25.27-.36.43-.1.15-.19.32-.26.49-.07.17-.13.35-.16.54-.04.18-.06.37-.06.55,0,.75.31,1.49.84,2.02.13.13.27.25.43.35Z"/>
    </g>
  </g>
</svg>