<?xml version="1.0" encoding="UTF-8"?>
<svg id="Layer_2" data-name="Layer 2" xmlns="http://www.w3.org/2000/svg" viewBox="0 0 165.83 182.71">
  <defs>
    <style>
      .cls-1 {
        fill: #010101;
        stroke-width: 0px;
      }
    </style>
  </defs>
  <g id="Layer_1-2" data-name="Layer 1">
    <g>
      <path class="cls-1" d="m72.41,133.37c-.89-3.33-3.51-12.61-3.89-14.01-1.85-6.96-.54-12.4,1.11-19.3,1.96-8.18,4.4-18.36,1.84-34.18-2.41-15.13-10.32-28.7-20.65-35.42-6.93-4.51-14.63-5.84-22.26-3.81C8.2,32.05-6.86,60.37,3.2,98.44c1.62,6.09,19.96,61.14,21.76,66.34,3.76,10.92,14.12,17.93,25.22,17.93,2.24,0,4.52-.29,6.77-.89,12.98-3.42,21.4-16.05,19.58-29.38-.76-5.46-2.11-11.71-4.13-19.07h0ZM30.03,32.19c1.86-.49,3.71-.74,5.54-.74,4.16,0,8.22,1.28,12.13,3.82,9.01,5.87,15.96,17.95,18.12,31.53,2.37,14.7.18,23.86-1.76,31.94-1.69,7.07-3.29,13.74-1.07,22.11.39,1.43,2.52,9,3.13,11.24l-42.47,11.22c-.93-2.72-1.85-5.44-2.77-8.17l34.99-9.42c1.53-.41,2.43-1.98,2.02-3.51s-1.98-2.43-3.51-2.02l-35.33,9.51c-5.34-16.02-8.83-27.06-10.33-32.73C-.41,62.37,12.38,36.85,30.03,32.18h0Zm25.47,144.11c-10.54,2.81-21.58-3.08-25.13-13.39-1.51-4.36-3.18-9.19-4.87-14.18l42.11-11.12c1.55,5.93,2.64,11.1,3.27,15.62,1.43,10.46-5.18,20.38-15.37,23.07h0Z"/>
      <path class="cls-1" d="m23.72,107.15c1.51-.47,2.35-2.08,1.88-3.58-1.3-4.17-2.36-7.72-3.05-10.25-1.74-6.64-2.59-13.02-2.54-18.95.01-1.58-1.25-2.87-2.83-2.89h-.03c-1.57,0-2.85,1.26-2.86,2.83-.06,6.44.86,13.32,2.73,20.48.72,2.63,1.8,6.25,3.12,10.48.38,1.23,1.62,2.21,3.58,1.88h0Z"/>
      <path class="cls-1" d="m137.24.92c-7.61-2.02-15.29-.7-22.21,3.79-10.33,6.72-18.26,20.29-20.69,35.44-2.54,15.82-.09,25.99,1.86,34.17,1.66,6.89,2.96,12.34,1.12,19.29-.38,1.38-3.03,10.67-3.92,13.99-2.01,7.48-3.35,13.73-4.1,19.12-1.82,13.32,6.59,25.95,19.57,29.37,2.26.6,4.54.89,6.79.89,11.1,0,21.46-7.02,25.22-17.93,1.72-4.95,10.45-30.71,10.45-30.71,6.14-18.35,9.74-29.67,11.32-35.64,10.05-38.07-5.02-66.39-25.4-71.78h0Zm-26.91,149.64c-10.19-2.69-16.8-12.61-15.37-23.06.71-5.14,2.01-11.16,3.96-18.41.88-3.29,2.95-10.53,3.15-11.22l42.85,11.54-2.75,8.16-33.29-8.81c-1.54-.41-3.09.51-3.5,2.03-.4,1.53.51,3.09,2.03,3.5l32.91,8.71c-1.7,5-3.36,9.83-4.87,14.19-3.55,10.31-14.6,16.18-25.14,13.38h0Zm46.78-79.32c-1.46,5.48-4.87,16.25-10.36,32.73l-43.3-11.66c1.24-7.09-.18-13.06-1.68-19.32-1.94-8.08-4.13-17.24-1.78-31.93,2.18-13.6,9.14-25.68,18.17-31.54,3.89-2.53,7.94-3.8,12.09-3.8,1.83,0,3.67.25,5.53.74,17.66,4.67,30.47,30.18,21.33,64.79h0Z"/>
      <path class="cls-1" d="m140.76,85.65c1.8.45,3.21-.64,3.59-1.86,2.06-6.51,3.61-11.51,4.44-14.75,1.87-7.08,2.79-13.96,2.73-20.45-.01-1.57-1.29-2.83-2.86-2.83h-.03c-1.58.01-2.85,1.31-2.83,2.89.05,5.99-.8,12.36-2.54,18.97-.85,3.31-2.6,8.91-4.36,14.46-.48,1.5.35,3.11,1.86,3.59h0Z"/>
      <circle class="cls-1" cx="25.72" cy="114.38" r="2.86"/>
      <circle class="cls-1" cx="147.04" cy="37.17" r="2.86"/>
    </g>
  </g>
</svg>