<?xml version="1.0" encoding="UTF-8"?>
<svg id="Layer_2" data-name="Layer 2" xmlns="http://www.w3.org/2000/svg" viewBox="0 0 161.88 153.83">
  <defs>
    <style>
      .cls-1 {
        fill: #010101;
        stroke-width: 0px;
      }
    </style>
  </defs>
  <g id="Layer_1-2" data-name="Layer 1">
    <g>
      <path class="cls-1" d="m159.06,104.56c-1.56,0-2.82,1.27-2.82,2.82v.64c0,1.56,1.26,2.82,2.82,2.82s2.82-1.26,2.82-2.82v-.64c0-1.56-1.27-2.82-2.82-2.82Z"/>
      <path class="cls-1" d="m159.06,117.04c-1.56,0-2.82,1.26-2.82,2.82v9.22c0,10.53-8.55,19.1-19.05,19.1H24.69c-10.51,0-19.05-8.57-19.05-19.1v-64.16c0-1.56-1.26-2.82-2.82-2.82s-2.82,1.26-2.82,2.82v64.16c0,13.64,11.08,24.74,24.69,24.74h112.49c13.62,0,24.69-11.1,24.69-24.74v-9.22c0-1.56-1.27-2.82-2.82-2.82Z"/>
      <path class="cls-1" d="m159.06,62.1c-1.56,0-2.82,1.26-2.82,2.82v30.61c0,1.56,1.26,2.82,2.82,2.82s2.82-1.26,2.82-2.82v-30.61c0-1.56-1.26-2.82-2.82-2.82Z"/>
      <path class="cls-1" d="m22.99,72.18c-1.56,0-2.82,1.26-2.82,2.82v54.08c0,2.52,2.04,4.57,4.54,4.57h112.47c2.5,0,4.54-2.05,4.54-4.57v-54.08c0-1.56-1.26-2.82-2.82-2.82H22.99Zm2.82,55.83v-50.19h110.27v50.19H25.8Z"/>
      <path class="cls-1" d="m2.82,57.68h156.24c1.55,0,2.82-1.27,2.82-2.82v-17.84c0-13.63-11.09-24.72-24.72-24.72h-2.22c-1.35-7.14-7.55-12.3-14.84-12.3s-13.46,5.16-14.81,12.3h-9.53c-1.35-7.14-7.55-12.3-14.84-12.3s-13.46,5.16-14.81,12.3h-9.53c-1.35-7.14-7.55-12.3-14.84-12.3s-13.46,5.16-14.81,12.3h-2.22C11.09,12.3,0,23.39,0,37.02v17.84c0,1.56,1.26,2.82,2.82,2.82ZM41.75,5.64c4.12,0,7.78,2.72,9.01,6.66h-17.99c1.23-3.94,4.87-6.66,8.98-6.66Zm0,18.96c-1.55,0-2.82,1.26-2.82,2.82s1.26,2.82,2.82,2.82c7.29,0,13.49-5.16,14.84-12.3h33.35c-1.23,3.94-4.88,6.66-9.01,6.66-1.55,0-2.82,1.27-2.82,2.82s1.26,2.82,2.82,2.82c7.29,0,13.49-5.16,14.84-12.3h33.35c-1.23,3.94-4.88,6.66-9.01,6.66-1.56,0-2.82,1.26-2.82,2.82s1.26,2.82,2.82,2.82c7.29,0,13.49-5.16,14.84-12.3h2.22c10.52,0,19.08,8.56,19.08,19.08v15.02H5.64v-15.02c0-10.52,8.56-19.08,19.08-19.08h26.04c-1.23,3.94-4.88,6.66-9.01,6.66ZM80.92,5.64c4.12,0,7.78,2.72,9.01,6.66h-17.99c1.23-3.94,4.87-6.66,8.98-6.66Zm39.18,0c4.12,0,7.78,2.72,9.01,6.66h-17.99c1.23-3.94,4.87-6.66,8.98-6.66Z"/>
      <path class="cls-1" d="m115.97,91.6H45.91c-1.55,0-2.82,1.26-2.82,2.82s1.26,2.82,2.82,2.82h70.06c1.56,0,2.82-1.26,2.82-2.82s-1.26-2.82-2.82-2.82Z"/>
      <path class="cls-1" d="m88.65,108.6h-42.74c-1.55,0-2.82,1.26-2.82,2.82s1.26,2.82,2.82,2.82h42.74c1.56,0,2.82-1.26,2.82-2.82s-1.26-2.82-2.82-2.82Z"/>
    </g>
  </g>
</svg>