<svg width="22" height="21" viewBox="0 0 22 21" fill="none" xmlns="http://www.w3.org/2000/svg">
<path fill-rule="evenodd" clip-rule="evenodd" d="M3.7617 19.4916C3.65959 20.0737 4.23389 20.5293 4.7411 20.2686L10.502 17.3076L16.2628 20.2686C16.77 20.5293 17.3443 20.0737 17.2422 19.4916L16.1532 13.2842L20.7763 8.87856C21.2083 8.46684 20.9847 7.71404 20.4059 7.63182L13.9766 6.71849L11.1099 1.0399C10.8517 0.528367 10.1522 0.528367 9.89396 1.0399L7.0273 6.71849L0.598054 7.63182C0.0192554 7.71404 -0.204395 8.46684 0.227655 8.87856L4.85071 13.2842L3.7617 19.4916ZM10.199 15.8584L5.36144 18.3448L6.27265 13.1509C6.3156 12.906 6.23484 12.6553 6.05905 12.4878L2.24382 8.85203L7.56247 8.09646C7.78234 8.06523 7.97432 7.92481 8.07803 7.71935L10.502 2.91779L12.9259 7.71935C13.0296 7.92481 13.2216 8.06523 13.4414 8.09646L18.7601 8.85203L14.9449 12.4878C14.7691 12.6553 14.6883 12.906 14.7313 13.1509L15.6425 18.3448L10.8049 15.8584C10.6138 15.7602 10.3901 15.7602 10.199 15.8584Z" fill="#E64B38"/>
</svg>
