<svg width="20" height="21" viewBox="0 0 20 21" fill="none" xmlns="http://www.w3.org/2000/svg">
<path fill-rule="evenodd" clip-rule="evenodd" d="M6.80408 2.98926C5.50017 3.33424 4.17968 3.74209 3.39815 3.99099C3.18313 4.05948 3.03214 4.24121 3.00378 4.44889C2.33877 9.31979 3.87531 12.875 5.70873 15.216C6.62922 16.3913 7.62519 17.2606 8.45549 17.8321C8.87097 18.1181 9.23828 18.3248 9.52689 18.4574C9.67139 18.5238 9.78957 18.5686 9.87933 18.5957C9.95325 18.6181 9.99127 18.6234 10.0003 18.6246C10.0093 18.6234 10.0474 18.6181 10.1213 18.5957C10.211 18.5686 10.3292 18.5238 10.4737 18.4574C10.7623 18.3248 11.1296 18.1181 11.5451 17.8321C12.3754 17.2606 13.3714 16.3913 14.2919 15.216C16.1253 12.875 17.6618 9.31979 16.9968 4.44889C16.9685 4.24121 16.8175 4.05948 16.6025 3.99099C15.8209 3.74208 14.5004 3.33424 13.1965 2.98926C11.8634 2.63654 10.6377 2.375 10.0003 2.375C9.36294 2.375 8.13725 2.63654 6.80408 2.98926ZM6.48437 1.78084C7.78796 1.43595 9.17246 1.125 10.0003 1.125C10.8282 1.125 12.2127 1.43595 13.5162 1.78084C14.8491 2.13348 16.1919 2.54837 16.9818 2.79994C17.641 3.00989 18.1396 3.57843 18.2353 4.2798C18.9517 9.52666 17.2906 13.4143 15.276 15.9867C14.2725 17.2681 13.1818 18.2231 12.2538 18.8618C11.7902 19.1809 11.3605 19.4256 10.9956 19.5933C10.6584 19.7482 10.2977 19.875 10.0003 19.875C9.7029 19.875 9.34218 19.7482 9.00502 19.5933C8.64012 19.4256 8.21041 19.1809 7.74678 18.8618C6.81885 18.2231 5.72816 17.2681 4.72462 15.9867C2.70996 13.4143 1.04893 9.52666 1.76527 4.2798C1.86103 3.57843 2.35962 3.00989 3.01882 2.79994C3.80871 2.54837 5.15153 2.13348 6.48437 1.78084Z" fill="#E64B38"/>
<path fill-rule="evenodd" clip-rule="evenodd" d="M13.5669 8.18306C13.811 8.42714 13.811 8.82286 13.5669 9.06694L9.81694 12.8169C9.69973 12.9342 9.54076 13 9.375 13C9.20924 13 9.05027 12.9342 8.93306 12.8169L7.05806 10.9419C6.81398 10.6979 6.81398 10.3021 7.05806 10.0581C7.30214 9.81398 7.69786 9.81398 7.94194 10.0581L9.375 11.4911L12.6831 8.18306C12.9271 7.93898 13.3229 7.93898 13.5669 8.18306Z" fill="#E64B38"/>
</svg>
