<svg width="25" height="25" viewBox="0 0 25 25" fill="none" xmlns="http://www.w3.org/2000/svg">
<path fill-rule="evenodd" clip-rule="evenodd" d="M12.5 23.4375C18.5406 23.4375 23.4375 18.5406 23.4375 12.5C23.4375 6.45939 18.5406 1.5625 12.5 1.5625C6.45939 1.5625 1.5625 6.45939 1.5625 12.5C1.5625 18.5406 6.45939 23.4375 12.5 23.4375ZM12.5 25C19.4036 25 25 19.4036 25 12.5C25 5.59644 19.4036 0 12.5 0C5.59644 0 0 5.59644 0 12.5C0 19.4036 5.59644 25 12.5 25Z" fill="#E64B38"/>
<path fill-rule="evenodd" clip-rule="evenodd" d="M12.5 20.3125C16.8147 20.3125 20.3125 16.8147 20.3125 12.5C20.3125 8.18528 16.8147 4.6875 12.5 4.6875C8.18528 4.6875 4.6875 8.18528 4.6875 12.5C4.6875 16.8147 8.18528 20.3125 12.5 20.3125ZM12.5 21.875C17.6777 21.875 21.875 17.6777 21.875 12.5C21.875 7.32233 17.6777 3.125 12.5 3.125C7.32233 3.125 3.125 7.32233 3.125 12.5C3.125 17.6777 7.32233 21.875 12.5 21.875Z" fill="#E64B38"/>
<path fill-rule="evenodd" clip-rule="evenodd" d="M12.5 17.1875C15.0888 17.1875 17.1875 15.0888 17.1875 12.5C17.1875 9.91117 15.0888 7.8125 12.5 7.8125C9.91117 7.8125 7.8125 9.91117 7.8125 12.5C7.8125 15.0888 9.91117 17.1875 12.5 17.1875ZM12.5 18.75C15.9518 18.75 18.75 15.9518 18.75 12.5C18.75 9.04822 15.9518 6.25 12.5 6.25C9.04822 6.25 6.25 9.04822 6.25 12.5C6.25 15.9518 9.04822 18.75 12.5 18.75Z" fill="#E64B38"/>
<path d="M14.8438 12.5C14.8438 13.7944 13.7944 14.8438 12.5 14.8438C11.2056 14.8438 10.1562 13.7944 10.1562 12.5C10.1562 11.2056 11.2056 10.1562 12.5 10.1562C13.7944 10.1562 14.8438 11.2056 14.8438 12.5Z" fill="#E64B38"/>
</svg>
