<svg width="23" height="22" viewBox="0 0 23 22" fill="none" xmlns="http://www.w3.org/2000/svg">
<path fill-rule="evenodd" clip-rule="evenodd" d="M22.0025 0.409723C22.2311 0.638302 22.2953 0.984048 22.164 1.27945L13.3252 21.1668C13.199 21.4507 12.9167 21.6328 12.606 21.6308C12.2954 21.6287 12.0155 21.4428 11.8932 21.1573L8.70169 13.7105L1.25494 10.5191C0.969427 10.3967 0.783529 10.1168 0.781459 9.80619C0.779389 9.49557 0.961539 9.21323 1.2454 9.08707L21.1328 0.248235C21.4282 0.116947 21.7739 0.181145 22.0025 0.409723ZM3.51559 9.78797L9.60442 12.3975C9.78881 12.4765 9.93573 12.6234 10.0148 12.8078L12.6243 18.8966L19.9112 2.50103L3.51559 9.78797Z" fill="#E64B38"/>
</svg>
