<svg width="24" height="23" viewBox="0 0 24 23" fill="none" xmlns="http://www.w3.org/2000/svg">
<path fill-rule="evenodd" clip-rule="evenodd" d="M12.2785 1.59926C12.0997 1.53072 11.9003 1.53072 11.7215 1.59926L2.76944 5.03087L6.375 6.413L15.6056 2.87462L12.2785 1.59926ZM17.625 3.64873L8.39444 7.18712L12 8.56925L21.2306 5.03087L17.625 3.64873ZM22.5 6.09248L12.75 9.82998V21.2192L22.5 17.4817V6.09248ZM11.25 21.2192V9.82998L1.5 6.09248V17.4817L11.25 21.2192ZM11.1644 0.264574C11.7008 0.0589442 12.2992 0.0589442 12.8356 0.264574L23.5285 4.36352C23.8133 4.47268 24 4.73697 24 5.03087V17.4817C24 18.0695 23.6266 18.5981 23.0571 18.8164L12.2785 22.9482C12.0997 23.0168 11.9003 23.0168 11.7215 22.9482L0.942914 18.8164C0.373427 18.5981 0 18.0695 0 17.4817V5.03087C0 4.73697 0.186713 4.47268 0.471457 4.36352L11.1644 0.264574Z" fill="#E64B38"/>
</svg>
